<svg xmlns="http://www.w3.org/2000/svg" fill="none" viewBox="0 0 3001 2614">
  <g opacity=".2">
    <path fill="#5BA0FE" d="M1602.37 800.9c2.54 0 4.59-2.059 4.59-4.6 0-2.54-2.05-4.6-4.59-4.6-2.53 0-4.59 2.06-4.59 4.6 0 2.541 2.06 4.6 4.59 4.6ZM969.747 680.2c3.858 0 6.986-3.134 6.986-7s-3.128-7-6.986-7c-3.859 0-6.986 3.134-6.986 7s3.127 7 6.986 7Zm59.583 1207.5c3.85 0 6.98-3.13 6.98-7s-3.13-7-6.98-7c-3.86 0-6.99 3.13-6.99 7s3.13 7 6.99 7Zm38.12-649.4c3.58 0 6.49-2.91 6.49-6.5s-2.91-6.5-6.49-6.5-6.49 2.91-6.49 6.5 2.91 6.5 6.49 6.5Zm813.16 355.3c3.86 0 6.99-3.13 6.99-7s-3.13-7-6.99-7c-3.86 0-6.99 3.13-6.99 7s3.13 7 6.99 7ZM1215.75 1357c2.59 0 4.69-2.1 4.69-4.7s-2.1-4.7-4.69-4.7c-2.59 0-4.69 2.1-4.69 4.7s2.1 4.7 4.69 4.7Zm106.69-282.6c.27 0 .5-.22.5-.5s-.23-.5-.5-.5c-.28 0-.5.22-.5.5s.22.5.5.5Zm-253.99 320.1c3.91 0 7.08-3.18 7.08-7.1 0-3.92-3.17-7.1-7.08-7.1-3.92 0-7.09 3.18-7.09 7.1 0 3.92 3.17 7.1 7.09 7.1Zm-260.677-184.7c4.189 0 7.585-3.4 7.585-7.6 0-4.2-3.396-7.6-7.585-7.6s-7.585 3.4-7.585 7.6c0 4.2 3.396 7.6 7.585 7.6Zm44.212-81.3c4.078 0 7.385-3.31 7.385-7.4s-3.307-7.4-7.385-7.4c-4.079 0-7.385 3.31-7.385 7.4s3.306 7.4 7.385 7.4Zm129.139 175.8c3.142 0 5.689-2.55 5.689-5.7 0-3.15-2.547-5.7-5.689-5.7s-5.688 2.55-5.688 5.7c0 3.15 2.546 5.7 5.688 5.7Zm-387.12-568.4c3.693 0 6.686-3 6.686-6.7s-2.993-6.7-6.686-6.7-6.687 3-6.687 6.7 2.994 6.7 6.687 6.7ZM1076.23 748c4.25 0 7.69-3.447 7.69-7.7 0-4.252-3.44-7.7-7.69-7.7-4.24 0-7.68 3.448-7.68 7.7 0 4.253 3.44 7.7 7.68 7.7Zm-518.253 617.5c4.244 0 7.685-3.45 7.685-7.7s-3.441-7.7-7.685-7.7-7.684 3.45-7.684 7.7 3.44 7.7 7.684 7.7Zm518.653-155.3c3.09 0 5.59-2.51 5.59-5.6s-2.5-5.6-5.59-5.6-5.59 2.51-5.59 5.6 2.5 5.6 5.59 5.6Zm373.35 810.6c4.41 0 7.98-3.58 7.98-8s-3.57-8-7.98-8-7.98 3.58-7.98 8 3.57 8 7.98 8Zm-278.44-207.1c2.32 0 4.19-1.88 4.19-4.2 0-2.32-1.87-4.2-4.19-4.2-2.31 0-4.19 1.88-4.19 4.2 0 2.32 1.88 4.2 4.19 4.2Zm81.83-562.5c3.64 0 6.59-2.95 6.59-6.6 0-3.64-2.95-6.6-6.59-6.6-3.63 0-6.58 2.96-6.58 6.6 0 3.65 2.95 6.6 6.58 6.6Zm153.7 546.9c3.03 0 5.49-2.46 5.49-5.5s-2.46-5.5-5.49-5.5c-3.04 0-5.49 2.46-5.49 5.5s2.45 5.5 5.49 5.5Zm-258.68-735.9c3.86 0 6.98-3.13 6.98-7s-3.12-7-6.98-7c-3.86 0-6.99 3.13-6.99 7s3.13 7 6.99 7Zm667.55 386.7c.17 0 .3-.13.3-.3 0-.17-.13-.3-.3-.3-.16 0-.3.13-.3.3 0 .17.14.3.3.3Zm193.41 527.6c.5 0 .9-.4.9-.9s-.4-.9-.9-.9c-.49 0-.9.4-.9.9s.41.9.9.9Zm-627.73 52.9c2.26 0 4.09-1.84 4.09-4.1s-1.83-4.1-4.09-4.1-4.09 1.84-4.09 4.1 1.83 4.1 4.09 4.1ZM746.497 838c3.913 0 7.086-3.179 7.086-7.1s-3.173-7.1-7.086-7.1c-3.914 0-7.086 3.179-7.086 7.1s3.172 7.1 7.086 7.1Zm207.083 999.4c3.968 0 7.186-3.22 7.186-7.2s-3.218-7.2-7.186-7.2-7.185 3.22-7.185 7.2 3.217 7.2 7.185 7.2Zm60.18-64.2c4.46 0 8.08-3.63 8.08-8.1s-3.62-8.1-8.08-8.1c-4.47 0-8.09 3.63-8.09 8.1s3.62 8.1 8.09 8.1Zm25.55-1074.1c7.82 0 14.17-6.357 14.17-14.2 0-7.842-6.35-14.2-14.17-14.2-7.83 0-14.17 6.358-14.17 14.2 0 7.843 6.34 14.2 14.17 14.2Zm527.73-559.7c4.58 0 8.29-3.716 8.29-8.3 0-4.584-3.71-8.3-8.29-8.3-4.57 0-8.28 3.716-8.28 8.3 0 4.584 3.71 8.3 8.28 8.3ZM1142.6 1596.7c3.58 0 6.49-2.91 6.49-6.5s-2.91-6.5-6.49-6.5-6.49 2.91-6.49 6.5 2.91 6.5 6.49 6.5Zm614.56-90.6c4.13 0 7.48-3.36 7.48-7.5 0-4.14-3.35-7.5-7.48-7.5-4.13 0-7.49 3.36-7.49 7.5 0 4.14 3.36 7.5 7.49 7.5ZM355.087 975.5c2.48 0 4.491-2.015 4.491-4.5s-2.011-4.5-4.491-4.5c-2.481 0-4.491 2.015-4.491 4.5s2.01 4.5 4.491 4.5ZM2018.23 792.2c.22 0 .4-.179.4-.4 0-.221-.18-.4-.4-.4-.22 0-.4.179-.4.4 0 .221.18.4.4.4ZM339.717 469.6c3.803 0 6.886-3.089 6.886-6.9 0-3.811-3.083-6.9-6.886-6.9s-6.886 3.089-6.886 6.9c0 3.811 3.083 6.9 6.886 6.9Zm582.027 637.7c4.52 0 8.183-3.67 8.183-8.2 0-4.53-3.663-8.2-8.183-8.2s-8.183 3.67-8.183 8.2c0 4.53 3.663 8.2 8.183 8.2Zm-392.809 709.3c3.087 0 5.589-2.51 5.589-5.6s-2.502-5.6-5.589-5.6c-3.086 0-5.588 2.51-5.588 5.6s2.502 5.6 5.588 5.6Zm80.039-1177c4.189 0 7.585-3.403 7.585-7.6 0-4.197-3.396-7.6-7.585-7.6s-7.584 3.403-7.584 7.6c0 4.197 3.395 7.6 7.584 7.6Zm1284.606 446.7c4.63 0 8.39-3.76 8.39-8.4 0-4.64-3.76-8.4-8.39-8.4-4.63 0-8.38 3.76-8.38 8.4 0 4.64 3.75 8.4 8.38 8.4Zm-474.64-105.2c2.21 0 3.99-1.791 3.99-4s-1.78-4-3.99-4c-2.2 0-3.99 1.791-3.99 4s1.79 4 3.99 4Zm-446.898 507.2c3.252 0 5.889-2.64 5.889-5.9 0-3.26-2.637-5.9-5.889-5.9-3.252 0-5.888 2.64-5.888 5.9 0 3.26 2.636 5.9 5.888 5.9Zm7.985-237.4c.937 0 1.696-.76 1.696-1.7s-.759-1.7-1.696-1.7c-.937 0-1.697.76-1.697 1.7s.76 1.7 1.697 1.7Zm1468.843-189.3c2.86 0 5.19-2.33 5.19-5.2s-2.33-5.2-5.19-5.2c-2.87 0-5.19 2.33-5.19 5.2s2.32 5.2 5.19 5.2Zm-419.86-445c4.63 0 8.38-3.761 8.38-8.4s-3.75-8.4-8.38-8.4c-4.63 0-8.38 3.761-8.38 8.4s3.75 8.4 8.38 8.4Zm-389.11 465.7c3.47 0 6.28-2.82 6.28-6.3s-2.81-6.3-6.28-6.3c-3.48 0-6.29 2.82-6.29 6.3s2.81 6.3 6.29 6.3Zm-256.79 499.8c2.87 0 5.19-2.33 5.19-5.2s-2.32-5.2-5.19-5.2c-2.86 0-5.19 2.33-5.19 5.2s2.33 5.2 5.19 5.2ZM852.384 270.2c4.134 0 7.485-3.358 7.485-7.5 0-4.142-3.351-7.5-7.485-7.5-4.133 0-7.485 3.358-7.485 7.5 0 4.142 3.352 7.5 7.485 7.5Zm590.706 180.6c2.26 0 4.09-1.836 4.09-4.1 0-2.264-1.83-4.1-4.09-4.1s-4.09 1.836-4.09 4.1c0 2.264 1.83 4.1 4.09 4.1Zm515.36 397.6c2.93 0 5.29-2.373 5.29-5.3 0-2.927-2.36-5.3-5.29-5.3-2.92 0-5.28 2.373-5.28 5.3 0 2.927 2.36 5.3 5.28 5.3ZM1717.94 6c1.65 0 2.99-1.34315 2.99-3s-1.34-3-2.99-3c-1.65 0-2.99 1.34315-2.99 3s1.34 3 2.99 3ZM1391.6 1082.7c3.74 0 6.78-3.04 6.78-6.8s-3.04-6.8-6.78-6.8c-3.75 0-6.79 3.04-6.79 6.8s3.04 6.8 6.79 6.8Zm-363.87 1036.8c2.37 0 4.29-1.93 4.29-4.3s-1.92-4.3-4.29-4.3-4.29 1.93-4.29 4.3 1.92 4.3 4.29 4.3Zm633.12-893c4.69 0 8.49-3.81 8.49-8.5 0-4.69-3.8-8.5-8.49-8.5-4.68 0-8.48 3.81-8.48 8.5 0 4.69 3.8 8.5 8.48 8.5Zm67.27-69.5c2.37 0 4.29-1.93 4.29-4.3s-1.92-4.3-4.29-4.3-4.29 1.93-4.29 4.3 1.92 4.3 4.29 4.3Zm-799.89 822.3c4.74 0 8.583-3.85 8.583-8.6s-3.843-8.6-8.583-8.6-8.583 3.85-8.583 8.6 3.843 8.6 8.583 8.6Zm1043.8-1428.5c9.37 0 16.96-7.611 16.96-17s-7.59-17-16.96-17c-9.37 0-16.97 7.611-16.97 17s7.6 17 16.97 17Zm1.39 609c3.64 0 6.59-2.95 6.59-6.6 0-3.65-2.95-6.6-6.59-6.6-3.63 0-6.58 2.95-6.58 6.6 0 3.65 2.95 6.6 6.58 6.6Zm-411.67 172.4c4.69 0 8.49-3.81 8.49-8.5 0-4.69-3.8-8.5-8.49-8.5-4.68 0-8.48 3.81-8.48 8.5 0 4.69 3.8 8.5 8.48 8.5ZM1869.83 796c.06 0 .1-.045.1-.1 0-.055-.04-.1-.1-.1-.05 0-.1.045-.1.1 0 .055.05.1.1.1Zm-502.18 996.6c4.13 0 7.48-3.36 7.48-7.5 0-4.14-3.35-7.5-7.48-7.5-4.14 0-7.49 3.36-7.49 7.5 0 4.14 3.35 7.5 7.49 7.5ZM353.989 747c8.984 0 16.267-7.298 16.267-16.3s-7.283-16.3-16.267-16.3c-8.984 0-16.267 7.298-16.267 16.3s7.283 16.3 16.267 16.3Zm1639.491 650.9c4.63 0 8.39-3.76 8.39-8.4 0-4.64-3.76-8.4-8.39-8.4-4.63 0-8.38 3.76-8.38 8.4 0 4.64 3.75 8.4 8.38 8.4Zm-795.89-5.5c.94 0 1.69-.76 1.69-1.7s-.75-1.7-1.69-1.7-1.7.76-1.7 1.7.76 1.7 1.7 1.7Zm373.05-1076c4.35 0 7.88-3.537 7.88-7.9s-3.53-7.9-7.88-7.9c-4.36 0-7.89 3.537-7.89 7.9s3.53 7.9 7.89 7.9ZM484.326 1370.8c.937 0 1.697-.76 1.697-1.7s-.76-1.7-1.697-1.7-1.696.76-1.696 1.7.759 1.7 1.696 1.7ZM1162.36 218.1c5.68 0 10.28-4.611 10.28-10.3 0-5.689-4.6-10.3-10.28-10.3s-10.28 4.611-10.28 10.3c0 5.689 4.6 10.3 10.28 10.3ZM307.582 511.7c4.685 0 8.482-3.806 8.482-8.5s-3.797-8.5-8.482-8.5c-4.685 0-8.483 3.806-8.483 8.5s3.798 8.5 8.483 8.5Zm917.448 1675.6c7.44 0 13.48-6.04 13.48-13.5s-6.04-13.5-13.48-13.5-13.47 6.04-13.47 13.5 6.03 13.5 13.47 13.5Zm-437.216-575.4c6.229 0 11.278-5.06 11.278-11.3 0-6.24-5.049-11.3-11.278-11.3-6.228 0-11.277 5.06-11.277 11.3 0 6.24 5.049 11.3 11.277 11.3Zm87.423 169.3c4.851 0 8.783-3.94 8.783-8.8 0-4.86-3.932-8.8-8.783-8.8-4.85 0-8.782 3.94-8.782 8.8 0 4.86 3.932 8.8 8.782 8.8ZM1619.04 1940c3.86 0 6.98-3.13 6.98-7s-3.12-7-6.98-7c-3.86 0-6.99 3.13-6.99 7s3.13 7 6.99 7Zm-634.622-613c3.803 0 6.886-3.09 6.886-6.9 0-3.81-3.083-6.9-6.886-6.9-3.804 0-6.887 3.09-6.887 6.9 0 3.81 3.083 6.9 6.887 6.9Zm279.632-861.2c3.37 0 6.09-2.731 6.09-6.1 0-3.369-2.72-6.1-6.09-6.1-3.36 0-6.08 2.731-6.08 6.1 0 3.369 2.72 6.1 6.08 6.1ZM697.297 889.7c3.913 0 7.085-3.179 7.085-7.1s-3.172-7.1-7.085-7.1c-3.914 0-7.086 3.179-7.086 7.1s3.172 7.1 7.086 7.1Zm1246.483 513.7c4.85 0 8.79-3.94 8.79-8.8 0-4.86-3.94-8.8-8.79-8.8s-8.78 3.94-8.78 8.8c0 4.86 3.93 8.8 8.78 8.8ZM1257.87 569c4.02 0 7.28-3.268 7.28-7.3s-3.26-7.3-7.28-7.3c-4.03 0-7.29 3.268-7.29 7.3s3.26 7.3 7.29 7.3Zm-539.017 81c.055 0 .1-.045.1-.1 0-.055-.045-.1-.1-.1-.055 0-.1.045-.1.1 0 .055.045.1.1.1Zm802.187 435c4.46 0 8.08-3.63 8.08-8.1s-3.62-8.1-8.08-8.1c-4.47 0-8.09 3.63-8.09 8.1s3.62 8.1 8.09 8.1Zm263.86 505.6c1.11 0 2-.9 2-2s-.89-2-2-2c-1.1 0-1.99.9-1.99 2s.89 2 1.99 2Zm-534.32 171.1c5.07 0 9.18-4.12 9.18-9.2 0-5.08-4.11-9.2-9.18-9.2-5.07 0-9.18 4.12-9.18 9.2 0 5.08 4.11 9.2 9.18 9.2Zm-139.22-56.6c4.91 0 8.88-3.98 8.88-8.9s-3.97-8.9-8.88-8.9c-4.9 0-8.88 3.98-8.88 8.9s3.98 8.9 8.88 8.9Zm950.09-289.6c3.96 0 7.18-3.22 7.18-7.2s-3.22-7.2-7.18-7.2c-3.97 0-7.19 3.22-7.19 7.2s3.22 7.2 7.19 7.2ZM558.776 189.4c1.212 0 2.195-.985 2.195-2.2 0-1.215-.983-2.2-2.195-2.2-1.213 0-2.196.985-2.196 2.2 0 1.215.983 2.2 2.196 2.2Zm812.564 1922.4c2.42 0 4.39-1.97 4.39-4.4 0-2.43-1.97-4.4-4.39-4.4-2.43 0-4.39 1.97-4.39 4.4 0 2.43 1.96 4.4 4.39 4.4Zm281.53-1716.2c3.47 0 6.29-2.821 6.29-6.3 0-3.479-2.82-6.3-6.29-6.3s-6.29 2.821-6.29 6.3c0 3.479 2.82 6.3 6.29 6.3Zm-212.37 745.1c4.9 0 8.88-3.98 8.88-8.9s-3.98-8.9-8.88-8.9c-4.91 0-8.88 3.98-8.88 8.9s3.97 8.9 8.88 8.9Zm-54.39-205.3c3.97 0 7.18-3.223 7.18-7.2 0-3.976-3.21-7.2-7.18-7.2-3.97 0-7.19 3.224-7.19 7.2 0 3.977 3.22 7.2 7.19 7.2ZM1316.95 785c5.73 0 10.38-4.656 10.38-10.4 0-5.744-4.65-10.4-10.38-10.4s-10.38 4.656-10.38 10.4c0 5.744 4.65 10.4 10.38 10.4ZM490.913 2076.8c3.913 0 7.086-3.18 7.086-7.1 0-3.92-3.173-7.1-7.086-7.1-3.913 0-7.086 3.18-7.086 7.1 0 3.92 3.173 7.1 7.086 7.1Zm1607.057-276.3c3.86 0 6.99-3.13 6.99-7s-3.13-7-6.99-7c-3.85 0-6.98 3.13-6.98 7s3.13 7 6.98 7ZM687.416 1331.8c4.74 0 8.582-3.85 8.582-8.6s-3.842-8.6-8.582-8.6-8.583 3.85-8.583 8.6 3.843 8.6 8.583 8.6Zm1453.964 449.5c3.97 0 7.19-3.22 7.19-7.2s-3.22-7.2-7.19-7.2c-3.96 0-7.18 3.22-7.18 7.2s3.22 7.2 7.18 7.2Zm-1702.163-39.8c4.519 0 8.183-3.67 8.183-8.2 0-4.53-3.664-8.2-8.183-8.2-4.52 0-8.184 3.67-8.184 8.2 0 4.53 3.664 8.2 8.184 8.2Zm198 241.3c4.85 0 8.782-3.94 8.782-8.8 0-4.86-3.932-8.8-8.782-8.8s-8.782 3.94-8.782 8.8c0 4.86 3.932 8.8 8.782 8.8Zm1191.003 236.4c4.96 0 8.98-4.03 8.98-9s-4.02-9-8.98-9c-4.96 0-8.98 4.03-8.98 9s4.02 9 8.98 9Zm-337.42-1226c1.82 0 3.29-1.477 3.29-3.3 0-1.822-1.47-3.3-3.29-3.3s-3.3 1.478-3.3 3.3c0 1.823 1.48 3.3 3.3 3.3Zm1.39 118.3c4.96 0 8.99-4.03 8.99-9s-4.03-9-8.99-9-8.98 4.03-8.98 9 4.02 9 8.98 9Zm-214.46 438.2c5.01 0 9.08-4.07 9.08-9.1 0-5.03-4.07-9.1-9.08-9.1-5.02 0-9.09 4.07-9.09 9.1 0 5.03 4.07 9.1 9.09 9.1Zm23.35-402.5c4.02 0 7.28-3.27 7.28-7.3 0-4.03-3.26-7.3-7.28-7.3-4.02 0-7.29 3.27-7.29 7.3 0 4.03 3.27 7.3 7.29 7.3Zm-1045.394-836c5.347 0 9.681-4.343 9.681-9.7 0-5.357-4.334-9.7-9.681-9.7-5.346 0-9.68 4.343-9.68 9.7 0 5.357 4.334 9.7 9.68 9.7Zm1188.404-9.9c1.71 0 3.09-1.388 3.09-3.1 0-1.712-1.38-3.1-3.09-3.1s-3.09 1.388-3.09 3.1c0 1.712 1.38 3.1 3.09 3.1ZM103.294 755.4c4.024 0 7.285-3.268 7.285-7.3s-3.261-7.3-7.285-7.3c-4.0234 0-7.2852 3.268-7.2852 7.3s3.2618 7.3 7.2852 7.3ZM1636.6 219.2c3.92 0 7.09-3.179 7.09-7.1s-3.17-7.1-7.09-7.1c-3.91 0-7.08 3.179-7.08 7.1s3.17 7.1 7.08 7.1Zm-820.842 827.3c4.244 0 7.684-3.45 7.684-7.7s-3.44-7.7-7.684-7.7-7.685 3.45-7.685 7.7 3.441 7.7 7.685 7.7Zm-460.373 31.3c4.354 0 7.884-3.54 7.884-7.9s-3.53-7.9-7.884-7.9c-4.354 0-7.884 3.54-7.884 7.9s3.53 7.9 7.884 7.9Zm517.257-811.4c1.874 0 3.393-1.522 3.393-3.4s-1.519-3.4-3.393-3.4c-1.874 0-3.393 1.522-3.393 3.4s1.519 3.4 3.393 3.4Zm108.382 740.4c3.473 0 6.288-2.82 6.288-6.3 0-3.479-2.815-6.3-6.288-6.3-3.472 0-6.287 2.821-6.287 6.3 0 3.48 2.815 6.3 6.287 6.3ZM1254.07 755c4.69 0 8.49-3.806 8.49-8.5s-3.8-8.5-8.49-8.5c-4.68 0-8.48 3.806-8.48 8.5s3.8 8.5 8.48 8.5Zm68.67-290.9c3.74 0 6.78-3.044 6.78-6.8s-3.04-6.8-6.78-6.8c-3.75 0-6.79 3.044-6.79 6.8s3.04 6.8 6.79 6.8Zm-583.727 63.8c5.07 0 9.181-4.119 9.181-9.2 0-5.081-4.111-9.2-9.181-9.2-5.071 0-9.182 4.119-9.182 9.2 0 5.081 4.111 9.2 9.182 9.2ZM1782.71 1510c5.01 0 9.08-4.07 9.08-9.1 0-5.03-4.07-9.1-9.08-9.1-5.02 0-9.08 4.07-9.08 9.1 0 5.03 4.06 9.1 9.08 9.1Zm-125.85-576.7c4.91 0 8.88-3.985 8.88-8.9 0-4.915-3.97-8.9-8.88-8.9-4.9 0-8.88 3.985-8.88 8.9 0 4.915 3.98 8.9 8.88 8.9Zm520.85-515.9c5.02 0 9.08-4.074 9.08-9.1s-4.06-9.1-9.08-9.1c-5.01 0-9.08 4.074-9.08 9.1s4.07 9.1 9.08 9.1ZM800.289 786.3c5.071 0 9.181-4.119 9.181-9.2 0-5.081-4.11-9.2-9.181-9.2-5.071 0-9.182 4.119-9.182 9.2 0 5.081 4.111 9.2 9.182 9.2Zm769.951 936.5c4.68 0 8.48-3.81 8.48-8.5 0-4.69-3.8-8.5-8.48-8.5-4.69 0-8.49 3.81-8.49 8.5 0 4.69 3.8 8.5 8.49 8.5Zm269.55.1c2.1 0 3.8-1.7 3.8-3.8 0-2.1-1.7-3.8-3.8-3.8-2.09 0-3.79 1.7-3.79 3.8 0 2.1 1.7 3.8 3.79 3.8Zm-919.243-1259c4.74 0 8.582-3.85 8.582-8.6s-3.842-8.6-8.582-8.6-8.583 3.85-8.583 8.6 3.843 8.6 8.583 8.6Zm-518.555 681.5c5.016 0 9.082-4.07 9.082-9.1 0-5.03-4.066-9.1-9.082-9.1-5.016 0-9.082 4.07-9.082 9.1 0 5.03 4.066 9.1 9.082 9.1Zm91.416-616.9c4.96 0 8.982-4.029 8.982-9s-4.022-9-8.982-9c-4.961 0-8.982 4.029-8.982 9s4.021 9 8.982 9Zm602.582-356c4.91 0 8.88-3.985 8.88-8.9 0-4.915-3.97-8.9-8.88-8.9-4.9 0-8.88 3.985-8.88 8.9 0 4.915 3.98 8.9 8.88 8.9Zm651.99 1012.9c8.93 0 16.17-7.25 16.17-16.2s-7.24-16.2-16.17-16.2c-8.93 0-16.17 7.25-16.17 16.2s7.24 16.2 16.17 16.2ZM959.468 442.1c1.433 0 2.595-1.164 2.595-2.6 0-1.436-1.162-2.6-2.595-2.6-1.433 0-2.595 1.164-2.595 2.6 0 1.436 1.162 2.6 2.595 2.6Zm154.392 540.3c1.71 0 3.09-1.388 3.09-3.1 0-1.712-1.38-3.1-3.09-3.1s-3.1 1.388-3.1 3.1c0 1.712 1.39 3.1 3.1 3.1Zm750.48 1110.9c7.77 0 14.07-6.31 14.07-14.1s-6.3-14.1-14.07-14.1c-7.77 0-14.07 6.31-14.07 14.1s6.3 14.1 14.07 14.1ZM412.072 924.8c4.134 0 7.485-3.358 7.485-7.5 0-4.142-3.351-7.5-7.485-7.5s-7.485 3.358-7.485 7.5c0 4.142 3.351 7.5 7.485 7.5Zm71.655 73.5c4.685 0 8.483-3.805 8.483-8.5 0-4.694-3.798-8.5-8.483-8.5-4.685 0-8.483 3.806-8.483 8.5 0 4.695 3.798 8.5 8.483 8.5Zm947.293 228.1c3.52 0 6.38-2.87 6.38-6.4 0-3.53-2.86-6.4-6.38-6.4-3.53 0-6.39 2.87-6.39 6.4 0 3.53 2.86 6.4 6.39 6.4Zm798.99 697.7c3.91 0 7.08-3.18 7.08-7.1 0-3.92-3.17-7.1-7.08-7.1-3.92 0-7.09 3.18-7.09 7.1 0 3.92 3.17 7.1 7.09 7.1Zm-852.58-789.4c5.4 0 9.78-4.39 9.78-9.8 0-5.41-4.38-9.8-9.78-9.8-5.41 0-9.78 4.39-9.78 9.8 0 5.41 4.37 9.8 9.78 9.8Zm340.21 810.2c4.52 0 8.18-3.67 8.18-8.2 0-4.53-3.66-8.2-8.18-8.2s-8.18 3.67-8.18 8.2c0 4.53 3.66 8.2 8.18 8.2ZM1242.4 504.1c3.69 0 6.68-3 6.68-6.7s-2.99-6.7-6.68-6.7c-3.7 0-6.69 3-6.69 6.7s2.99 6.7 6.69 6.7Zm-630.83 739.4c4.629 0 8.383-3.76 8.383-8.4 0-4.64-3.754-8.4-8.383-8.4-4.63 0-8.383 3.76-8.383 8.4 0 4.64 3.753 8.4 8.383 8.4Zm578.93-128.4c4.14 0 7.49-3.36 7.49-7.5 0-4.14-3.35-7.5-7.49-7.5-4.13 0-7.48 3.36-7.48 7.5 0 4.14 3.35 7.5 7.48 7.5Zm-388.215 259.3c3.582 0 6.487-2.91 6.487-6.5s-2.905-6.5-6.487-6.5c-3.583 0-6.487 2.91-6.487 6.5s2.904 6.5 6.487 6.5Zm874.335 403.4c5.24 0 9.48-4.25 9.48-9.5s-4.24-9.5-9.48-9.5c-5.23 0-9.48 4.25-9.48 9.5s4.25 9.5 9.48 9.5Zm-137.32-1469c3.86 0 6.99-3.134 6.99-7s-3.13-7-6.99-7c-3.86 0-6.99 3.134-6.99 7s3.13 7 6.99 7Zm910.86 1249.5c5.96 0 10.78-4.84 10.78-10.8 0-5.96-4.82-10.8-10.78-10.8-5.95 0-10.78 4.84-10.78 10.8 0 5.96 4.83 10.8 10.78 10.8Zm-1195.79 399.2c.77 0 1.4-.63 1.4-1.4 0-.77-.63-1.4-1.4-1.4-.77 0-1.39.63-1.39 1.4 0 .77.62 1.4 1.39 1.4Zm254.99-1128.8c5.07 0 9.18-4.119 9.18-9.2 0-5.081-4.11-9.2-9.18-9.2-5.07 0-9.18 4.119-9.18 9.2 0 5.081 4.11 9.2 9.18 9.2Zm495.9 349.9c4.52 0 8.18-3.67 8.18-8.2 0-4.53-3.66-8.2-8.18-8.2s-8.18 3.67-8.18 8.2c0 4.53 3.66 8.2 8.18 8.2ZM959.867 871.3c.551 0 .998-.448.998-1s-.447-1-.998-1c-.551 0-.998.448-.998 1s.447 1 .998 1Zm728.733 237.3c3.64 0 6.59-2.95 6.59-6.6 0-3.65-2.95-6.6-6.59-6.6-3.64 0-6.59 2.95-6.59 6.6 0 3.65 2.95 6.6 6.59 6.6ZM485.922 1396c4.906 0 8.882-3.98 8.882-8.9s-3.976-8.9-8.882-8.9c-4.905 0-8.882 3.98-8.882 8.9s3.977 8.9 8.882 8.9Zm1306.068-13.8c4.13 0 7.48-3.36 7.48-7.5 0-4.14-3.35-7.5-7.48-7.5-4.13 0-7.49 3.36-7.49 7.5 0 4.14 3.36 7.5 7.49 7.5Zm490.11-878.6c1.27 0 2.3-1.03 2.3-2.3 0-1.27-1.03-2.3-2.3-2.3-1.27 0-2.29 1.03-2.29 2.3 0 1.27 1.02 2.3 2.29 2.3ZM629.533 1499.7c5.071 0 9.182-4.12 9.182-9.2 0-5.08-4.111-9.2-9.182-9.2-5.071 0-9.181 4.12-9.181 9.2 0 5.08 4.11 9.2 9.181 9.2ZM2015.54 765.4c3.42 0 6.19-2.776 6.19-6.2 0-3.424-2.77-6.2-6.19-6.2-3.42 0-6.19 2.776-6.19 6.2 0 3.424 2.77 6.2 6.19 6.2Zm-538.52 754c4.3 0 7.79-3.49 7.79-7.8s-3.49-7.8-7.79-7.8c-4.29 0-7.78 3.49-7.78 7.8s3.49 7.8 7.78 7.8Zm295.51 110.1c9.2 0 16.67-7.48 16.67-16.7 0-9.22-7.47-16.7-16.67-16.7-9.21 0-16.67 7.48-16.67 16.7 0 9.22 7.46 16.7 16.67 16.7Zm628.73 119.3c2.43 0 4.39-1.97 4.39-4.4 0-2.43-1.96-4.4-4.39-4.4-2.42 0-4.39 1.97-4.39 4.4 0 2.43 1.97 4.4 4.39 4.4Zm-669.75-122.6c3.64 0 6.59-2.96 6.59-6.6 0-3.65-2.95-6.6-6.59-6.6-3.64 0-6.59 2.95-6.59 6.6 0 3.64 2.95 6.6 6.59 6.6ZM2208.15 449c2.65 0 4.79-2.149 4.79-4.8s-2.14-4.8-4.79-4.8c-2.64 0-4.79 2.149-4.79 4.8s2.15 4.8 4.79 4.8Zm-306.08 690.5c2.15 0 3.89-1.75 3.89-3.9s-1.74-3.9-3.89-3.9c-2.15 0-3.9 1.75-3.9 3.9s1.75 3.9 3.9 3.9Zm-1557.662 1288c5.346 0 9.68-4.34 9.68-9.7 0-5.36-4.334-9.7-9.68-9.7s-9.68 4.34-9.68 9.7c0 5.36 4.334 9.7 9.68 9.7Zm722.442-299c3.58 0 6.49-2.91 6.49-6.5s-2.91-6.5-6.49-6.5-6.49 2.91-6.49 6.5 2.91 6.5 6.49 6.5Zm791.11-678.2c5.23 0 9.48-4.25 9.48-9.5s-4.25-9.5-9.48-9.5c-5.24 0-9.48 4.25-9.48 9.5s4.24 9.5 9.48 9.5Zm-747.1 450.3c4.96 0 8.98-4.03 8.98-9s-4.02-9-8.98-9c-4.96 0-8.98 4.03-8.98 9s4.02 9 8.98 9Zm-559.27-1339c1.874 0 3.394-1.522 3.394-3.4s-1.52-3.4-3.394-3.4-3.393 1.522-3.393 3.4 1.519 3.4 3.393 3.4ZM2132.9 699.1c6.12 0 11.08-4.97 11.08-11.1s-4.96-11.1-11.08-11.1-11.07 4.97-11.07 11.1 4.95 11.1 11.07 11.1Zm-211.37 717.3c5.01 0 9.08-4.07 9.08-9.1 0-5.03-4.07-9.1-9.08-9.1-5.02 0-9.08 4.07-9.08 9.1 0 5.03 4.06 9.1 9.08 9.1ZM1328.52 560c7.28 0 13.18-5.91 13.18-13.2 0-7.29-5.9-13.2-13.18-13.2-7.27 0-13.17 5.91-13.17 13.2 0 7.29 5.9 13.2 13.17 13.2Zm487.42 1199.4c4.96 0 8.98-4.03 8.98-9s-4.02-9-8.98-9c-4.96 0-8.98 4.03-8.98 9s4.02 9 8.98 9ZM2384.2 1067c4.9 0 8.88-3.98 8.88-8.9s-3.98-8.9-8.88-8.9c-4.91 0-8.89 3.98-8.89 8.9s3.98 8.9 8.89 8.9Zm-715.46-587.8c3.75 0 6.78-3.045 6.78-6.8 0-3.756-3.03-6.8-6.78-6.8-3.75 0-6.79 3.044-6.79 6.8 0 3.755 3.04 6.8 6.79 6.8Zm-127.35 574.6c4.08 0 7.39-3.31 7.39-7.4s-3.31-7.4-7.39-7.4c-4.07 0-7.38 3.31-7.38 7.4s3.31 7.4 7.38 7.4Z"/>
    <path fill="#5BA0FE" d="M1370.24 1804.7c4.85 0 8.78-3.94 8.78-8.8 0-4.86-3.93-8.8-8.78-8.8s-8.78 3.94-8.78 8.8c0 4.86 3.93 8.8 8.78 8.8Zm-810.767-308.9c3.914 0 7.086-3.18 7.086-7.1 0-3.92-3.172-7.1-7.086-7.1-3.913 0-7.085 3.18-7.085 7.1 0 3.92 3.172 7.1 7.085 7.1Zm192.313-151.9c3.197 0 5.789-2.6 5.789-5.8 0-3.2-2.592-5.8-5.789-5.8-3.197 0-5.788 2.6-5.788 5.8 0 3.2 2.591 5.8 5.788 5.8Zm182.733 395.2c1.708 0 3.093-1.39 3.093-3.1 0-1.71-1.385-3.1-3.093-3.1-1.709 0-3.094 1.39-3.094 3.1 0 1.71 1.385 3.1 3.094 3.1ZM2033.8 1466.3c5.02 0 9.08-4.07 9.08-9.1 0-5.03-4.06-9.1-9.08-9.1-5.01 0-9.08 4.07-9.08 9.1 0 5.03 4.07 9.1 9.08 9.1Zm-22.95 161.6c5.4 0 9.78-4.39 9.78-9.8 0-5.41-4.38-9.8-9.78-9.8-5.4 0-9.78 4.39-9.78 9.8 0 5.41 4.38 9.8 9.78 9.8Zm-760.27-658.2c5.46 0 9.88-4.432 9.88-9.9s-4.42-9.9-9.88-9.9c-5.46 0-9.88 4.432-9.88 9.9s4.42 9.9 9.88 9.9ZM229.838 926c5.292 0 9.581-4.298 9.581-9.6s-4.289-9.6-9.581-9.6c-5.291 0-9.58 4.298-9.58 9.6s4.289 9.6 9.58 9.6ZM1967.24 348c2.64 0 4.79-2.149 4.79-4.8s-2.15-4.8-4.79-4.8c-2.65 0-4.79 2.149-4.79 4.8s2.14 4.8 4.79 4.8ZM339.518 1505.4c5.512 0 9.98-4.48 9.98-10s-4.468-10-9.98-10c-5.512 0-9.98 4.48-9.98 10s4.468 10 9.98 10ZM2695.97 399.6c2.09 0 3.79-1.701 3.79-3.8 0-2.099-1.7-3.8-3.79-3.8-2.1 0-3.8 1.701-3.8 3.8 0 2.099 1.7 3.8 3.8 3.8ZM1788.8 769.5c4.24 0 7.68-3.447 7.68-7.7 0-4.252-3.44-7.7-7.68-7.7-4.25 0-7.69 3.448-7.69 7.7 0 4.253 3.44 7.7 7.69 7.7Zm-1082.521 931c4.629 0 8.383-3.76 8.383-8.4 0-4.64-3.754-8.4-8.383-8.4-4.63 0-8.383 3.76-8.383 8.4 0 4.64 3.753 8.4 8.383 8.4ZM1199.28 65.1001c4.25 0 7.69-3.4475 7.69-7.7001s-3.44-7.6999-7.69-7.6999c-4.24 0-7.68 3.4473-7.68 7.6999 0 4.2526 3.44 7.7001 7.68 7.7001ZM1215.45 918.7c5.51 0 9.98-4.477 9.98-10s-4.47-10-9.98-10c-5.51 0-9.98 4.477-9.98 10s4.47 10 9.98 10Zm847.09 804c5.07 0 9.19-4.12 9.19-9.2 0-5.08-4.12-9.2-9.19-9.2-5.07 0-9.18 4.12-9.18 9.2 0 5.08 4.11 9.2 9.18 9.2Zm-283.42-802.1c5.01 0 9.08-4.074 9.08-9.1s-4.07-9.1-9.08-9.1c-5.02 0-9.09 4.074-9.09 9.1s4.07 9.1 9.09 9.1Zm851.38 203.3c4.68 0 8.48-3.81 8.48-8.5 0-4.69-3.8-8.5-8.48-8.5-4.69 0-8.48 3.81-8.48 8.5 0 4.69 3.79 8.5 8.48 8.5ZM369.956 882.3c4.63 0 8.383-3.761 8.383-8.4s-3.753-8.4-8.383-8.4c-4.629 0-8.383 3.761-8.383 8.4s3.754 8.4 8.383 8.4Zm1014.654 137.9c5.57 0 10.08-4.52 10.08-10.1s-4.51-10.1-10.08-10.1-10.08 4.52-10.08 10.1 4.51 10.1 10.08 10.1Zm-615.06 821.4c2.701 0 4.89-2.19 4.89-4.9 0-2.71-2.189-4.9-4.89-4.9-2.7 0-4.89 2.19-4.89 4.9 0 2.71 2.19 4.9 4.89 4.9Zm911.36-775.9c4.08 0 7.39-3.31 7.39-7.4s-3.31-7.4-7.39-7.4-7.38 3.31-7.38 7.4 3.3 7.4 7.38 7.4ZM1239.5 559.1c5.57 0 10.08-4.522 10.08-10.1 0-5.578-4.51-10.1-10.08-10.1-5.56 0-10.08 4.522-10.08 10.1 0 5.578 4.52 10.1 10.08 10.1Zm285.93 184.1c.6 0 1.09-.492 1.09-1.1 0-.607-.49-1.1-1.09-1.1-.61 0-1.1.493-1.1 1.1 0 .608.49 1.1 1.1 1.1Zm109.88-197c5.62 0 10.17-4.567 10.17-10.2 0-5.633-4.55-10.2-10.17-10.2-5.63 0-10.18 4.567-10.18 10.2 0 5.633 4.55 10.2 10.18 10.2Zm599.49 1101.9c5.34 0 9.68-4.34 9.68-9.7 0-5.36-4.34-9.7-9.68-9.7-5.35 0-9.68 4.34-9.68 9.7 0 5.36 4.33 9.7 9.68 9.7Zm-259.98-348.5c5.13 0 9.28-4.16 9.28-9.3 0-5.14-4.15-9.3-9.28-9.3-5.12 0-9.28 4.16-9.28 9.3 0 5.14 4.16 9.3 9.28 9.3ZM1016.05 1451c5.63 0 10.18-4.57 10.18-10.2 0-5.63-4.55-10.2-10.18-10.2-5.62 0-10.18 4.57-10.18 10.2 0 5.63 4.56 10.2 10.18 10.2ZM2718.62 386.2c.44 0 .8-.358.8-.8 0-.442-.36-.8-.8-.8-.44 0-.8.358-.8.8 0 .442.36.8.8.8ZM2834.29 1811c5.45 0 9.88-4.43 9.88-9.9 0-5.47-4.43-9.9-9.88-9.9-5.46 0-9.88 4.43-9.88 9.9 0 5.47 4.42 9.9 9.88 9.9ZM2134.1 731.5c2.15 0 3.89-1.746 3.89-3.9s-1.74-3.9-3.89-3.9c-2.15 0-3.89 1.746-3.89 3.9s1.74 3.9 3.89 3.9Zm-246.6 504.2c6.28 0 11.37-5.1 11.37-11.4 0-6.3-5.09-11.4-11.37-11.4-6.29 0-11.38 5.1-11.38 11.4 0 6.3 5.09 11.4 11.38 11.4Zm198.6 17.7c5.23 0 9.48-4.25 9.48-9.5s-4.25-9.5-9.48-9.5c-5.24 0-9.48 4.25-9.48 9.5s4.24 9.5 9.48 9.5Zm-886.22 525.2c1.88 0 3.4-1.52 3.4-3.4s-1.52-3.4-3.4-3.4c-1.87 0-3.39 1.52-3.39 3.4s1.52 3.4 3.39 3.4Zm194.31-486.8c5.24 0 9.48-4.25 9.48-9.5s-4.24-9.5-9.48-9.5-9.48 4.25-9.48 9.5 4.24 9.5 9.48 9.5Zm-94.41 354.7c3.58 0 6.49-2.91 6.49-6.5s-2.91-6.5-6.49-6.5-6.49 2.91-6.49 6.5 2.91 6.5 6.49 6.5Zm-436.319-190.2c5.567 0 10.08-4.52 10.08-10.1s-4.513-10.1-10.08-10.1c-5.566 0-10.079 4.52-10.079 10.1s4.513 10.1 10.079 10.1Zm693.199 537.2c2.48 0 4.49-2.01 4.49-4.5s-2.01-4.5-4.49-4.5c-2.48 0-4.49 2.01-4.49 4.5s2.01 4.5 4.49 4.5ZM614.065 195.4c5.732 0 10.379-4.656 10.379-10.4 0-5.744-4.647-10.4-10.379-10.4-5.733 0-10.379 4.656-10.379 10.4 0 5.744 4.646 10.4 10.379 10.4Zm-65.568 530.2c5.897 0 10.678-4.79 10.678-10.7 0-5.909-4.781-10.7-10.678-10.7-5.898 0-10.679 4.791-10.679 10.7 0 5.91 4.781 10.7 10.679 10.7Zm987.413 977.3c5.67 0 10.27-4.61 10.27-10.3s-4.6-10.3-10.27-10.3c-5.68 0-10.28 4.61-10.28 10.3s4.6 10.3 10.28 10.3Zm-203.49-533.2c5.62 0 10.18-4.57 10.18-10.2 0-5.63-4.56-10.2-10.18-10.2-5.63 0-10.18 4.57-10.18 10.2 0 5.63 4.55 10.2 10.18 10.2ZM997.99 991c5.29 0 9.58-4.298 9.58-9.6s-4.29-9.6-9.58-9.6c-5.292 0-9.581 4.298-9.581 9.6s4.289 9.6 9.581 9.6Zm1153.68 530.5c4.63 0 8.38-3.76 8.38-8.4 0-4.64-3.75-8.4-8.38-8.4-4.63 0-8.39 3.76-8.39 8.4 0 4.64 3.76 8.4 8.39 8.4Zm-937.02 350.3c4.63 0 8.39-3.76 8.39-8.4 0-4.64-3.76-8.4-8.39-8.4-4.63 0-8.38 3.76-8.38 8.4 0 4.64 3.75 8.4 8.38 8.4ZM841.306 834.1c1.157 0 2.095-.94 2.095-2.1 0-1.16-.938-2.1-2.095-2.1-1.158 0-2.096.94-2.096 2.1 0 1.16.938 2.1 2.096 2.1Zm1010.364 281.5c3.75 0 6.79-3.04 6.79-6.8s-3.04-6.8-6.79-6.8-6.79 3.04-6.79 6.8 3.04 6.8 6.79 6.8Zm-279.64 113c.94 0 1.7-.76 1.7-1.7s-.76-1.7-1.7-1.7c-.93 0-1.69.76-1.69 1.7s.76 1.7 1.69 1.7ZM1024.04 506c4.57 0 8.28-3.716 8.28-8.3 0-4.584-3.71-8.3-8.28-8.3-4.58 0-8.29 3.716-8.29 8.3 0 4.584 3.71 8.3 8.29 8.3Zm848.79 625.5c5.56 0 10.08-4.52 10.08-10.1s-4.52-10.1-10.08-10.1c-5.57 0-10.08 4.52-10.08 10.1s4.51 10.1 10.08 10.1Z"/>
    <path fill="#5BA0FE" d="M1013.36 1438.7c4.02 0 7.28-3.27 7.28-7.3 0-4.03-3.26-7.3-7.28-7.3-4.02 0-7.29 3.27-7.29 7.3 0 4.03 3.27 7.3 7.29 7.3Zm934.91-1055.1c4.69 0 8.49-3.806 8.49-8.5s-3.8-8.5-8.49-8.5c-4.68 0-8.48 3.806-8.48 8.5s3.8 8.5 8.48 8.5Zm-1091.894-69c2.922 0 5.29-2.373 5.29-5.3 0-2.927-2.368-5.3-5.29-5.3-2.921 0-5.289 2.373-5.289 5.3 0 2.927 2.368 5.3 5.289 5.3Zm1290.494 836.5c1.11 0 2-.9 2-2s-.89-2-2-2c-1.1 0-1.99.9-1.99 2s.89 2 1.99 2ZM411.672 848.5c5.788 0 10.479-4.701 10.479-10.5s-4.691-10.5-10.479-10.5c-5.787 0-10.479 4.701-10.479 10.5s4.692 10.5 10.479 10.5ZM1826.62 196.2c5.84 0 10.58-4.746 10.58-10.6 0-5.854-4.74-10.6-10.58-10.6s-10.58 4.746-10.58 10.6c0 5.854 4.74 10.6 10.58 10.6Zm2.3 912c4.68 0 8.48-3.81 8.48-8.5 0-4.69-3.8-8.5-8.48-8.5-4.69 0-8.49 3.81-8.49 8.5 0 4.69 3.8 8.5 8.49 8.5ZM1075.83 1488c2.26 0 4.09-1.84 4.09-4.1s-1.83-4.1-4.09-4.1-4.09 1.84-4.09 4.1 1.83 4.1 4.09 4.1ZM2247.57 266.6c3.69 0 6.69-3 6.69-6.7s-3-6.7-6.69-6.7c-3.69 0-6.69 3-6.69 6.7s3 6.7 6.69 6.7Zm-553.08-41.2c4.68 0 8.48-3.806 8.48-8.5s-3.8-8.5-8.48-8.5c-4.69 0-8.49 3.806-8.49 8.5s3.8 8.5 8.49 8.5Zm133.43 974.5c5.51 0 9.98-4.48 9.98-10s-4.47-10-9.98-10c-5.51 0-9.98 4.48-9.98 10s4.47 10 9.98 10Zm91.21 11.8c5.24 0 9.48-4.25 9.48-9.5s-4.24-9.5-9.48-9.5c-5.23 0-9.48 4.25-9.48 9.5s4.25 9.5 9.48 9.5Zm-183.73 321.5c.28 0 .5-.22.5-.5s-.22-.5-.5-.5c-.27 0-.49.22-.49.5s.22.5.49.5Zm-385.92 400.5c6.01 0 10.88-4.88 10.88-10.9 0-6.02-4.87-10.9-10.88-10.9-6.01 0-10.88 4.88-10.88 10.9 0 6.02 4.87 10.9 10.88 10.9Zm597.7-1823.2c.11 0 .2-.09.2-.2 0-.11-.09-.2-.2-.2-.11 0-.2.09-.2.2 0 .11.09.2.2.2ZM810.269 1267.4c4.244 0 7.684-3.45 7.684-7.7s-3.44-7.7-7.684-7.7-7.685 3.45-7.685 7.7 3.441 7.7 7.685 7.7ZM1531.91 232.1c5.85 0 10.58-4.746 10.58-10.6 0-5.854-4.73-10.6-10.58-10.6-5.84 0-10.58 4.746-10.58 10.6 0 5.854 4.74 10.6 10.58 10.6Zm1134.02 1064c6.01 0 10.88-4.88 10.88-10.9 0-6.02-4.87-10.9-10.88-10.9-6.01 0-10.88 4.88-10.88 10.9 0 6.02 4.87 10.9 10.88 10.9Zm-824.64-642.3c5.51 0 9.98-4.477 9.98-10s-4.47-10-9.98-10c-5.51 0-9.98 4.477-9.98 10s4.47 10 9.98 10Zm-818.55 582.1c3.53 0 6.39-2.87 6.39-6.4 0-3.53-2.86-6.4-6.39-6.4s-6.39 2.87-6.39 6.4c0 3.53 2.86 6.4 6.39 6.4ZM450.393 749.3c5.678 0 10.28-4.611 10.28-10.3 0-5.688-4.602-10.3-10.28-10.3-5.677 0-10.279 4.612-10.279 10.3 0 5.689 4.602 10.3 10.279 10.3Zm1903.167 848.4c.11 0 .2-.09.2-.2 0-.11-.09-.2-.2-.2-.11 0-.2.09-.2.2 0 .11.09.2.2.2ZM519.455 274.9c4.851 0 8.782-3.94 8.782-8.8 0-4.86-3.931-8.8-8.782-8.8-4.85 0-8.782 3.94-8.782 8.8 0 4.86 3.932 8.8 8.782 8.8Zm1536.905 762c6.61 0 11.97-5.37 11.97-12s-5.36-12-11.97-12c-6.62 0-11.98 5.37-11.98 12s5.36 12 11.98 12Zm-1745.784-536c5.953 0 10.778-4.835 10.778-10.8 0-5.965-4.825-10.8-10.778-10.8s-10.778 4.835-10.778 10.8c0 5.965 4.825 10.8 10.778 10.8Zm2014.544 857.3c6 0 10.87-4.88 10.87-10.9 0-6.02-4.87-10.9-10.87-10.9-6.01 0-10.88 4.88-10.88 10.9 0 6.02 4.87 10.9 10.88 10.9Zm-682.43-828.1c1.21 0 2.2-.985 2.2-2.2 0-1.215-.99-2.2-2.2-2.2-1.21 0-2.19.985-2.19 2.2 0 1.215.98 2.2 2.19 2.2Zm1272.73 632.4c5.96 0 10.78-4.84 10.78-10.8 0-5.96-4.82-10.8-10.78-10.8-5.95 0-10.77 4.84-10.77 10.8 0 5.96 4.82 10.8 10.77 10.8ZM1667.84 59.3c6.61 0 11.98-5.3725 11.98-12 0-6.6274-5.37-12-11.98-12s-11.98 5.3726-11.98 12c0 6.6275 5.37 12 11.98 12ZM447.3 1285.2c5.457 0 9.88-4.43 9.88-9.9 0-5.47-4.423-9.9-9.88-9.9-5.457 0-9.88 4.43-9.88 9.9 0 5.47 4.423 9.9 9.88 9.9Zm1461.75-378.5c5.96 0 10.78-4.835 10.78-10.8 0-5.965-4.82-10.8-10.78-10.8-5.95 0-10.77 4.835-10.77 10.8 0 5.965 4.82 10.8 10.77 10.8Zm439.12 652.2c5.4 0 9.78-4.39 9.78-9.8 0-5.41-4.38-9.8-9.78-9.8-5.4 0-9.78 4.39-9.78 9.8 0 5.41 4.38 9.8 9.78 9.8Zm-968.25-529.7c5.95 0 10.78-4.84 10.78-10.8 0-5.96-4.83-10.8-10.78-10.8-5.95 0-10.78 4.84-10.78 10.8 0 5.96 4.83 10.8 10.78 10.8Zm13.07-118.7c6.18 0 11.18-5.014 11.18-11.2 0-6.185-5-11.2-11.18-11.2-6.17 0-11.17 5.015-11.17 11.2 0 6.186 5 11.2 11.17 11.2Zm368.66 1072.2c3.03 0 5.49-2.46 5.49-5.5s-2.46-5.5-5.49-5.5c-3.03 0-5.49 2.46-5.49 5.5s2.46 5.5 5.49 5.5Zm496.1-1733.4c6.78 0 12.28-5.507 12.28-12.3 0-6.793-5.5-12.3-12.28-12.3-6.78 0-12.27 5.507-12.27 12.3 0 6.793 5.49 12.3 12.27 12.3ZM576.041 564.7c4.85 0 8.782-3.94 8.782-8.8 0-4.86-3.932-8.8-8.782-8.8s-8.782 3.94-8.782 8.8c0 4.86 3.932 8.8 8.782 8.8ZM2043.48 381.2c5.68 0 10.28-4.612 10.28-10.3 0-5.689-4.6-10.3-10.28-10.3-5.67 0-10.28 4.611-10.28 10.3 0 5.688 4.61 10.3 10.28 10.3Zm-70.45 545.6c4.79 0 8.68-3.895 8.68-8.7s-3.89-8.7-8.68-8.7c-4.8 0-8.69 3.895-8.69 8.7s3.89 8.7 8.69 8.7Zm-990.709 26.7c2.26 0 4.092-1.836 4.092-4.1 0-2.264-1.832-4.1-4.092-4.1s-4.092 1.836-4.092 4.1c0 2.264 1.832 4.1 4.092 4.1Zm-56.985-11.1c2.977 0 5.39-2.418 5.39-5.4s-2.413-5.4-5.39-5.4c-2.976 0-5.389 2.418-5.389 5.4s2.413 5.4 5.389 5.4Zm-552.685 406.5c3.141 0 5.688-2.55 5.688-5.7 0-3.15-2.547-5.7-5.688-5.7-3.142 0-5.689 2.55-5.689 5.7 0 3.15 2.547 5.7 5.689 5.7ZM2322.82 389.1c6.45 0 11.68-5.238 11.68-11.7 0-6.462-5.23-11.7-11.68-11.7-6.45 0-11.68 5.238-11.68 11.7 0 6.462 5.23 11.7 11.68 11.7ZM858.771 422.5c1.819 0 3.293-1.477 3.293-3.3 0-1.823-1.474-3.3-3.293-3.3-1.819 0-3.293 1.477-3.293 3.3 0 1.823 1.474 3.3 3.293 3.3Zm667.659 571.7c1.21 0 2.19-.985 2.19-2.2 0-1.215-.98-2.2-2.19-2.2-1.22 0-2.2.985-2.2 2.2 0 1.215.98 2.2 2.2 2.2Zm-1088.111-374c6.007 0 10.878-4.88 10.878-10.9 0-6.02-4.871-10.9-10.878-10.9-6.008 0-10.879 4.88-10.879 10.9 0 6.02 4.871 10.9 10.879 10.9Zm137.223-482.9c4.299 0 7.784-3.492 7.784-7.8s-3.485-7.8-7.784-7.8c-4.299 0-7.784 3.492-7.784 7.8s3.485 7.8 7.784 7.8Zm929.728 6.2c7.27 0 13.17-5.91 13.17-13.2 0-7.29-5.9-13.2-13.17-13.2-7.28 0-13.18 5.91-13.18 13.2 0 7.29 5.9 13.2 13.18 13.2Zm1195.99 368.7c1.15 0 2.09-.94 2.09-2.1 0-1.16-.94-2.1-2.09-2.1-1.16 0-2.1.94-2.1 2.1 0 1.16.94 2.1 2.1 2.1Zm-894.8 738.8c3.03 0 5.49-2.46 5.49-5.5s-2.46-5.5-5.49-5.5c-3.03 0-5.49 2.46-5.49 5.5s2.46 5.5 5.49 5.5Zm-690.91 178.4c1.05 0 1.9-.85 1.9-1.9 0-1.05-.85-1.9-1.9-1.9-1.04 0-1.89.85-1.89 1.9 0 1.05.85 1.9 1.89 1.9Zm177.35-116.1c4.51 0 8.18-3.67 8.18-8.2 0-4.53-3.67-8.2-8.18-8.2-4.52 0-8.19 3.67-8.19 8.2 0 4.53 3.67 8.2 8.19 8.2Zm631.12-1154.2c2.48 0 4.49-2.015 4.49-4.5s-2.01-4.5-4.49-4.5c-2.48 0-4.49 2.015-4.49 4.5s2.01 4.5 4.49 4.5Zm292.61 279.5c1.27 0 2.3-1.03 2.3-2.3 0-1.27-1.03-2.3-2.3-2.3-1.26 0-2.29 1.03-2.29 2.3 0 1.27 1.03 2.3 2.29 2.3Zm-1045.19 809.2c5.68 0 10.28-4.61 10.28-10.3s-4.6-10.3-10.28-10.3-10.28 4.61-10.28 10.3 4.6 10.3 10.28 10.3Zm382.03 29.1c6.45 0 11.68-5.24 11.68-11.7 0-6.46-5.23-11.7-11.68-11.7-6.45 0-11.68 5.24-11.68 11.7 0 6.46 5.23 11.7 11.68 11.7Zm469.95-42.8c5.35 0 9.68-4.34 9.68-9.7 0-5.36-4.33-9.7-9.68-9.7-5.34 0-9.68 4.34-9.68 9.7 0 5.36 4.34 9.7 9.68 9.7Zm919.95-174.6c7.11 0 12.87-5.78 12.87-12.9s-5.76-12.9-12.87-12.9c-7.11 0-12.88 5.78-12.88 12.9s5.77 12.9 12.88 12.9ZM710.071 866c.165 0 .299-.134.299-.3 0-.166-.134-.3-.299-.3-.165 0-.3.134-.3.3 0 .166.135.3.3.3Z"/>
    <path fill="#5BA0FE" d="M1029.23 1229.9c7.33 0 13.27-5.95 13.27-13.3 0-7.35-5.94-13.3-13.27-13.3-7.33 0-13.28 5.95-13.28 13.3 0 7.35 5.95 13.3 13.28 13.3Zm1324.63-217.3c6.39 0 11.57-5.19 11.57-11.6 0-6.406-5.18-11.6-11.57-11.6-6.4 0-11.58 5.194-11.58 11.6 0 6.41 5.18 11.6 11.58 11.6ZM1650.67 1634c6.23 0 11.28-5.06 11.28-11.3 0-6.24-5.05-11.3-11.28-11.3-6.22 0-11.27 5.06-11.27 11.3 0 6.24 5.05 11.3 11.27 11.3Zm785.62-855.2c6.12 0 11.08-4.97 11.08-11.1s-4.96-11.1-11.08-11.1-11.08 4.97-11.08 11.1 4.96 11.1 11.08 11.1ZM944.199 1254.9c7.275 0 13.173-5.91 13.173-13.2 0-7.29-5.898-13.2-13.173-13.2-7.276 0-13.174 5.91-13.174 13.2 0 7.29 5.898 13.2 13.174 13.2ZM1960.35 72.7c1.27 0 2.3-1.0298 2.3-2.3 0-1.2703-1.03-2.2999-2.3-2.2999-1.27 0-2.3 1.0296-2.3 2.2999 0 1.2702 1.03 2.3 2.3 2.3Zm269.86 220.4c5.23 0 9.48-4.253 9.48-9.5s-4.25-9.5-9.48-9.5c-5.24 0-9.48 4.253-9.48 9.5s4.24 9.5 9.48 9.5ZM1488.3 837.6c6.78 0 12.28-5.507 12.28-12.3 0-6.793-5.5-12.3-12.28-12.3-6.78 0-12.27 5.507-12.27 12.3 0 6.793 5.49 12.3 12.27 12.3Zm-77.14 585.1c6.78 0 12.27-5.51 12.27-12.3 0-6.79-5.49-12.3-12.27-12.3-6.78 0-12.28 5.51-12.28 12.3 0 6.79 5.5 12.3 12.28 12.3Zm587.61-760.2c5.96 0 10.78-4.835 10.78-10.8 0-5.965-4.82-10.8-10.78-10.8-5.95 0-10.78 4.835-10.78 10.8 0 5.965 4.83 10.8 10.78 10.8Zm-921.54 467.6c6.56 0 11.88-5.33 11.88-11.9s-5.32-11.9-11.88-11.9c-6.56 0-11.88 5.33-11.88 11.9s5.32 11.9 11.88 11.9Zm1329.02 890.8c5.62 0 10.18-4.57 10.18-10.2 0-5.63-4.56-10.2-10.18-10.2s-10.18 4.57-10.18 10.2c0 5.63 4.56 10.2 10.18 10.2Zm-1291.49-867.2c3.25 0 5.88-2.64 5.88-5.9 0-3.26-2.63-5.9-5.88-5.9-3.26 0-5.89 2.64-5.89 5.9 0 3.26 2.63 5.9 5.89 5.9Zm388.01-174.3c12.9 0 23.36-10.476 23.36-23.4 0-12.923-10.46-23.4-23.36-23.4-12.89 0-23.35 10.477-23.35 23.4 0 12.924 10.46 23.4 23.35 23.4Zm456.18 1015.9c6.34 0 11.48-5.15 11.48-11.5s-5.14-11.5-11.48-11.5c-6.34 0-11.47 5.15-11.47 11.5s5.13 11.5 11.47 11.5ZM1590.89 950c5.52 0 9.98-4.477 9.98-10s-4.46-10-9.98-10c-5.51 0-9.97 4.477-9.97 10s4.46 10 9.97 10Zm26.75 614.8c1.38 0 2.5-1.12 2.5-2.5s-1.12-2.5-2.5-2.5-2.49 1.12-2.49 2.5 1.11 2.5 2.49 2.5Zm-446.3-1137.4c10.31 0 18.66-8.372 18.66-18.7s-8.35-18.7-18.66-18.7-18.66 8.372-18.66 18.7 8.35 18.7 18.66 18.7ZM1540.1 83.7001c7 0 12.67-5.6861 12.67-12.7001 0-7.014-5.67-12.7-12.67-12.7s-12.68 5.686-12.68 12.7c0 7.014 5.68 12.7001 12.68 12.7001ZM1488.3 1450c5.79 0 10.48-4.7 10.48-10.5s-4.69-10.5-10.48-10.5-10.48 4.7-10.48 10.5 4.69 10.5 10.48 10.5Z"/>
    <path fill="#5BA0FE" d="M1664.35 1628.9c6.94 0 12.57-5.64 12.57-12.6s-5.63-12.6-12.57-12.6c-6.95 0-12.58 5.64-12.58 12.6s5.63 12.6 12.58 12.6ZM1453.97 255.4c1.43 0 2.6-1.164 2.6-2.6 0-1.436-1.17-2.6-2.6-2.6-1.43 0-2.59 1.164-2.59 2.6 0 1.436 1.16 2.6 2.59 2.6Zm1543.09 1686.9c1.82 0 3.29-1.48 3.29-3.3 0-1.82-1.47-3.3-3.29-3.3s-3.29 1.48-3.29 3.3c0 1.82 1.47 3.3 3.29 3.3ZM667.257 361.4c6.834 0 12.375-5.552 12.375-12.4 0-6.848-5.541-12.4-12.375-12.4-6.835 0-12.375 5.552-12.375 12.4 0 6.848 5.54 12.4 12.375 12.4Zm40.917 395.9c.055 0 .1-.045.1-.1 0-.055-.045-.1-.1-.1-.055 0-.1.045-.1.1 0 .055.045.1.1.1Zm1194.396 523c6.61 0 11.97-5.37 11.97-12s-5.36-12-11.97-12c-6.62 0-11.98 5.37-11.98 12s5.36 12 11.98 12Zm17.56-246.7c4.3 0 7.79-3.49 7.79-7.8s-3.49-7.8-7.79-7.8-7.78 3.49-7.78 7.8 3.48 7.8 7.78 7.8ZM826.337 315.8c6.724 0 12.175-5.462 12.175-12.2 0-6.738-5.451-12.2-12.175-12.2-6.725 0-12.176 5.462-12.176 12.2 0 6.738 5.451 12.2 12.176 12.2Zm1321.033 55c7.06 0 12.78-5.731 12.78-12.8 0-7.069-5.72-12.8-12.78-12.8-7.05 0-12.77 5.731-12.77 12.8 0 7.069 5.72 12.8 12.77 12.8Zm-780.22 785.8c3.74 0 6.78-3.04 6.78-6.8s-3.04-6.8-6.78-6.8c-3.75 0-6.79 3.04-6.79 6.8s3.04 6.8 6.79 6.8Zm-558.578 491.8c6.008 0 10.879-4.88 10.879-10.9 0-6.02-4.871-10.9-10.879-10.9-6.007 0-10.878 4.88-10.878 10.9 0 6.02 4.871 10.9 10.878 10.9ZM1187.81 602.8c1.43 0 2.59-1.164 2.59-2.6 0-1.436-1.16-2.6-2.59-2.6-1.44 0-2.6 1.164-2.6 2.6 0 1.436 1.16 2.6 2.6 2.6Zm1101.58 435.6c2.48 0 4.49-2.01 4.49-4.5s-2.01-4.5-4.49-4.5c-2.48 0-4.49 2.01-4.49 4.5s2.01 4.5 4.49 4.5Zm-248.9-410.5c7.66 0 13.87-6.223 13.87-13.9 0-7.677-6.21-13.9-13.87-13.9-7.66 0-13.87 6.223-13.87 13.9 0 7.677 6.21 13.9 13.87 13.9Zm-434.43 569.7c.83 0 1.5-.67 1.5-1.5s-.67-1.5-1.5-1.5c-.82 0-1.49.67-1.49 1.5s.67 1.5 1.49 1.5ZM1072.04 1529c7.5 0 13.57-6.09 13.57-13.6s-6.07-13.6-13.57-13.6c-7.49 0-13.57 6.09-13.57 13.6s6.08 13.6 13.57 13.6Zm1260.06 682c6.28 0 11.38-5.1 11.38-11.4 0-6.3-5.1-11.4-11.38-11.4-6.28 0-11.38 5.1-11.38 11.4 0 6.3 5.1 11.4 11.38 11.4Zm486.12-1104.4c7.39 0 13.37-6 13.37-13.4s-5.98-13.4-13.37-13.4c-7.38 0-13.37 6-13.37 13.4s5.99 13.4 13.37 13.4Zm-1143.89 158.2c4.24 0 7.68-3.45 7.68-7.7s-3.44-7.7-7.68-7.7c-4.25 0-7.69 3.45-7.69 7.7s3.44 7.7 7.69 7.7ZM285.027 789.1c8.213 0 14.87-6.671 14.87-14.9s-6.657-14.9-14.87-14.9c-8.212 0-14.87 6.671-14.87 14.9s6.658 14.9 14.87 14.9ZM2454.25 478.2c3.64 0 6.59-2.955 6.59-6.6 0-3.645-2.95-6.6-6.59-6.6-3.63 0-6.58 2.955-6.58 6.6 0 3.645 2.95 6.6 6.58 6.6ZM1938.09 352c4.3 0 7.79-3.492 7.79-7.8s-3.49-7.8-7.79-7.8c-4.29 0-7.78 3.492-7.78 7.8s3.49 7.8 7.78 7.8Zm205.39 611.2c7.5 0 13.57-6.089 13.57-13.6 0-7.511-6.07-13.6-13.57-13.6s-13.57 6.089-13.57 13.6c0 7.511 6.07 13.6 13.57 13.6Z"/>
    <path stroke="#5BA0FE" stroke-linecap="round" stroke-width=".7804" d="m1067.45 1231.8 148.3 120.5"/>
    <path stroke="#5BA0FE" stroke-linecap="round" stroke-width=".484" d="m1880.61 1586.6-222.05 134.2"/>
    <path stroke="#5BA0FE" stroke-linecap="round" stroke-width=".9268" d="m1067.45 1231.8 1 155.6"/>
    <path stroke="#5BA0FE" stroke-linecap="round" stroke-width=".7941" d="m1215.75 1352.3-147.3 35.1"/>
    <path stroke="#5BA0FE" stroke-linecap="round" stroke-width=".5023" d="m824.24 1405.5-16.467-203.3"/>
    <path stroke="#5BA0FE" stroke-linecap="round" stroke-width=".9908" d="m851.984 1121.1-44.211 81.1"/>
    <path stroke="#5BA0FE" stroke-linecap="round" stroke-width=".3696" d="m824.24 1405.5 156.884-106.9"/>
    <path stroke="#5BA0FE" stroke-linecap="round" stroke-width=".8399" d="m981.124 1298.6 87.326 88.8"/>
    <path stroke="#5BA0FE" stroke-linecap="round" stroke-width=".4703" d="m1068.45 1387.4-65.47 156.3"/>
    <path stroke="#5BA0FE" stroke-linecap="round" stroke-width=".4245" d="M706.778 856.8 594.005 729.2"/>
    <path stroke="#5BA0FE" stroke-linecap="round" stroke-width=".7255" d="m1076.63 1204.6-95.506 94"/>
    <path stroke="#5BA0FE" stroke-linecap="round" stroke-width=".4886" d="m1047.19 539.2 29.04 201.1"/>
    <path stroke="#5BA0FE" stroke-linecap="round" stroke-width=".7712" d="m1253.38 1244.6-176.75-40"/>
    <path stroke="#5BA0FE" stroke-linecap="round" stroke-width=".7941" d="m1076.63 1204.6 71.76-149.4"/>
    <path stroke="#5BA0FE" stroke-linecap="round" stroke-width=".6065" d="m1407.07 1792.6-235.53 16.9"/>
    <path stroke="#5BA0FE" stroke-linecap="round" stroke-width=".8582" d="m594.005 729.2 152.493 101.7"/>
    <path stroke="#5BA0FE" stroke-linecap="round" stroke-width=".8536" d="m1253.38 1244.6-104.99-189.4"/>
    <path stroke="#5BA0FE" stroke-linecap="round" stroke-width="1.3569" d="m1076.23 740.3-36.92-55.4"/>
    <path stroke="#5BA0FE" stroke-linecap="round" stroke-width=".7529" d="m1381.62 2025.3 68.36-12.5"/>
    <path stroke="#5BA0FE" stroke-linecap="round" stroke-width=".8683" d="m1047.19 539.2-7.88 145.7"/>
    <path stroke="#5BA0FE" stroke-linecap="round" stroke-width=".5928" d="m1381.62 2025.3 25.45-232.7"/>
    <path stroke="#5BA0FE" stroke-linecap="round" stroke-width=".053922" d="m1942.89 1953.7 66.46 21.9"/>
    <path stroke="#5BA0FE" stroke-linecap="round" stroke-width=".269" d="m416.562 964.9-61.476 6.1"/>
    <path stroke="#5BA0FE" stroke-linecap="round" stroke-width=".9405" d="m953.579 1830.2 60.181-65.1"/>
    <path stroke="#5BA0FE" stroke-linecap="round" stroke-width=".4428" d="m953.579 1830.2 33.832-108.3"/>
    <path stroke="#5BA0FE" stroke-linecap="round" stroke-width=".4977" d="m1013.76 1765.1-26.349-43.2"/>
    <path stroke="#5BA0FE" stroke-linecap="round" stroke-width=".8948" d="m1142.6 1590.2-128.84 174.9"/>
    <path stroke="#5BA0FE" stroke-linecap="round" stroke-width=".3971" d="m1142.6 1590.2-155.189 131.7"/>
    <path stroke="#5BA0FE" stroke-linecap="round" stroke-width=".4428" d="m852.384 262.7-101.396-52.2"/>
    <path stroke="#5BA0FE" stroke-linecap="round" stroke-width=".01732" d="m1815.94 1448.6-94.11-69.7"/>
    <path stroke="#5BA0FE" stroke-linecap="round" stroke-width=".4337" d="m645.201 637.4 101.296 193.5"/>
    <path stroke="#5BA0FE" stroke-linecap="round" stroke-width=".026471" d="m2036.4 686.4-18.17 105.4"/>
    <path stroke="#5BA0FE" stroke-linecap="round" stroke-width=".452" d="m1757.16 1498.6-35.33-119.7"/>
    <path stroke="#5BA0FE" stroke-linecap="round" stroke-width=".4428" d="M852.384 262.7 829.93 391.8"/>
    <path stroke="#5BA0FE" stroke-linecap="round" stroke-width=".4565" d="m645.202 637.4-36.227-5.4"/>
    <path stroke="#5BA0FE" stroke-linecap="round" stroke-width=".6797" d="m1717.94 3-150.9 128.1"/>
    <path stroke="#5BA0FE" stroke-linecap="round" stroke-width=".3696" d="m1700.37 990-60.47 86"/>
    <path stroke="#5BA0FE" stroke-linecap="round" stroke-width=".3513" d="M972.043 1482.4 844.6 1408.8"/>
    <path stroke="#5BA0FE" stroke-linecap="round" stroke-width=".4977" d="m2029.01 608.2 7.39 78.2"/>
    <path stroke="#5BA0FE" stroke-linecap="round" stroke-width=".003595" d="m1762.25 822.5 107.58-26.6"/>
    <path stroke="#5BA0FE" stroke-linecap="round" stroke-width=".5928" d="m921.744 1099.1 58.283 150.1"/>
    <path stroke="#5BA0FE" stroke-linecap="round" stroke-width=".3412" d="m1958.45 843.1 59.78-51.3"/>
    <path stroke="#5BA0FE" stroke-linecap="round" stroke-width=".3513" d="m972.042 1482.4-72.354 5.8"/>
    <path stroke="#5BA0FE" stroke-linecap="round" stroke-width=".9964" d="m1972.03 533.8 64.37 152.6"/>
    <path stroke="#5BA0FE" stroke-linecap="round" stroke-width=".5023" d="m1893.58 1077.9 1.6 191.7"/>
    <path stroke="#5BA0FE" stroke-linecap="round" stroke-width=".452" d="m1776.62 1499.5-19.46-.9"/>
    <path stroke="#5BA0FE" stroke-linecap="round" stroke-width=".4931" d="m921.744 1099.1 182.236 13.1"/>
    <path stroke="#5BA0FE" stroke-linecap="round" stroke-width=".4154" d="m339.717 462.7-18.563 87"/>
    <path stroke="#5BA0FE" stroke-linecap="round" stroke-width=".6386" d="m1418.94 977.1-27.34 98.8"/>
    <path stroke="#5BA0FE" stroke-linecap="round" stroke-width=".3376" d="m528.936 1811 92.014-110.5"/>
    <path stroke="#5BA0FE" stroke-linecap="round" stroke-width=".9461" d="m353.988 730.7 46.407-19.9"/>
    <path stroke="#5BA0FE" stroke-linecap="round" stroke-width=".8902" d="m1893.58 1077.9 79.84 75.3"/>
    <path stroke="#5BA0FE" stroke-linecap="round" stroke-width=".4977" d="m1561.75 1323.7 160.08 55.2"/>
    <path stroke="#5BA0FE" stroke-linecap="round" stroke-width=".8673" d="m1660.85 1218-20.95-142"/>
    <path stroke="#5BA0FE" stroke-linecap="round" stroke-width=".6203" d="m1639.9 1076 88.22 76.7"/>
    <path stroke="#5BA0FE" stroke-linecap="round" stroke-width=".9039" d="m339.717 462.7-32.135 40.5"/>
    <path stroke="#5BA0FE" stroke-linecap="round" stroke-width="1.4941" d="m1972.03 533.8 56.98 74.4"/>
    <path stroke="#5BA0FE" stroke-linecap="round" stroke-width=".7484" d="m1660.85 1218 67.27-65.3"/>
    <path stroke="#5BA0FE" stroke-linecap="round" stroke-width=".7529" d="m928.231 1970.7 99.499 144.5"/>
    <path stroke="#5BA0FE" stroke-linecap="round" stroke-width=".3879" d="m1973.42 1153.2-78.24 116.4"/>
    <path stroke="#5BA0FE" stroke-linecap="round" stroke-width=".3183" d="m1958.45 843.1-88.62-47.2"/>
    <path stroke="#5BA0FE" stroke-linecap="round" stroke-width=".6487" d="m730.229 1602.5 57.584-1.9"/>
    <path stroke="#5BA0FE" stroke-linecap="round" stroke-width=".698" d="m1570.64 308.5-127.55 138.2"/>
    <path stroke="#5BA0FE" stroke-linecap="round" stroke-width=".7484" d="m984.417 1320.1-12.375 162.3"/>
    <path stroke="#5BA0FE" stroke-linecap="round" stroke-width=".099673" d="m285.626 1273.1 198.699 96"/>
    <path stroke="#5BA0FE" stroke-linecap="round" stroke-width=".4967" d="m984.418 1320.1-4.392-70.9"/>
    <path stroke="#5BA0FE" stroke-linecap="round" stroke-width=".4337" d="m1349.88 1906.9 17.77-121.8"/>
    <path stroke="#5BA0FE" stroke-linecap="round" stroke-width="1.0274" d="m1027.73 2115.2 197.3 58.6"/>
    <path stroke="#5BA0FE" stroke-linecap="round" stroke-width=".3101" d="m2448.87 1056.4 153.29 136.3"/>
    <path stroke="#5BA0FE" stroke-linecap="round" stroke-width=".9461" d="m353.988 730.7-32.834-181"/>
    <path stroke="#5BA0FE" stroke-linecap="round" stroke-width=".3696" d="m1704.67 990.8-64.77 85.2"/>
    <path stroke="#5BA0FE" stroke-linecap="round" stroke-width=".2415" d="m1443.09 446.7 166.57 45.2"/>
    <path stroke="#5BA0FE" stroke-linecap="round" stroke-width=".4886" d="m307.582 503.2 13.573 46.5"/>
    <path stroke="#5BA0FE" stroke-linecap="round" stroke-width=".5023" d="m928.231 1970.7 193.509-22.8"/>
    <path stroke="#5BA0FE" stroke-linecap="round" stroke-width=".4886" d="m162.874 307.9 144.708 195.3"/>
    <path stroke="#5BA0FE" stroke-linecap="round" stroke-width=".4016" d="m1745.18 1792-126.14 141"/>
    <path stroke="#5BA0FE" stroke-linecap="round" stroke-width=".9908" d="m1993.48 1389.5-49.7 5.1"/>
    <path stroke="#5BA0FE" stroke-linecap="round" stroke-width=".1134" d="m1784.9 1588.6-8.28-89.1"/>
    <path stroke="#5BA0FE" stroke-linecap="round" stroke-width="1.151" d="m875.237 1772.4-87.424-171.8"/>
    <path stroke="#5BA0FE" stroke-linecap="round" stroke-width=".9542" d="m1367.65 1785.1-117.07-32.6"/>
    <path stroke="#5BA0FE" stroke-linecap="round" stroke-width=".5206" d="m1146.79 1798.6 103.79-46.1"/>
    <path stroke="#5BA0FE" stroke-linecap="round" stroke-width=".5846" d="m1250.08 690.4 66.87 84.2"/>
    <path stroke="#5BA0FE" stroke-linecap="round" stroke-width=".4062" d="m2272.92 1533.1-211.47-124.8"/>
    <path stroke="#5BA0FE" stroke-linecap="round" stroke-width=".5023" d="m1111.36 1696.2 35.43 102.4"/>
    <path stroke="#5BA0FE" stroke-linecap="round" stroke-width=".8948" d="m1993.48 1389.5 67.97 18.8"/>
    <path stroke="#5BA0FE" stroke-linecap="round" stroke-width=".4016" d="M1753.67 2069.8 1619.04 1933m-98.5 93.8 98.5-93.8"/>
    <path stroke="#5BA0FE" stroke-linecap="round" stroke-width=".7621" d="m1257.87 561.7 6.18-102"/>
    <path stroke="#5BA0FE" stroke-linecap="round" stroke-width="1.0274" d="m1371.34 2107.4-146.31 66.4"/>
    <path stroke="#5BA0FE" stroke-linecap="round" stroke-width=".6487" d="m859.868 1498.5-72.055 102.1"/>
    <path stroke="#5BA0FE" stroke-linecap="round" stroke-width=".4337" d="m285.626 1273.1 69.759-203.2"/>
    <path stroke="#5BA0FE" stroke-linecap="round" stroke-width=".4016" d="M697.297 882.6 624.843 826"/>
    <path stroke="#5BA0FE" stroke-linecap="round" stroke-width=".9085" d="m2061.45 1408.3-117.67-13.7"/>
    <path stroke="#5BA0FE" stroke-linecap="round" stroke-width=".5389" d="m162.874 307.9 92.813-6.4"/>
    <path stroke="#5BA0FE" stroke-linecap="round" stroke-width=".3559" d="m1652.87 389.3-43.21 102.6m43.21-102.6 11.88 112.6"/>
    <path stroke="#5BA0FE" stroke-linecap="round" stroke-width=".003595" d="M718.853 649.9 624.843 826"/>
    <path stroke="#5BA0FE" stroke-linecap="round" stroke-width=".4016" d="m697.296 882.6 20.658 173.2"/>
    <path stroke="#5BA0FE" stroke-linecap="round" stroke-width="1.0229" d="m1111.36 1696.2 139.22 56.3"/>
    <path stroke="#5BA0FE" stroke-linecap="round" stroke-width=".2507" d="m1371.34 2107.4 8.38-79"/>
    <path stroke="#5BA0FE" stroke-linecap="round" stroke-width="1.0274" d="m255.687 301.5 51.895 201.7"/>
    <path stroke="#5BA0FE" stroke-linecap="round" stroke-width=".9588" d="m1521.04 1076.9-80.54 54.9"/>
    <path stroke="#5BA0FE" stroke-linecap="round" stroke-width=".1225" d="m557.877 321.6.898-134.4"/>
    <path stroke="#5BA0FE" stroke-linecap="round" stroke-width=".5023" d="m1753.67 2069.8 74.55 140.4"/>
    <path stroke="#5BA0FE" stroke-linecap="round" stroke-width=".9542" d="m1521.04 1076.9-28.85 25.6"/>
    <path stroke="#5BA0FE" stroke-linecap="round" stroke-width=".9863" d="m1386.11 928.2-69.16-153.6"/>
    <path stroke="#5BA0FE" stroke-linecap="round" stroke-width=".8536" d="m490.913 2069.7-51.696-336.4"/>
    <path stroke="#5BA0FE" stroke-linecap="round" stroke-width=".7941" d="m2141.39 1774.1-43.42 19.4"/>
    <path stroke="#5BA0FE" stroke-linecap="round" stroke-width=".4565" d="m439.217 1733.3 106.385-81.9"/>
    <path stroke="#5BA0FE" stroke-linecap="round" stroke-width="1.0046" d="m1277.73 1540.6-166.37 155.6"/>
    <path stroke="#5BA0FE" stroke-linecap="round" stroke-width=".4245" d="m707.177 1088.2 108.581-49.4"/>
    <path stroke="#5BA0FE" stroke-linecap="round" stroke-width=".8856" d="m637.218 1974-146.305 95.7"/>
    <path stroke="#5BA0FE" stroke-linecap="round" stroke-width=".5837" d="m1490.8 989.9-104.69-61.7"/>
    <path stroke="#5BA0FE" stroke-linecap="round" d="m1440.5 1131.8 51.69-29.3"/>
    <path stroke="#5BA0FE" stroke-linecap="round" stroke-width=".5846" d="m1329.32 743.9-12.37 30.7"/>
    <path stroke="#5BA0FE" stroke-linecap="round" stroke-width=".785" d="m1257.87 561.7 64.87-104.4"/>
    <path stroke="#5BA0FE" stroke-linecap="round" stroke-width=".5059" d="m718.853 649.9 20.159-131.2"/>
    <path stroke="#5BA0FE" stroke-linecap="round" stroke-width=".6111" d="m1784.9 1588.6-2.19-87.7"/>
    <path stroke="#5BA0FE" stroke-linecap="round" stroke-width=".7575" d="M103.294 748.1 1 1040.7"/>
    <path stroke="#5BA0FE" stroke-linecap="round" stroke-width=".3229" d="m1839.79 1719.1-54.89-130.5"/>
    <path stroke="#5BA0FE" stroke-linecap="round" stroke-width=".5023" d="m1948.97 2240.9-120.75-30.7"/>
    <path stroke="#5BA0FE" stroke-linecap="round" stroke-width=".484" d="m687.416 1323.2 54.091 134.1"/>
    <path stroke="#5BA0FE" stroke-linecap="round" stroke-width=".4245" d="m717.955 1055.8 97.803-17"/>
    <path stroke="#5BA0FE" stroke-linecap="round" stroke-width=".6797" d="m1490.8 989.9 1.39 112.6"/>
    <path stroke="#5BA0FE" stroke-linecap="round" stroke-width=".5023" d="M800.289 777.1 624.843 826"/>
    <path stroke="#5BA0FE" stroke-linecap="round" stroke-width="1.0503" d="m1316.95 774.6-62.88-28.1"/>
    <path stroke="#5BA0FE" stroke-linecap="round" stroke-width=".4565" d="m439.216 1733.3-58.981-145.4"/>
    <path stroke="#5BA0FE" stroke-linecap="round" stroke-width=".4657" d="m1329.32 743.9-75.25 2.6"/>
    <path stroke="#5BA0FE" stroke-linecap="round" stroke-width=".4886" d="M830.128 2209.5 637.217 1974"/>
    <path stroke="#5BA0FE" stroke-linecap="round" stroke-width=".7667" d="m981.025 1000.5-165.267 38.3"/>
    <path stroke="#5BA0FE" stroke-linecap="round" stroke-width=".7712" d="m2097.97 1793.5 132.04 123.5"/>
    <path stroke="#5BA0FE" stroke-linecap="round" stroke-width=".7804" d="m2141.39 1774.1 88.62 142.9"/>
    <path stroke="#5BA0FE" stroke-linecap="round" stroke-width=".9359" d="m687.416 1323.2-75.847-88.1"/>
    <path stroke="#5BA0FE" stroke-linecap="round" stroke-width="1.2608" d="m1864.34 2079.2-36.12 131"/>
    <path stroke="#5BA0FE" stroke-linecap="round" stroke-width=".5023" d="m1277.73 1540.6 192.91 96.9"/>
    <path stroke="#5BA0FE" stroke-linecap="round" stroke-width=".9268" d="m401.992 1136.3-46.606-66.4"/>
    <path stroke="#5BA0FE" stroke-linecap="round" stroke-width=".6569" d="m872.644 263 47.903 192.3"/>
    <path stroke="#5BA0FE" stroke-linecap="round" stroke-width=".4062" d="m1301.08 1139.9 100.8 41.9"/>
    <path stroke="#5BA0FE" stroke-linecap="round" stroke-width=".4382" d="m1626.82 1832.7 90.82 104"/>
    <path stroke="#5BA0FE" stroke-linecap="round" stroke-width=".9314" d="m1301.08 1139.9 76.35-15"/>
    <path stroke="#5BA0FE" stroke-linecap="round" stroke-width=".3275" d="m872.644 263 86.825 176.5"/>
    <path stroke="#5BA0FE" stroke-linecap="round" stroke-width=".5105" d="m1113.86 979.3-132.836 21.2"/>
    <path stroke="#5BA0FE" stroke-linecap="round" stroke-width=".1683" d="m1113.86 979.3 119.66-46"/>
    <path stroke="#5BA0FE" stroke-linecap="round" stroke-width=".8399" d="m412.072 917.3-56.686 152.6"/>
    <path stroke="#5BA0FE" stroke-linecap="round" stroke-width=".8902" d="m483.727 989.8-128.341 80.1"/>
    <path stroke="#5BA0FE" stroke-linecap="round" stroke-width=".6111" d="m959.468 439.5-38.921 15.8"/>
    <path stroke="#5BA0FE" stroke-linecap="round" stroke-width=".5023" d="m642.507 418.2 96.505 100.5"/>
    <path stroke="#5BA0FE" stroke-linecap="round" stroke-width=".4977" d="m1782.71 1500.9 198.1-16.3"/>
    <path stroke="#5BA0FE" stroke-linecap="round" stroke-width=".4657" d="m1570.24 1714.3-99.6-76.8"/>
    <path stroke="#5BA0FE" stroke-linecap="round" stroke-width=".3788" d="M2368.93 2019.2 2230.01 1917"/>
    <path stroke="#5BA0FE" stroke-linecap="round" stroke-width=".1729" d="m1328.52 171.8 115.57 126.4"/>
    <path stroke="#5BA0FE" stroke-linecap="round" stroke-width=".3467" d="m802.284 1367.9-60.777 89.4"/>
    <path stroke="#5BA0FE" stroke-linecap="round" stroke-width=".5425" d="m1539.3 301.8-95.21-3.6"/>
    <path stroke="#5BA0FE" stroke-linecap="round" stroke-width=".4886" d="m642.507 418.2-149.1 101.3"/>
    <path stroke="#5BA0FE" stroke-linecap="round" stroke-width=".7301" d="m1242.4 497.4 80.34-40.1"/>
    <path stroke="#5BA0FE" stroke-linecap="round" stroke-width=".9497" d="m401.991 1136.3 81.735-146.5"/>
    <path stroke="#5BA0FE" stroke-linecap="round" stroke-width=".484" d="m1551.67 874.2 105.19 50.2"/>
    <path stroke="#5BA0FE" stroke-linecap="round" stroke-width=".3925" d="m1665.94 106.2-29.34 105.9"/>
    <path stroke="#5BA0FE" stroke-linecap="round" stroke-width=".4016" d="m103.294 748.1 18.563 102.5"/>
    <path stroke="#5BA0FE" stroke-linecap="round" stroke-width=".4886" d="m503.886 655.9-10.479-136.4"/>
    <path stroke="#5BA0FE" stroke-linecap="round" stroke-width=".8627" d="m412.071 917.3 71.656 72.5"/>
    <path stroke="#5BA0FE" stroke-linecap="round" stroke-width=".968" d="m1570.24 1714.3 106.38 54"/>
    <path stroke="#5BA0FE" stroke-linecap="round" stroke-width=".4703" d="m920.547 455.3 60.278 75.3"/>
    <path stroke="#5BA0FE" stroke-linecap="round" stroke-width=".3961" d="m959.867 870.3 21.157 130.2"/>
    <path stroke="#5BA0FE" stroke-linecap="round" stroke-width="1.1967" d="m1864.34 2079.2-146.7-142.5"/>
    <path stroke="#5BA0FE" stroke-linecap="round" stroke-width=".3422" d="m1431.02 1220-29.14-38.2"/>
    <path stroke="#5BA0FE" stroke-linecap="round" stroke-width=".968" d="m1509.36 819.5 147.5 104.9"/>
    <path stroke="#5BA0FE" stroke-linecap="round" stroke-width=".5252" d="m1377.42 1124.9 24.46 56.9"/>
    <path stroke="#5BA0FE" stroke-linecap="round" stroke-width=".484" d="m1328.52 171.8-232.53-8.2"/>
    <path stroke="#5BA0FE" stroke-linecap="round" stroke-width=".8673" d="m1431.02 1220-53.6-95.1"/>
    <path stroke="#5BA0FE" stroke-linecap="round" stroke-width=".4337" d="m2005.26 1170.4 84.53 18"/>
    <path stroke="#5BA0FE" stroke-linecap="round" stroke-width=".1408" d="m959.468 439.5 21.357 91.1"/>
    <path stroke="#5BA0FE" stroke-linecap="round" stroke-width=".6203" d="m2282.1 501.3-104.39-93"/>
    <path stroke="#5BA0FE" stroke-linecap="round" stroke-width="1.2242" d="m1747.98 1169.2-59.38-67.2"/>
    <path stroke="#5BA0FE" stroke-linecap="round" stroke-width=".9268" d="m1190.5 1107.6 186.93 17.3"/>
    <path stroke="#5BA0FE" stroke-linecap="round" stroke-width=".452" d="m542.408 1231.1 69.161 4"/>
    <path stroke="#5BA0FE" stroke-linecap="round" stroke-width=".7484" d="m2208.15 444.2-30.44-35.9"/>
    <path stroke="#5BA0FE" stroke-linecap="round" stroke-width=".4108" d="m1470.64 1637.5 6.38-125.9"/>
    <path stroke="#5BA0FE" stroke-linecap="round" stroke-width=".2095" d="m1839.79 1719.1 94.81 138.2"/>
    <path stroke="#5BA0FE" stroke-linecap="round" stroke-width=".484" d="m1509.36 819.5 42.31 54.7"/>
    <path stroke="#5BA0FE" stroke-linecap="round" stroke-width=".4565" d="m2384.2 1058.1-237.43 89.1"/>
    <path stroke="#5BA0FE" stroke-linecap="round" stroke-width=".6065" d="M2401.26 1744.4 2230.01 1917"/>
    <path stroke="#5BA0FE" stroke-linecap="round" stroke-width=".4703" d="m485.923 1387.1 56.486-156"/>
    <path stroke="#5BA0FE" stroke-linecap="round" stroke-width=".072222" d="m1254.37 1956.1.7 17.6"/>
    <path stroke="#5BA0FE" stroke-linecap="round" stroke-width=".053922" d="M959.867 870.3 849.789 955"/>
    <path stroke="#5BA0FE" stroke-linecap="round" stroke-width=".7987" d="m2401.26 1744.4 48.9-196.9"/>
    <path stroke="#5BA0FE" stroke-linecap="round" stroke-width=".4016" d="m1084.02 1255.3 106.48-147.7"/>
    <path stroke="#5BA0FE" stroke-linecap="round" stroke-width=".1729" d="m503.887 655.9 47.703-97.7"/>
    <path stroke="#5BA0FE" stroke-linecap="round" stroke-width=".6386" d="m1902.07 1135.6 103.19 34.8"/>
    <path stroke="#5BA0FE" stroke-linecap="round" stroke-width=".3696" d="m1539.3 301.8 64.57-226.5"/>
    <path stroke="#5BA0FE" stroke-linecap="round" stroke-width=".4108" d="m1484.11 1403.6-7.09 108"/>
    <path stroke="#5BA0FE" stroke-linecap="round" stroke-width="1.2196" d="m1731.51 1619.6 41.02-6.8"/>
    <path stroke="#5BA0FE" stroke-linecap="round" stroke-width=".5379" d="m1254.37 1956.1-143.51-64.5"/>
    <path stroke="#5BA0FE" stroke-linecap="round" stroke-width=".3732" d="m2282.1 501.3-73.95-57.1"/>
    <path stroke="#5BA0FE" stroke-linecap="round" stroke-width=".3376" d="m1066.85 2122 188.22-148.3"/>
    <path stroke="#5BA0FE" stroke-linecap="round" stroke-width=".4108" d="m1477.02 1511.6 50.1-73.6"/>
    <path stroke="#5BA0FE" stroke-linecap="round" stroke-width=".8902" d="m1791.99 1374.7 65.97 66.1"/>
    <path stroke="#5BA0FE" stroke-linecap="round" stroke-width=".3467" d="M1855.86 1124.6 1688.6 1102"/>
    <path stroke="#5BA0FE" stroke-linecap="round" stroke-width=".4657" d="m1110.86 1891.6 144.21 82.1"/>
    <path stroke="#5BA0FE" stroke-linecap="round" stroke-width=".6431" d="m751.786 1338.1 50.498 29.8"/>
    <path stroke="#5BA0FE" stroke-linecap="round" stroke-width=".8673" d="m1791.99 1374.7 129.54 32.6"/>
    <path stroke="#5BA0FE" stroke-linecap="round" stroke-width=".8948" d="m2132.9 688-117.36 71.2"/>
    <path stroke="#5BA0FE" stroke-linecap="round" stroke-width="1.3386" d="m1815.94 1750.4-43.41-137.6"/>
    <path stroke="#5BA0FE" stroke-linecap="round" stroke-width=".452" d="m1370.24 1795.9-115.17 177.8"/>
    <path stroke="#5BA0FE" stroke-linecap="round" stroke-width=".8307" d="m485.923 1387.1 73.552 101.6"/>
    <path stroke="#5BA0FE" stroke-linecap="round" stroke-width=".8033" d="m1066.85 2122 44.01-230.4"/>
    <path stroke="#5BA0FE" stroke-linecap="round" stroke-width=".2049" d="m1902.07 1135.6-46.21-11"/>
    <path stroke="#5BA0FE" stroke-linecap="round" stroke-width=".8444" d="m559.475 1488.7 70.058 1.8"/>
    <path stroke="#5BA0FE" stroke-linecap="round" stroke-width=".1729" d="m551.59 558.2 69.061-69.9"/>
    <path stroke="#5BA0FE" stroke-linecap="round" stroke-width=".9634" d="m1857.96 1440.8 63.57-33.5"/>
    <path stroke="#5BA0FE" stroke-linecap="round" stroke-width=".484" d="m121.856 850.6 107.983 65.8"/>
    <path stroke="#5BA0FE" stroke-linecap="round" stroke-width=".4657" d="m1110.86 1891.6-30.64-182.5"/>
    <path stroke="#5BA0FE" stroke-linecap="round" stroke-width=".3239" d="m2015.54 759.2 114.57 67.9"/>
    <path stroke="#5BA0FE" stroke-linecap="round" stroke-width=".9359" d="m2033.8 1457.2-112.27-49.9"/>
    <path stroke="#5BA0FE" stroke-linecap="round" stroke-width=".4611" d="m1817.54 1808.6-1.6-58.2"/>
    <path stroke="#5BA0FE" stroke-linecap="round" stroke-width=".1592" d="m934.518 1736-41.816-40.7"/>
    <path stroke="#5BA0FE" stroke-linecap="round" stroke-width=".5023" d="m1250.58 959.8 94.71 17"/>
    <path stroke="#5BA0FE" stroke-linecap="round" stroke-width=".9634" d="m2033.8 1457.2-22.95 160.9"/>
    <path stroke="#5BA0FE" stroke-linecap="round" stroke-width=".5709" d="m2132.9 688-32.93-94"/>
    <path stroke="#5BA0FE" stroke-linecap="round" stroke-width=".1592" d="m934.519 1736 77.341-84.4"/>
    <path stroke="#5BA0FE" stroke-linecap="round" stroke-width=".8627" d="m339.518 1495.4 219.956-6.7"/>
    <path stroke="#5BA0FE" stroke-linecap="round" stroke-width=".881" d="m2384.2 1058.1 246.3 57.3"/>
    <path stroke="#5BA0FE" stroke-linecap="round" stroke-width=".4199" d="m706.278 1692.1 186.425 3.2"/>
    <path stroke="#5BA0FE" stroke-linecap="round" stroke-width=".6807" d="m1328.52 546.8 16.57-116.7"/>
    <path stroke="#5BA0FE" stroke-linecap="round" stroke-width="1.183" d="m1328.52 546.8-89.02 2.2"/>
    <path stroke="#5BA0FE" stroke-linecap="round" stroke-width=".3879" d="m1833.9 716.3-45.1 45.5"/>
    <path stroke="#5BA0FE" stroke-linecap="round" stroke-width=".1912" d="M2695.97 395.8 2579 453.1"/>
    <path stroke="#5BA0FE" stroke-linecap="round" stroke-width=".5023" d="m1384.61 1010.1-39.32-33.3"/>
    <path stroke="#5BA0FE" stroke-linecap="round" stroke-width=".9588" d="m2010.85 1618.1 51.69 95.4"/>
    <path stroke="#5BA0FE" stroke-linecap="round" stroke-width=".7484" d="m1680.91 1058.3-139.52-11.9"/>
    <path stroke="#5BA0FE" stroke-linecap="round" stroke-width="1.0046" d="m1250.58 959.8-35.13-51.1"/>
    <path stroke="#5BA0FE" stroke-linecap="round" stroke-width=".2415" d="m769.551 1836.7 123.152-141.4"/>
    <path stroke="#5BA0FE" stroke-linecap="round" stroke-width=".849" d="m1635.31 536 33.43-63.6"/>
    <path stroke="#5BA0FE" stroke-linecap="round" stroke-width=".2964" d="m751.787 1338.1-65.767 67.7"/>
    <path stroke="#5BA0FE" stroke-linecap="round" stroke-width=".9771" d="m2234.8 1638.4-223.95-20.3"/>
    <path stroke="#5BA0FE" stroke-linecap="round" stroke-width=".9039" d="m369.956 873.9-140.117 42.5"/>
    <path stroke="#5BA0FE" stroke-linecap="round" stroke-width=".3788" d="m1541.39 1046.4 82.24 54.7"/>
    <path stroke="#5BA0FE" stroke-linecap="round" stroke-width=".8444" d="m1779.12 911.5 9.68-149.7"/>
    <path stroke="#5BA0FE" stroke-linecap="round" stroke-width=".452" d="m1370.24 1795.9 68.26 52.3"/>
    <path stroke="#5BA0FE" stroke-linecap="round" stroke-width=".040196" d="M2718.62 385.4 2579 453.1"/>
    <path stroke="#5BA0FE" stroke-linecap="round" stroke-width=".6614" d="m706.278 1692.1 63.273 144.6"/>
    <path stroke="#5BA0FE" stroke-linecap="round" stroke-width=".4886" d="m2670.12 1875.4 164.17-74.3"/>
    <path stroke="#5BA0FE" stroke-linecap="round" stroke-width=".1912" d="m2130.11 827.1 3.99-99.5"/>
    <path stroke="#5BA0FE" stroke-linecap="round" stroke-width=".9405" d="m2234.8 1638.4-172.26 75.1"/>
    <path stroke="#5BA0FE" stroke-linecap="round" stroke-width=".2314" d="m2695.97 395.8 22.65-10.4"/>
    <path stroke="#5BA0FE" stroke-linecap="round" stroke-width=".1912" d="m2099.97 594 34.13 133.6"/>
    <path stroke="#5BA0FE" stroke-linecap="round" stroke-width=".5023" d="m1239.5 549 105.59-118.9"/>
    <path stroke="#5BA0FE" stroke-linecap="round" stroke-width=".2415" d="m1967.24 343.2 60.27-189.5"/>
    <path stroke="#5BA0FE" stroke-linecap="round" stroke-width=".4611" d="m2220.63 1262.3-245.81 28"/>
    <path stroke="#5BA0FE" stroke-linecap="round" stroke-width=".3696" d="m1680.91 1058.3-57.28 42.8"/>
    <path stroke="#5BA0FE" stroke-linecap="round" stroke-width=".5572" d="m1887.5 1224.3-76.55 108.2"/>
    <path stroke="#5BA0FE" stroke-linecap="round" stroke-width="1.0183" d="m1887.5 1224.3 87.32 66"/>
    <path stroke="#5BA0FE" stroke-linecap="round" stroke-width=".1912" d="m2114.34 860.5 19.76-132.9"/>
    <path stroke="#5BA0FE" stroke-linecap="round" stroke-width=".9268" d="m2086.1 1243.9-111.28 46.4"/>
    <path stroke="#5BA0FE" stroke-linecap="round" stroke-width=".5023" d="m1234.01 923-18.56-14.3"/>
    <path stroke="#5BA0FE" stroke-linecap="round" stroke-width=".9908" d="m1016.05 1440.8-152.589 5.4"/>
    <path stroke="#5BA0FE" stroke-linecap="round" stroke-width=".5023" d="m1546.38 1048.1-161.77-38"/>
    <path stroke="#5BA0FE" stroke-linecap="round" stroke-width=".6431" d="m1967.24 343.2-18.97 31.9"/>
    <path stroke="#5BA0FE" stroke-linecap="round" stroke-width=".4886" d="m1217.65 1089.9 114.77 69.6"/>
    <path stroke="#5BA0FE" stroke-linecap="round" stroke-width=".3879" d="m1199.28 57.4 147.01 145.9"/>
    <path stroke="#5BA0FE" stroke-linecap="round" stroke-width=".053922" d="m1525.43 742.1 58.98-154.8"/>
    <path stroke="#5BA0FE" stroke-linecap="round" stroke-width=".5023" d="m1635.31 536-50.9 51.3M136.228 613.4l-99.8989-26.5"/>
    <path stroke="#5BA0FE" stroke-linecap="round" stroke-width=".4784" d="m1199.88 1775.2 99.9-135.2"/>
    <path stroke="#5BA0FE" stroke-linecap="round" stroke-width=".2186" d="m1556.66 1989-118.16-140.8"/>
    <path stroke="#5BA0FE" stroke-linecap="round" stroke-width=".4977" d="m1535.91 1692.6-97.41 155.6"/>
    <path stroke="#5BA0FE" stroke-linecap="round" stroke-width=".5023" d="M722.646 255.5 614.064 185"/>
    <path stroke="#5BA0FE" stroke-linecap="round" stroke-width=".4886" d="m2834.29 1801.1-286.72 61.7"/>
    <path stroke="#5BA0FE" stroke-linecap="round" stroke-width=".4611" d="m997.99 981.4 14.67-185.3"/>
    <path stroke="#5BA0FE" stroke-linecap="round" stroke-width=".849" d="m1013.36 1431.4 2.69 9.4"/>
    <path stroke="#5BA0FE" stroke-linecap="round" stroke-width=".9131" d="m369.956 873.9 41.716-35.9"/>
    <path stroke="#5BA0FE" stroke-linecap="round" stroke-width=".4886" d="m851.686 1473.8 11.776-27.6"/>
    <path stroke="#5BA0FE" stroke-linecap="round" stroke-width=".081373" d="m1572.03 1226.9 51.6-125.8"/>
    <path stroke="#5BA0FE" stroke-linecap="round" stroke-width=".9497" d="m1394.19 1282.3-61.77-122.8"/>
    <path stroke="#5BA0FE" stroke-linecap="round" stroke-width=".4611" d="m1346.09 1434.7 48.1-152.4"/>
    <path stroke="#5BA0FE" stroke-linecap="round" stroke-width=".5654" d="m1199.88 1775.2 14.77 88.2"/>
    <path stroke="#5BA0FE" stroke-linecap="round" stroke-width=".2507" d="m856.376 309.3 28.443 10.2"/>
    <path stroke="#5BA0FE" stroke-linecap="round" stroke-width=".9268" d="m2630.5 1115.4 35.43 169.8"/>
    <path stroke="#5BA0FE" stroke-linecap="round" stroke-width=".5608" d="M997.99 981.4 841.306 832M2086.1 1243.9l60.77-94.8"/>
    <path stroke="#5BA0FE" stroke-linecap="round" stroke-width=".3147" d="m1299.78 1640 136.43-99.7"/>
    <path stroke="#5BA0FE" stroke-linecap="round" stroke-width=".3971" d="m1024.04 497.7 77.64 224"/>
    <path stroke="#5BA0FE" stroke-linecap="round" stroke-width=".8078" d="m1851.67 1108.8 21.16 12.6"/>
    <path stroke="#5BA0FE" stroke-linecap="round" stroke-width=".4977" d="m1535.91 1692.6-99.7-152.3"/>
    <path stroke="#5BA0FE" stroke-linecap="round" stroke-width="1.0092" d="M548.496 714.9 411.672 838"/>
    <path stroke="#5BA0FE" stroke-linecap="round" stroke-width=".6477" d="M1024.04 497.7 856.376 309.3"/>
    <path stroke="#5BA0FE" stroke-linecap="round" stroke-width=".7255" d="m1851.67 1108.8-22.75-9.1"/>
    <path stroke="#5BA0FE" stroke-linecap="round" stroke-width=".8856" d="m1828.92 1099.7 43.91 21.7"/>
    <path stroke="#5BA0FE" stroke-linecap="round" stroke-width=".5379" d="m1075.83 1483.9-62.47-52.5"/>
    <path stroke="#5BA0FE" stroke-linecap="round" stroke-width=".2507" d="m856.376 309.3 59.779-84.6"/>
    <path stroke="#5BA0FE" stroke-linecap="round" stroke-width=".9908" d="m450.395 739 98.102-24.1"/>
    <path stroke="#5BA0FE" stroke-linecap="round" stroke-width=".9039" d="m1214.65 1863.4 134.83 59.4"/>
    <path stroke="#5BA0FE" stroke-linecap="round" stroke-width=".4098" d="m2151.66 1513.1 201.9 84.4"/>
    <path stroke="#5BA0FE" stroke-linecap="round" stroke-width=".8948" d="m1694.49 216.9 132.13-31.3"/>
    <path stroke="#5BA0FE" stroke-linecap="round" stroke-width=".1912" d="m1075.83 1483.9 95.01-37.7"/>
    <path stroke="#5BA0FE" stroke-linecap="round" stroke-width=".3147" d="m2256.95 481.6-9.38-221.7m-8.68 73.7 8.68-73.7"/>
    <path stroke="#5BA0FE" stroke-linecap="round" stroke-width=".5059" d="m1826.62 185.6 120.56-75.3"/>
    <path stroke="#5BA0FE" stroke-linecap="round" stroke-width=".968" d="m450.394 739-38.722 99"/>
    <path stroke="#5BA0FE" stroke-linecap="round" stroke-width=".4611" d="m1967.54 694.6-126.25-50.8"/>
    <path stroke="#5BA0FE" stroke-linecap="round" stroke-width=".4657" d="m1827.92 1189.9 9.88 1.2"/>
    <path stroke="#5BA0FE" stroke-linecap="round" stroke-width=".4016" d="m1986.4 310.6-38.13 64.5"/>
    <path stroke="#5BA0FE" stroke-linecap="round" stroke-width=".9039" d="m1919.13 1202.2-91.21-12.3"/>
    <path stroke="#5BA0FE" stroke-linecap="round" stroke-width=".4382" d="m1919.13 1202.2-81.33-11.1"/>
    <path stroke="#5BA0FE" stroke-linecap="round" stroke-width=".021895" d="m1768.84 1471.5-33.44 61.2"/>
    <path stroke="#5BA0FE" stroke-linecap="round" stroke-width=".8856" d="m1694.49 216.9-162.58 4.6"/>
    <path stroke="#5BA0FE" stroke-linecap="round" stroke-width=".021895" d="m1735.4 1532.7 76.55-13.7"/>
    <path stroke="#5BA0FE" stroke-linecap="round" stroke-width=".4611" d="m1841.29 643.8-93.21-107.5"/>
    <path stroke="#5BA0FE" stroke-linecap="round" stroke-width=".6523" d="m1022.74 1229.5-212.471 30.2"/>
    <path stroke="#5BA0FE" stroke-linecap="round" stroke-width=".4657" d="m1850.27 1231.1-22.35-41.2"/>
    <path stroke="#5BA0FE" stroke-linecap="round" stroke-width=".4016" d="m519.455 266.1-262.77 38.4"/>
    <path stroke="#5BA0FE" stroke-linecap="round" stroke-width=".099673" d="m1642.69 527.9 105.39 8.4m-105.39-8.4-172.95-98.3"/>
    <path stroke="#5BA0FE" stroke-linecap="round" stroke-width=".4931" d="m310.576 490.1-53.891-185.6"/>
    <path stroke="#5BA0FE" stroke-linecap="round" stroke-width=".3559" d="m682.027 1313.3 128.242-53.6"/>
    <path stroke="#5BA0FE" stroke-linecap="round" stroke-width=".9908" d="m2915.42 1151.7-249.49 133.5"/>
    <path stroke="#5BA0FE" stroke-linecap="round" stroke-width="1.032" d="m1531.91 221.5 135.93-174.2"/>
    <path stroke="#5BA0FE" stroke-linecap="round" stroke-width=".5059" d="m2325.12 1347.3 28.44 250.2"/>
    <path stroke="#5BA0FE" stroke-linecap="round" stroke-width=".548" d="m2257.75 237-18.86 96.6"/>
    <path stroke="#5BA0FE" stroke-linecap="round" stroke-width=".451" d="m2348.17 1549.1 5.39 48.4"/>
    <path stroke="#5BA0FE" stroke-linecap="round" stroke-width=".9405" d="m2325.12 1347.3 23.05 201.8"/>
    <path stroke="#5BA0FE" stroke-linecap="round" stroke-width=".2461" d="m1672.23 1811.2 89.42 166"/>
    <path stroke="#5BA0FE" stroke-linecap="round" stroke-width=".9863" d="m1392.99 899.3-13.07 119.1"/>
    <path stroke="#5BA0FE" stroke-linecap="round" stroke-width=".4565" d="m2043.48 370.9-57.08-60.3"/>
    <path stroke="#5BA0FE" stroke-linecap="round" stroke-width=".548" d="m2056.36 1024.9 84.03 34.6"/>
    <path stroke="#5BA0FE" stroke-linecap="round" stroke-width=".9314" d="m2056.36 1024.9-83.34-106.8"/>
    <path stroke="#5BA0FE" stroke-linecap="round" stroke-width=".5023" d="m2583.69 1231.9 82.24 53.3"/>
    <path stroke="#5BA0FE" stroke-linecap="round" stroke-width=".8719" d="m1973.02 918.1-63.97-22.2"/>
    <path stroke="#5BA0FE" stroke-linecap="round" stroke-width=".7392" d="m519.454 266.1 56.087-136.6"/>
    <path stroke="#5BA0FE" stroke-linecap="round" stroke-width=".698" d="m447.301 1275.3-74.65 67.9"/>
    <path stroke="#5BA0FE" stroke-linecap="round" stroke-width=".9634" d="m310.576 490.1 127.743 119.2"/>
    <path stroke="#5BA0FE" stroke-linecap="round" stroke-width=".5791" d="m1526.42 992-146.5 26.4"/>
    <path stroke="#5BA0FE" stroke-linecap="round" stroke-width=".5974" d="m1392.99 899.3 133.44 92.7"/>
    <path stroke="#5BA0FE" stroke-linecap="round" stroke-width="1.0595" d="M2322.82 377.4 2257.75 237"/>
    <path stroke="#5BA0FE" stroke-linecap="round" stroke-width=".2461" d="m1566.34 1951.6 195.31 25.6"/>
    <path stroke="#5BA0FE" stroke-linecap="round" stroke-width=".8627" d="m438.318 609.3 137.723-53.4"/>
    <path stroke="#5BA0FE" stroke-linecap="round" stroke-width=".419" d="m925.337 937 56.985 12.4"/>
    <path stroke="#5BA0FE" stroke-linecap="round" stroke-width="1.0366" d="m2943.37 1046.6-27.95 105.1"/>
    <path stroke="#5BA0FE" stroke-linecap="round" stroke-width=".4108" d="m2023.42 1224.4-184.72 89.4"/>
    <path stroke="#5BA0FE" stroke-linecap="round" stroke-width=".081373" d="m1115.55 1427.5-140.912 29.9"/>
    <path stroke="#5BA0FE" stroke-linecap="round" stroke-width=".5562" d="m2043.48 370.9 173.15 65.4"/>
    <path stroke="#5BA0FE" stroke-linecap="round" stroke-width=".1454" d="m858.771 419.2 236.019 108.9"/>
    <path stroke="#5BA0FE" stroke-linecap="round" stroke-width=".3376" d="M575.542 129.5 399.796 14.4"/>
    <path stroke="#5BA0FE" stroke-linecap="round" stroke-width=".2369" d="m1729.82 1300.1 76.64-54.6m-40.52 86.8 40.52-86.8"/>
    <path stroke="#5BA0FE" stroke-linecap="round" stroke-width=".2507" d="m687.217 2379.1 186.424 234.2"/>
    <path stroke="#5BA0FE" stroke-linecap="round" stroke-width=".4611" d="m2291.48 820.1 144.81-52.4"/>
    <path stroke="#5BA0FE" stroke-linecap="round" stroke-width=".3513" d="m1292.9 1305.1 122.35-126.5"/>
    <path stroke="#5BA0FE" stroke-linecap="round" stroke-width=".6111" d="m2322.82 377.4-106.19 58.9"/>
    <path stroke="#5BA0FE" stroke-linecap="round" stroke-width=".7438" d="m982.321 949.4 46.909 267.2"/>
    <path stroke="#5BA0FE" stroke-linecap="round" stroke-width=".2497" d="M925.336 937 710.07 865.7"/>
    <path stroke="#5BA0FE" stroke-linecap="round" stroke-width=".4977" d="m1415.25 1178.6 138.22 86.6"/>
    <path stroke="#5BA0FE" stroke-linecap="round" stroke-width=".548" d="m2943.37 1046.6-359.68 185.3"/>
    <path stroke="#5BA0FE" stroke-linecap="round" stroke-width=".5709" d="m1505.27 130.3-137.33 175"/>
    <path stroke="#5BA0FE" stroke-linecap="round" stroke-width=".1454" d="m800.389 418.7 58.382.5"/>
    <path stroke="#5BA0FE" stroke-linecap="round" stroke-width=".7895" d="m1292.9 1305.1-121.46-67.6"/>
    <path stroke="#5BA0FE" stroke-linecap="round" stroke-width=".8261" d="m1998.77 651.7-25.75 266.4"/>
    <path stroke="#5BA0FE" stroke-linecap="round" stroke-width=".012745" d="m710.071 865.7-143.81 115.2"/>
    <path stroke="#5BA0FE" stroke-linecap="round" stroke-width=".099673" d="m2219.63 417.4-3 18.9"/>
    <path stroke="#5BA0FE" stroke-linecap="round" d="m1171.44 1237.5-142.21-20.9"/>
    <path stroke="#5BA0FE" stroke-linecap="round" stroke-width=".2863" d="m1960.35 70.4-36.33 84.2"/>
    <path stroke="#5BA0FE" stroke-linecap="round" stroke-width=".1912" d="m1924.02 154.6-122.05 142.3"/>
    <path stroke="#5BA0FE" stroke-linecap="round" stroke-width=".2507" d="M372.651 1343.2 351.693 1488"/>
    <path stroke="#5BA0FE" stroke-linecap="round" stroke-width=".4922" d="m2230.21 283.6-13.58 152.7"/>
    <path stroke="#5BA0FE" stroke-linecap="round" stroke-width="1.1098" d="m944.199 1241.7 85.031-25.1"/>
    <path stroke="#5BA0FE" stroke-linecap="round" stroke-width=".9497" d="m2353.86 1001 82.43-233.3"/>
    <path stroke="#5BA0FE" stroke-linecap="round" stroke-width=".4703" d="m1650.67 1622.7 148.31-22.5m-148.31 22.5 20.86 9.4"/>
    <path stroke="#5BA0FE" stroke-linecap="round" stroke-width=".3925" d="m2219.63 417.4 10.58-133.8"/>
    <path stroke="#5BA0FE" stroke-linecap="round" stroke-width=".095098" d="m1960.35 70.4-158.38 226.5"/>
    <path stroke="#5BA0FE" stroke-linecap="round" stroke-width="1.0503" d="m1077.23 1118.2-48 98.4"/>
    <path stroke="#5BA0FE" stroke-linecap="round" stroke-width=".8033" d="m1114.76 1147.8-85.53 68.8"/>
    <path stroke="#5BA0FE" stroke-linecap="round" stroke-width=".4886" d="m2372.92 999.8-19.06 1.2"/>
    <path stroke="#5BA0FE" stroke-linecap="round" stroke-width=".5023" d="m1488.3 825.3-88.22-121.8"/>
    <path stroke="#5BA0FE" stroke-linecap="round" stroke-width=".4611" d="m2372.92 999.8 63.37-232.1"/>
    <path stroke="#5BA0FE" stroke-linecap="round" stroke-width=".4154" d="m2406.25 2010.7-424.84-238.9"/>
    <path stroke="#5BA0FE" stroke-linecap="round" stroke-width=".4611" d="m1958.95 1983.8-159.97-383.6"/>
    <path stroke="#5BA0FE" stroke-linecap="round" stroke-width=".548" d="m814.061 1264.5 130.137-22.8"/>
    <path stroke="#5BA0FE" stroke-linecap="round" stroke-width=".4611" d="m1958.95 1983.8 22.46-212"/>
    <path stroke="#5BA0FE" stroke-linecap="round" stroke-width="1.4529" d="m1488.3 825.3 14.47 130.7"/>
    <path stroke="#5BA0FE" stroke-linecap="round" stroke-width=".7301" d="m1077.23 1118.2 37.52 29.6"/>
    <path stroke="#5BA0FE" stroke-linecap="round" stroke-width=".4428" d="m2091.39 901.6-92.62-249.9"/>
    <path stroke="#5BA0FE" stroke-linecap="round" stroke-width=".9507" d="M1528.62 1092.7 1502.77 956"/>
    <path stroke="#5BA0FE" stroke-linecap="round" stroke-width="1.3523" d="m1590.89 940-88.12 16"/>
    <path stroke="#5BA0FE" stroke-linecap="round" stroke-width=".9131" d="m1411.16 1410.4 77.14 29.1"/>
    <path stroke="#5BA0FE" stroke-linecap="round" stroke-width=".4016" d="m1590.89 940-62.27 152.7"/>
    <path stroke="#5BA0FE" stroke-linecap="round" stroke-width=".4748" d="m667.256 349-29.041 116.2"/>
    <path stroke="#5BA0FE" stroke-linecap="round" stroke-width=".5105" d="m1617.64 1562.3-129.34-122.8"/>
    <path stroke="#5BA0FE" stroke-linecap="round" stroke-width=".5928" d="m1617.64 1562.3 46.71 54"/>
    <path stroke="#5BA0FE" stroke-linecap="round" stroke-width=".8444" d="m1171.34 408.7 282.63-155.9"/>
    <path stroke="#5BA0FE" stroke-linecap="round" stroke-width=".602" d="M1540.1 70.9999 1453.97 252.8"/>
    <path stroke="#5BA0FE" stroke-linecap="round" stroke-width=".4565" d="M826.336 303.6 638.215 465.2"/>
    <path stroke="#5BA0FE" stroke-linecap="round" stroke-width=".7448" d="m1475.13 314.8-303.79 93.9"/>
    <path stroke="#5BA0FE" stroke-linecap="round" stroke-width=".9039" d="m1664.35 1616.3-176.05-176.8"/>
    <path stroke="#5BA0FE" stroke-linecap="round" stroke-width=".099673" d="m1475.13 314.8-21.16-62"/>
    <path stroke="#5BA0FE" stroke-linecap="round" stroke-width=".4794" d="m1767.74 421.5 379.63-63.5"/>
    <path stroke="#5BA0FE" stroke-linecap="round" stroke-width=".9314" d="m667.257 349 159.079-45.4"/>
    <path stroke="#5BA0FE" stroke-linecap="round" stroke-width=".7484" d="m1902.57 1268.3 17.56-242.5"/>
    <path stroke="#5BA0FE" stroke-linecap="round" stroke-width=".003595" d="M708.174 757.2 540.712 983.1"/>
    <path stroke="#5BA0FE" stroke-linecap="round" stroke-width=".6203" d="m2289.39 1033.9-386.82 234.4"/>
    <path stroke="#5BA0FE" stroke-linecap="round" stroke-width=".4016" d="m538.217 1489.1 270.355 148.4"/>
    <path stroke="#5BA0FE" stroke-linecap="round" stroke-width=".4556" d="m2289.39 1033.9-369.26-8.1"/>
    <path stroke="#5BA0FE" stroke-linecap="round" stroke-width=".9771" d="m2147.37 358-106.88 256"/>
    <path stroke="#5BA0FE" stroke-linecap="round" stroke-width=".3046" d="m1606.06 1196.1-238.91-46.3"/>
    <path stroke="#5BA0FE" stroke-linecap="round" stroke-width=".8856" d="m1072.04 1515.4-263.468 122.1"/>
    <path stroke="#5BA0FE" stroke-linecap="round" stroke-width=".5196" d="m1674.33 1257.1-307.18-107.3"/>
    <path stroke="#5BA0FE" stroke-linecap="round" stroke-width=".3229" d="m1606.06 1196.1 68.27 61"/>
    <path stroke="#5BA0FE" stroke-linecap="round" stroke-width=".5023" d="m285.028 774.2 255.685 208.9"/>
    <path stroke="#5BA0FE" stroke-linecap="round" stroke-width=".7209" d="m2040.49 614 413.77-142.4"/>
    <path stroke="#5BA0FE" stroke-linecap="round" stroke-width=".2507" d="m1938.1 344.2-476.05-141.6"/>
  </g>
</svg>
