<?xml version="1.0" standalone="no"?>
<!DOCTYPE svg PUBLIC "-//W3C//DTD SVG 20010904//EN"
 "http://www.w3.org/TR/2001/REC-SVG-20010904/DTD/svg10.dtd">
<svg version="1.0" xmlns="http://www.w3.org/2000/svg"
 width="1104.000000pt" height="1104.000000pt" viewBox="0 0 1104.000000 1104.000000"
 preserveAspectRatio="xMidYMid meet">
<metadata>
Created by potrace 1.14, written by Peter Selinger 2001-2017
</metadata>
<g transform="translate(0.000000,1104.000000) scale(0.100000,-0.100000)"
fill="#000000" stroke="none">
<path d="M2567 8235 c-9 -6 -13 -16 -9 -21 4 -4 -2 -2 -12 6 -22 17 -25 17
-37 -2 -6 -8 -12 -9 -16 -3 -10 13 -36 19 -29 7 3 -5 -13 -8 -35 -7 -32 2 -39
-1 -34 -13 4 -12 3 -13 -10 -2 -12 10 -15 10 -15 0 0 -10 -3 -10 -15 0 -9 8
-15 9 -15 2 0 -6 -9 -9 -21 -7 -15 3 -19 0 -15 -10 3 -9 0 -12 -9 -8 -8 3 -13
8 -10 12 2 4 -2 8 -10 8 -8 0 -12 -4 -8 -9 3 -6 -3 -9 -13 -7 -11 1 -27 -1
-36 -6 -10 -4 -25 -4 -34 -1 -11 4 -18 -1 -21 -14 -5 -19 -6 -20 -19 -3 -7 10
-14 13 -14 7 0 -7 -8 -14 -17 -18 -10 -3 -25 -9 -33 -12 -13 -5 -13 -4 0 5 9
7 10 11 3 11 -6 0 -15 -5 -19 -11 -3 -6 -19 -9 -35 -7 -24 4 -27 2 -16 -11 10
-12 9 -13 -2 -7 -8 5 -17 3 -22 -5 -7 -12 -9 -12 -9 0 0 11 -4 10 -16 -5 -8
-10 -12 -12 -8 -4 7 12 5 13 -8 3 -8 -7 -18 -10 -21 -6 -4 3 -7 1 -7 -5 0 -6
-7 -9 -15 -6 -9 4 -15 0 -15 -7 0 -12 -2 -12 -9 -1 -7 11 -9 11 -14 -2 -4 -9
-13 -13 -22 -10 -8 4 -17 -1 -21 -10 -3 -9 -10 -16 -16 -16 -5 0 -6 5 -2 11 4
8 0 7 -15 -1 -12 -6 -19 -15 -16 -20 3 -4 -3 -7 -12 -6 -10 2 -21 -2 -25 -8
-5 -7 -8 -6 -8 3 0 9 -6 7 -19 -8 -14 -16 -21 -18 -24 -9 -4 11 -6 10 -6 0 -1
-7 -6 -10 -13 -6 -8 5 -9 2 -5 -10 5 -14 3 -15 -13 -6 -14 8 -21 6 -28 -6 -5
-8 -16 -16 -26 -18 -10 -1 -21 -8 -26 -15 -4 -8 -13 -10 -19 -7 -6 4 -11 0
-11 -11 0 -15 -2 -16 -10 -3 -6 10 -10 11 -10 3 0 -7 -6 -12 -12 -10 -7 1 -12
-3 -11 -10 2 -7 -6 -10 -17 -8 -13 2 -20 -2 -20 -11 0 -8 -10 -14 -24 -14 -14
0 -37 -11 -52 -25 -25 -24 -38 -29 -57 -26 -5 1 -6 -3 -2 -9 3 -5 -1 -10 -9
-10 -8 0 -18 -5 -22 -12 -4 -7 -3 -8 4 -4 8 5 10 1 5 -9 -5 -14 -8 -14 -15 -3
-7 10 -11 10 -15 1 -2 -7 -11 -13 -19 -13 -8 0 -11 -6 -7 -16 5 -14 3 -15 -16
-5 -12 7 -21 8 -20 4 3 -19 -2 -33 -12 -33 -7 0 -18 -8 -25 -17 -11 -14 -13
-14 -11 -3 2 8 2 12 0 7 -3 -4 -9 -5 -14 -2 -5 4 -6 -1 -3 -9 4 -11 0 -16 -10
-16 -9 0 -15 -5 -13 -12 1 -7 -4 -12 -11 -13 -7 0 -17 -7 -22 -15 -9 -13 -11
-13 -21 0 -9 13 -10 13 -6 -2 6 -17 -15 -42 -26 -31 -4 3 -8 1 -8 -5 -3 -27
-4 -31 -13 -39 -5 -4 -6 -3 -2 4 4 8 -1 11 -13 10 -16 -1 -18 -4 -8 -16 10
-12 8 -14 -9 -9 -16 4 -21 1 -20 -11 0 -9 -4 -15 -11 -14 -8 2 -10 -4 -6 -15
6 -15 5 -15 -10 -3 -16 12 -17 12 -11 -5 4 -10 4 -16 -1 -12 -10 9 -38 -19
-30 -31 3 -6 -3 -8 -14 -6 -13 2 -18 -1 -15 -9 6 -15 -44 -59 -57 -50 -5 3 -6
-2 -3 -10 4 -11 0 -16 -11 -16 -9 0 -13 -4 -10 -10 3 -5 1 -10 -5 -10 -6 0 -8
-5 -4 -12 5 -8 2 -9 -9 -5 -9 3 -16 3 -16 -1 4 -22 -3 -33 -15 -29 -10 4 -14
0 -11 -14 3 -14 -2 -19 -18 -20 -12 0 -16 -3 -10 -6 10 -3 10 -8 -1 -19 -8 -8
-19 -14 -25 -14 -6 0 -11 -9 -11 -20 0 -10 -9 -24 -20 -30 -11 -6 -18 -15 -15
-21 4 -5 -1 -12 -9 -15 -8 -3 -18 -14 -21 -25 -4 -10 -14 -19 -23 -19 -15 0
-15 -2 -2 -10 13 -9 13 -10 0 -11 -8 -1 -19 -1 -24 0 -5 1 -4 -5 4 -13 9 -11
9 -16 1 -16 -6 0 -16 -10 -21 -22 -14 -32 -33 -61 -48 -73 -7 -6 -14 -21 -15
-33 -1 -13 -6 -21 -13 -18 -8 3 -11 -3 -9 -15 4 -17 2 -19 -11 -8 -13 10 -13
8 -5 -14 9 -22 8 -25 -6 -20 -11 4 -14 3 -9 -5 4 -7 2 -12 -4 -12 -6 0 -8 -5
-5 -10 3 -6 0 -13 -9 -16 -8 -3 -13 -14 -11 -26 3 -14 0 -18 -9 -15 -9 4 -13
-1 -11 -11 1 -9 -2 -22 -7 -29 -5 -7 -6 -18 -2 -25 6 -11 5 -11 -8 0 -13 10
-15 9 -13 -13 2 -14 -1 -25 -7 -25 -6 0 -8 -9 -5 -21 4 -17 3 -18 -9 -8 -12
10 -13 9 -9 -4 4 -8 2 -18 -4 -21 -6 -4 -8 -13 -4 -21 3 -10 1 -13 -9 -10 -9
4 -15 0 -15 -9 0 -8 5 -12 11 -9 6 3 5 0 -1 -8 -7 -7 -13 -21 -13 -31 0 -10
-5 -18 -11 -18 -6 0 -8 -9 -3 -22 6 -21 5 -22 -11 -8 -17 14 -17 14 -5 -9 11
-21 10 -23 -4 -18 -12 5 -15 3 -9 -6 11 -18 13 -38 2 -31 -5 3 -10 0 -10 -5
-1 -6 -3 -15 -4 -21 -1 -5 -3 -17 -4 -26 0 -8 -6 -12 -12 -8 -7 4 -7 -1 1 -16
10 -19 10 -22 -2 -17 -11 4 -14 -1 -12 -20 1 -13 -3 -39 -11 -56 -7 -18 -10
-38 -7 -46 3 -10 0 -12 -11 -8 -11 4 -14 2 -10 -8 3 -8 10 -12 17 -9 6 3 2 -2
-8 -10 -15 -12 -16 -16 -5 -16 8 0 10 -3 4 -8 -6 -4 -10 -17 -9 -30 1 -15 -3
-21 -11 -18 -8 3 -11 -2 -8 -15 3 -10 9 -16 14 -13 5 3 9 0 9 -5 0 -6 -6 -11
-13 -11 -9 0 -13 -12 -12 -35 1 -20 -3 -35 -9 -35 -6 0 -4 -5 4 -10 12 -8 12
-10 1 -10 -8 0 -11 -7 -8 -20 3 -11 1 -18 -4 -14 -5 3 -9 0 -9 -5 0 -6 6 -11
13 -11 8 0 9 -3 1 -8 -6 -4 -10 -15 -8 -24 1 -10 -3 -18 -9 -18 -8 0 -8 -3 1
-8 9 -6 10 -16 4 -33 -5 -13 -11 -28 -13 -34 -2 -5 -7 -9 -11 -8 -4 2 0 -10 8
-25 7 -15 10 -28 6 -30 -9 -3 -7 -60 2 -69 3 -4 -1 -15 -11 -25 -9 -10 -11
-18 -6 -18 6 0 14 -7 17 -16 4 -10 2 -13 -6 -8 -7 5 -9 2 -5 -8 3 -9 1 -20 -5
-26 -6 -6 -6 -12 1 -16 6 -4 11 -12 11 -17 0 -6 -6 -7 -12 -3 -9 5 -8 2 1 -9
8 -10 11 -20 8 -24 -4 -3 -2 -13 3 -23 6 -12 4 -24 -7 -40 -9 -13 -12 -20 -6
-17 16 10 24 -18 10 -33 -9 -10 -9 -14 0 -17 7 -2 9 -11 6 -19 -3 -8 0 -21 6
-28 10 -11 8 -17 -6 -25 -17 -10 -17 -10 0 -11 20 0 22 -11 5 -28 -9 -9 -9
-12 -1 -12 7 0 10 -9 8 -20 -2 -11 3 -24 13 -30 14 -8 14 -9 2 -10 -17 0 -22
-40 -5 -40 6 0 11 -9 12 -20 1 -13 -2 -18 -10 -14 -8 5 -8 3 1 -7 6 -7 12 -23
12 -35 0 -13 5 -26 10 -29 7 -4 6 -13 -1 -27 -8 -16 -8 -19 1 -13 9 6 11 -1 8
-25 -3 -21 0 -34 9 -37 11 -4 11 -8 1 -21 -10 -12 -10 -14 -1 -8 8 4 13 1 13
-9 0 -9 7 -28 16 -43 15 -25 15 -25 0 -8 -9 11 -16 17 -16 14 0 -12 30 -76 37
-80 5 -3 2 -3 -5 -2 -6 2 -12 -1 -12 -6 0 -6 8 -10 18 -10 14 0 15 -2 2 -10
-11 -7 -12 -10 -2 -10 9 0 11 -7 7 -21 -5 -15 -4 -19 4 -15 9 6 13 -6 10 -30
0 -4 5 -11 13 -15 11 -7 10 -9 -1 -9 -9 0 -6 -7 9 -20 13 -11 18 -20 11 -20
-7 0 -9 -5 -6 -10 4 -6 10 -8 15 -5 4 3 6 -4 3 -15 -3 -12 0 -20 6 -20 7 0 10
-4 6 -9 -3 -5 2 -16 10 -24 11 -12 12 -17 2 -20 -9 -4 -9 -6 1 -6 6 -1 12 -10
12 -21 0 -11 4 -20 9 -20 6 0 8 -9 6 -21 -3 -17 -1 -19 10 -9 11 9 12 7 8 -9
-3 -12 -1 -21 5 -21 6 0 8 -9 5 -20 -4 -14 0 -20 11 -20 10 0 13 -6 10 -15 -4
-8 -1 -15 5 -15 6 0 11 -9 11 -20 0 -11 5 -20 10 -20 6 0 10 -7 10 -15 0 -8 4
-15 10 -15 5 0 9 -3 9 -7 -3 -20 2 -34 11 -28 9 5 15 -15 11 -37 0 -5 6 -8 14
-8 9 0 12 -6 8 -17 -4 -11 -3 -14 5 -9 11 6 14 1 11 -20 0 -3 8 -12 18 -21 11
-9 12 -12 3 -8 -8 4 -5 -2 7 -13 12 -11 19 -22 16 -26 -4 -3 -1 -6 6 -6 7 0 9
-5 6 -10 -3 -5 -1 -10 5 -10 6 0 8 -5 5 -10 -3 -5 0 -10 8 -10 8 0 21 -8 28
-17 8 -10 9 -14 2 -10 -6 4 -15 3 -18 -3 -4 -6 -3 -10 2 -9 19 3 34 -2 29 -10
-6 -9 22 -26 37 -22 5 1 6 -3 2 -9 -3 -6 -11 -8 -16 -5 -5 4 -9 1 -9 -4 0 -10
14 -15 33 -12 5 1 6 -3 2 -9 -3 -5 -1 -10 4 -10 6 0 11 -9 11 -21 0 -11 5 -17
10 -14 6 3 10 2 10 -3 0 -5 10 -14 22 -21 18 -9 19 -10 3 -6 -20 6 -20 6 0
-13 11 -11 23 -18 26 -16 4 2 6 -4 5 -13 0 -9 10 -23 24 -30 14 -7 21 -13 16
-13 -5 0 3 -10 18 -21 16 -12 25 -27 22 -36 -3 -8 -2 -12 3 -8 5 3 16 2 25 -1
13 -5 14 -9 5 -21 -7 -8 -8 -13 -3 -12 21 4 34 -2 34 -16 0 -8 7 -15 15 -15 9
0 18 -7 21 -15 4 -8 10 -12 15 -9 5 3 9 -2 9 -11 0 -10 5 -13 12 -9 8 5 9 2 4
-12 -4 -10 -4 -15 0 -11 4 4 13 -1 21 -11 12 -16 13 -16 7 3 l-6 20 13 -20
c20 -32 59 -65 76 -65 9 0 14 -3 10 -6 -10 -11 31 -47 44 -39 8 5 10 4 5 -3
-5 -8 1 -12 16 -12 18 0 20 -2 8 -10 -13 -8 -12 -10 3 -10 9 0 17 -4 17 -10 0
-5 6 -10 14 -10 8 0 22 -8 33 -17 10 -10 12 -13 3 -8 -13 9 -13 8 -2 -7 7 -9
22 -15 32 -13 12 2 17 -1 14 -9 -4 -9 3 -13 20 -11 19 2 23 -1 19 -13 -4 -9
-2 -13 4 -9 6 4 14 0 17 -8 3 -9 24 -24 46 -34 22 -10 37 -21 32 -26 -4 -5 -2
-5 5 -2 6 4 18 1 26 -7 11 -12 17 -12 28 -3 8 7 11 8 7 3 -9 -11 19 -39 31
-32 5 4 16 -1 24 -9 9 -8 21 -15 27 -15 6 0 9 -4 6 -9 -3 -5 1 -12 10 -15 12
-5 15 -2 10 10 -5 14 -4 15 9 4 8 -7 13 -15 11 -19 -4 -6 10 -10 51 -13 7 -1
9 -6 6 -11 -3 -5 0 -8 8 -5 7 2 22 -3 32 -13 11 -10 25 -15 32 -13 7 3 16 0
21 -7 5 -8 3 -10 -6 -4 -8 5 -11 4 -7 -3 4 -5 15 -9 25 -7 9 1 30 -4 45 -12
16 -8 35 -12 42 -9 8 3 19 -2 25 -9 22 -27 66 -43 85 -32 15 8 17 7 12 -5 -4
-12 0 -14 14 -11 12 3 19 0 19 -8 0 -11 2 -11 10 1 6 9 10 11 10 3 0 -7 6 -10
14 -7 8 3 17 0 21 -5 3 -6 11 -9 16 -6 5 4 9 2 9 -3 0 -6 16 -9 36 -8 22 1 38
-4 41 -11 3 -7 12 -13 20 -13 8 0 11 5 7 12 -6 11 -4 11 7 0 7 -6 21 -12 31
-12 10 0 18 -6 18 -12 0 -9 4 -8 10 2 9 13 10 13 10 0 0 -12 2 -13 9 -1 5 8
10 9 12 3 2 -6 21 -12 42 -14 20 -1 37 -6 37 -10 0 -4 5 -8 11 -8 5 0 7 6 3
13 -4 6 2 4 14 -7 20 -17 22 -18 28 -2 5 13 9 14 14 5 5 -7 27 -12 49 -12 23
0 41 -5 41 -11 0 -6 5 -5 12 2 17 17 28 15 28 -4 0 -8 5 -12 11 -9 16 11 70
12 76 3 2 -5 12 -1 20 9 8 10 12 12 8 6 -3 -7 0 -13 7 -14 7 0 23 -2 36 -3 14
-2 22 3 22 13 1 13 3 12 11 -3 9 -15 13 -16 20 -5 5 8 9 10 9 4 0 -10 77 -11
87 -1 3 3 14 1 24 -5 15 -7 21 -6 25 6 6 14 8 14 20 -2 7 -10 14 -13 14 -7 0
6 12 9 29 6 16 -2 32 1 35 7 4 6 13 11 19 11 7 0 6 -4 -3 -10 -12 -8 -11 -10
5 -7 11 1 26 6 33 10 7 5 12 3 12 -3 0 -7 7 -5 16 4 17 18 28 21 19 6 -3 -6
-1 -10 4 -10 6 0 11 5 11 10 0 7 7 7 21 -1 12 -6 19 -7 15 -1 -3 5 1 12 9 16
8 3 17 1 20 -4 6 -10 31 -7 42 5 4 4 2 5 -6 0 -10 -6 -12 -4 -6 4 5 9 10 10
18 2 7 -7 15 -5 24 7 8 9 12 11 8 5 -8 -16 7 -17 22 -2 8 8 13 8 17 0 4 -6 12
-11 17 -11 6 0 7 5 3 12 -5 7 -2 9 9 5 8 -3 20 0 26 7 6 7 22 12 36 10 14 -1
25 2 25 7 0 5 5 9 11 9 5 0 7 -4 4 -10 -4 -7 3 -7 20 0 15 6 31 8 36 4 5 -3 8
-2 7 3 -2 4 2 8 7 8 5 0 9 -4 7 -10 -2 -5 6 1 19 13 15 17 24 20 29 12 5 -8 9
-7 14 5 5 14 9 15 21 5 13 -11 14 -10 8 6 -6 17 -5 17 10 5 16 -12 22 -8 18
13 -1 5 6 6 14 2 9 -3 22 -3 28 1 7 4 21 9 31 10 10 2 25 11 33 21 8 9 12 11
8 5 -3 -7 -1 -13 5 -13 6 0 13 7 16 15 4 8 10 15 16 15 5 0 6 -5 2 -12 -4 -7
7 -2 24 11 18 12 36 19 42 16 5 -3 10 -1 10 5 0 6 5 8 12 4 8 -5 9 -1 4 12 -6
15 -5 17 5 7 15 -15 33 -17 24 -3 -3 6 1 10 9 10 9 0 16 5 16 11 0 8 6 7 17
-2 10 -8 14 -9 10 -2 -4 6 -3 14 3 18 5 3 10 0 10 -7 0 -8 5 -6 11 5 6 9 14
15 20 12 5 -4 9 -1 9 4 0 6 7 11 16 11 8 0 13 4 10 9 -4 5 5 8 19 7 13 -2 22
0 20 4 -7 11 43 42 55 35 6 -3 10 -1 10 5 0 6 11 15 25 20 14 5 25 14 25 20 0
6 4 9 9 5 5 -3 13 0 16 6 4 5 14 8 22 4 14 -5 14 -3 2 12 -8 9 -9 14 -2 10 6
-4 18 -1 26 7 11 11 17 12 26 3 9 -9 11 -8 6 6 -4 10 -2 17 5 17 6 0 8 6 4 13
-5 9 -4 9 6 0 11 -10 18 -7 38 15 13 15 21 21 18 15 -5 -9 -2 -11 8 -7 8 3 12
12 9 20 -4 10 0 12 13 7 13 -5 15 -3 9 7 -6 10 -4 12 8 7 12 -4 17 -1 17 9 0
11 5 14 17 10 10 -4 14 -4 10 0 -12 12 43 63 61 57 11 -5 14 -2 9 10 -4 11 -1
17 9 17 8 0 12 4 9 10 -3 5 0 7 8 4 9 -3 23 6 35 21 12 15 26 24 32 20 6 -4
10 -3 9 2 -4 21 2 34 13 27 7 -5 9 -2 5 9 -4 12 -1 15 14 12 18 -4 19 -2 7 12
-9 12 -9 15 0 9 6 -4 12 -3 12 3 0 5 9 13 20 16 11 3 20 13 20 20 0 10 6 12
18 8 15 -6 16 -5 2 12 -9 11 -10 16 -2 11 6 -4 12 -2 12 3 0 6 7 11 16 11 8 0
13 4 10 9 -3 5 2 15 11 22 14 12 16 12 8 0 -5 -9 -4 -12 3 -7 6 4 8 14 5 23
-4 11 -3 14 5 9 7 -4 12 -2 12 4 0 6 5 8 13 4 7 -5 6 0 -3 11 -9 11 -10 16 -2
11 7 -4 12 -2 12 4 0 6 5 8 12 4 8 -5 9 -2 5 9 -4 10 -1 17 6 17 17 0 51 40
34 41 -6 0 -1 5 12 10 15 6 21 15 17 24 -3 9 0 15 9 15 8 0 15 7 15 16 0 8 5
12 10 9 6 -3 10 3 10 15 0 12 5 18 10 15 6 -3 10 -1 10 5 0 6 4 8 10 5 6 -4 7
1 3 11 -4 11 -3 15 5 10 13 -8 35 27 24 39 -4 5 0 6 8 3 14 -5 34 8 38 25 1 4
8 14 16 22 11 11 16 12 19 2 3 -7 6 -5 6 6 1 9 8 17 17 17 8 0 12 5 9 10 -3 6
-1 10 5 10 6 0 8 4 5 10 -3 6 1 7 9 4 11 -4 16 0 16 11 0 9 5 13 10 10 6 -3
10 -1 10 5 0 6 5 8 10 5 6 -3 10 -1 10 5 0 7 7 10 14 7 10 -4 13 -1 9 9 -4 10
2 17 16 21 11 3 18 9 15 14 -3 5 0 9 5 9 6 0 11 -4 11 -8 0 -5 7 -9 15 -9 11
0 12 4 4 14 -9 10 -5 14 20 19 17 4 31 13 31 20 0 8 6 11 17 7 13 -5 15 -3 9
13 -5 14 -4 16 4 8 9 -9 18 -6 37 12 14 13 29 21 34 19 4 -3 11 0 14 6 4 5 13
8 21 5 8 -3 14 0 14 5 0 7 11 9 24 7 17 -4 23 -1 19 9 -3 8 2 13 17 13 11 0
19 4 16 9 -3 4 2 8 12 8 42 0 53 3 46 15 -4 6 -3 8 3 5 5 -3 21 0 36 8 15 8
27 11 27 8 0 -3 6 -1 13 6 10 8 17 7 25 -1 9 -9 12 -7 12 7 0 11 4 16 8 10 10
-14 35 -18 27 -5 -4 6 -1 11 6 9 28 -3 40 1 33 13 -5 7 -3 8 7 2 17 -11 89
-12 82 -1 -7 12 22 8 37 -5 12 -11 12 -10 2 4 -9 11 -10 18 -2 23 5 3 10 2 10
-3 0 -5 7 -9 15 -9 8 0 15 5 15 11 0 7 3 7 8 1 9 -13 32 -18 32 -7 0 5 7 9 15
9 8 0 15 -5 15 -11 0 -5 7 -1 16 10 8 10 13 14 10 8 -3 -7 1 -14 9 -18 8 -3
15 -2 15 3 0 5 11 9 25 9 15 0 22 -5 18 -12 -3 -6 -1 -6 7 1 10 9 17 10 27 2
10 -9 13 -8 13 1 0 9 4 9 17 -1 15 -12 16 -12 8 1 -8 13 -7 13 8 1 14 -11 17
-11 17 0 0 12 2 12 9 0 6 -9 11 -10 15 -2 4 6 12 9 17 5 6 -3 5 -12 -3 -22
-12 -16 -11 -16 7 -1 11 9 27 20 35 24 13 8 13 6 2 -7 -11 -14 -10 -16 9 -11
16 5 20 3 14 -6 -6 -10 -3 -11 13 -2 14 8 23 8 27 1 4 -6 15 -8 26 -5 26 9 61
-4 52 -18 -4 -7 1 -6 10 2 11 9 17 10 17 2 0 -13 22 -10 32 4 5 6 8 5 8 -3 0
-7 4 -10 10 -7 6 4 7 -1 3 -11 -5 -14 -3 -15 13 -6 15 8 25 6 44 -9 14 -10 35
-19 47 -19 12 0 25 -5 28 -11 4 -6 13 -8 20 -5 7 2 16 -2 19 -10 3 -8 11 -14
18 -14 9 0 8 3 -2 10 -8 5 -10 10 -4 10 15 0 36 -25 27 -33 -3 -4 -2 -7 3 -7
6 0 15 5 22 12 9 9 12 8 12 -5 0 -11 5 -14 17 -10 11 4 14 3 9 -5 -6 -11 5
-17 27 -13 4 0 7 -4 7 -10 0 -6 7 -9 14 -6 11 4 13 1 9 -10 -4 -11 -3 -14 5
-9 7 4 15 0 18 -9 5 -13 9 -13 22 -3 9 7 13 9 10 3 -3 -5 0 -15 7 -22 8 -7 15
-9 17 -5 2 4 14 -4 28 -17 14 -13 18 -21 10 -16 -11 6 -12 5 -5 -3 6 -7 23
-13 37 -14 15 -1 24 -6 21 -11 -3 -5 4 -17 16 -28 14 -13 21 -15 21 -7 0 9 3
9 9 -2 6 -8 8 -17 5 -21 -5 -9 25 -21 37 -13 5 3 9 2 8 -3 -4 -15 13 -43 22
-37 5 3 9 -2 9 -11 0 -9 5 -13 10 -10 6 3 10 -1 10 -9 0 -14 12 -20 33 -17 7
1 11 -16 7 -34 -1 -5 1 -7 5 -3 4 4 12 2 19 -3 39 -32 67 -60 68 -66 2 -5 8
-7 15 -5 7 2 13 -2 13 -8 0 -6 5 -8 10 -5 6 3 10 -1 10 -10 0 -9 4 -13 10 -10
5 3 10 1 10 -5 0 -6 4 -8 10 -5 5 3 10 -1 10 -9 0 -10 6 -13 17 -9 11 4 14 3
9 -5 -6 -11 5 -17 27 -13 4 0 7 -6 7 -14 0 -9 6 -12 17 -8 12 5 15 2 10 -10
-4 -11 -2 -14 9 -10 7 3 14 0 14 -7 0 -6 4 -9 9 -5 5 3 12 1 16 -5 4 -6 10 -8
15 -5 5 3 12 0 16 -6 4 -8 3 -9 -4 -5 -7 4 -12 5 -12 2 0 -3 10 -10 21 -17 17
-9 20 -8 14 3 -3 7 1 4 9 -6 9 -11 16 -16 16 -11 0 5 7 0 16 -11 8 -10 12 -12
8 -4 -5 10 0 9 14 -4 12 -11 22 -15 22 -10 0 5 10 -2 21 -16 11 -14 18 -19 14
-12 -3 6 -2 12 3 12 6 0 12 -7 16 -15 3 -8 12 -12 19 -9 8 3 22 -2 31 -11 9
-9 26 -15 38 -13 17 2 23 -2 22 -15 -2 -15 1 -16 14 -5 14 11 15 10 8 -7 -6
-16 -5 -18 5 -8 17 17 32 17 23 1 -5 -8 0 -7 11 2 17 14 18 13 12 -2 -4 -12
-2 -15 8 -12 8 3 21 -1 30 -10 9 -8 23 -12 32 -9 9 4 19 -1 25 -11 7 -13 13
-14 23 -6 9 8 15 8 20 0 3 -6 18 -7 33 -3 23 5 25 4 15 -8 -10 -12 -8 -15 7
-15 10 0 16 5 12 11 -3 5 2 4 11 -4 9 -7 17 -10 17 -5 0 5 5 2 10 -6 9 -13 10
-13 10 0 0 13 2 13 9 1 8 -13 12 -13 27 0 10 8 15 9 11 3 -4 -7 0 -17 8 -24
13 -11 14 -10 8 6 -6 17 -5 17 10 5 10 -8 20 -11 24 -7 3 3 17 -1 29 -9 22
-14 23 -14 17 2 -6 16 -5 16 10 4 9 -7 24 -11 32 -7 10 4 14 2 9 -5 -4 -7 0
-9 14 -5 11 4 23 2 27 -4 3 -6 10 -8 14 -6 15 10 61 14 56 6 -8 -12 58 -7 67
5 5 6 8 6 8 -1 0 -7 7 -15 16 -18 8 -3 13 -2 10 3 -3 5 3 11 14 14 11 3 22 1
25 -3 3 -5 13 -7 23 -5 9 1 23 -3 31 -9 11 -8 13 -8 8 1 -4 6 -3 14 3 18 5 3
10 1 10 -6 0 -10 3 -10 12 -1 7 7 17 8 29 2 12 -7 20 -6 24 0 4 7 12 7 18 2
17 -12 36 -9 47 8 8 12 10 12 10 1 0 -8 3 -11 7 -8 3 4 13 1 22 -5 13 -10 14
-10 4 2 -17 19 -16 35 1 21 10 -9 61 -9 61 -1 0 1 12 3 26 4 14 0 34 8 45 16
17 14 18 14 6 -2 -11 -14 -11 -16 7 -11 12 3 21 10 21 17 0 6 5 4 10 -4 6 -10
10 -11 10 -3 0 8 11 11 30 9 16 -2 28 1 27 7 -1 5 4 12 12 15 9 3 11 0 6 -8
-4 -7 5 -4 21 6 15 11 25 14 22 9 -4 -6 2 -11 12 -11 13 0 16 4 9 12 -6 8 1
11 26 9 24 -1 39 4 45 14 8 14 9 14 10 1 0 -12 3 -11 11 3 8 14 14 16 24 7 11
-9 13 -8 10 8 -3 15 1 19 16 15 10 -3 25 0 33 6 11 9 15 9 19 -1 3 -8 6 -6 6
5 1 10 6 15 11 12 6 -3 10 -1 10 4 0 6 5 11 11 11 5 0 7 -5 4 -11 -4 -6 2 -5
13 2 12 7 19 16 16 20 -2 5 5 6 16 4 11 -2 20 1 20 7 0 5 7 7 16 4 8 -3 12 -2
9 4 -3 6 4 10 15 10 16 0 20 4 16 16 -6 15 -4 15 11 3 15 -12 16 -12 10 4 -6
15 -4 16 15 6 18 -10 20 -9 14 6 -6 16 -4 16 11 4 9 -8 14 -9 10 -3 -4 7 1 18
10 25 10 8 14 9 10 2 -4 -6 -2 -15 4 -19 7 -4 9 -3 6 3 -9 15 19 36 35 27 8
-5 8 -1 -2 11 -14 17 -13 18 2 12 10 -3 24 0 32 8 7 8 17 11 21 7 5 -4 5 1 2
10 -4 11 -2 15 7 12 7 -3 16 2 20 11 3 10 13 15 21 12 8 -4 23 5 35 21 12 15
19 21 15 15 -3 -7 -1 -13 4 -13 6 0 11 7 11 15 0 17 34 37 46 27 5 -4 2 2 -6
12 -14 18 -14 19 8 7 12 -6 22 -8 21 -4 -3 20 2 33 14 31 6 -2 11 3 9 10 -1 6
7 12 18 12 11 0 19 3 19 8 -3 19 2 25 11 12 6 -10 10 -11 10 -2 0 16 37 52 45
44 3 -4 3 2 -1 11 -4 12 -2 17 7 15 8 -2 13 3 11 11 -2 11 0 12 11 3 12 -10
14 -8 12 12 -2 15 2 23 10 22 8 0 14 3 14 7 0 5 7 14 17 21 11 9 14 18 9 27
-8 12 -6 12 8 0 12 -9 17 -10 17 -2 0 7 5 9 13 5 8 -5 8 -2 -2 9 -12 15 -11
17 3 17 9 0 16 7 16 16 0 8 5 12 10 9 9 -6 14 8 11 28 -1 5 2 6 6 4 5 -3 14 1
21 9 7 8 9 14 5 14 -4 0 0 5 10 11 9 5 17 17 17 24 0 8 6 15 14 15 10 0 13 7
11 20 -2 11 0 18 4 15 5 -3 12 2 15 11 3 9 11 12 18 8 9 -6 9 -3 -1 9 -11 14
-11 18 3 23 10 4 15 13 12 21 -3 8 -2 11 3 8 12 -7 42 35 35 47 -3 4 2 8 10 8
9 0 16 9 16 21 0 11 4 17 10 14 6 -4 7 1 3 11 -5 13 -3 15 7 9 9 -6 11 -4 5 4
-9 15 14 63 26 55 5 -3 6 2 3 11 -4 8 2 23 13 33 10 9 13 13 6 8 -10 -6 -12
-4 -7 8 3 9 11 16 16 16 6 0 7 7 4 16 -3 8 -2 13 3 10 5 -3 12 1 15 10 3 8 2
13 -2 10 -5 -3 -9 1 -9 9 0 8 5 11 10 8 7 -4 8 1 3 12 -5 14 -4 16 7 6 12 -9
13 -7 9 14 -2 14 0 25 6 25 6 0 9 11 7 25 -2 22 0 23 13 13 13 -12 14 -10 3
11 -8 15 -9 21 -2 17 7 -5 11 4 11 23 0 17 4 31 9 31 5 0 8 11 6 25 -1 17 3
25 14 25 13 0 13 2 2 9 -11 7 -10 10 4 18 12 7 14 12 6 17 -8 5 -8 13 -1 27 6
10 7 19 3 19 -4 0 1 6 12 13 12 9 14 16 7 21 -7 4 -8 15 -2 30 5 13 6 27 3 30
-4 3 -2 6 4 6 5 0 10 16 11 35 1 25 -2 34 -11 30 -7 -4 -1 3 13 15 14 12 19
19 13 15 -7 -3 -13 -1 -13 4 0 6 5 11 12 11 6 0 4 6 -7 13 -14 11 -15 16 -5
22 9 6 11 4 5 -6 -5 -8 -4 -11 0 -6 15 13 17 49 3 41 -10 -6 -10 -4 -2 7 5 8
10 21 9 29 -1 8 3 23 8 34 6 12 5 16 -1 12 -5 -3 -13 1 -16 10 -3 8 -2 13 3
10 5 -4 9 45 9 109 0 63 -3 113 -7 110 -4 -2 -8 2 -8 10 0 8 4 12 7 10 4 -3 8
6 8 20 0 16 -5 22 -12 18 -6 -4 -5 1 3 10 11 14 11 17 0 17 -11 0 -11 2 1 10
8 5 10 10 4 10 -7 0 -14 9 -17 21 -4 16 -2 19 10 15 14 -6 14 -4 2 10 -8 10
-13 26 -11 37 2 10 0 17 -6 14 -5 -4 -9 0 -9 8 0 8 3 12 7 10 4 -2 7 2 7 10 0
8 -5 11 -10 8 -6 -4 -8 0 -4 10 3 10 2 17 -3 17 -6 0 -10 5 -10 11 0 5 5 7 11
3 7 -4 7 1 -1 16 -6 12 -9 24 -6 27 3 3 -4 20 -16 37 -12 17 -15 25 -8 19 8
-7 18 -13 24 -13 5 0 0 8 -10 18 -10 9 -20 25 -21 35 -2 9 -4 25 -5 35 -2 9
-8 20 -14 24 -6 4 -10 21 -8 38 2 16 0 30 -4 30 -9 0 -32 58 -32 80 0 7 -8 19
-17 27 -10 8 -12 12 -6 8 9 -4 11 -1 7 9 -3 9 -11 16 -16 16 -6 0 -8 9 -5 20
3 12 0 20 -8 20 -7 0 -16 7 -19 16 -4 10 -2 13 7 8 8 -5 7 -2 -2 9 -7 9 -10
17 -6 17 4 0 2 7 -5 15 -7 8 -17 12 -24 8 -8 -5 -8 -3 0 8 9 11 9 17 -1 26 -7
6 -16 9 -21 5 -4 -4 -4 -2 0 5 7 14 -13 63 -27 63 -5 0 -6 7 -3 16 3 8 2 12
-4 9 -6 -3 -10 1 -10 10 0 11 -5 15 -14 12 -10 -4 -13 -1 -9 9 3 7 0 14 -7 14
-10 0 -10 3 0 15 10 12 9 15 -8 15 -11 0 -23 7 -26 16 -4 10 -2 13 7 9 6 -4 4
0 -7 9 -10 8 -15 20 -11 26 4 7 -2 14 -14 17 -19 5 -25 15 -22 36 0 4 -2 6 -6
6 -23 -4 -35 3 -30 15 4 9 -2 17 -14 21 -10 4 -19 15 -19 26 0 11 -7 19 -16
19 -8 0 -13 4 -9 10 3 5 -7 17 -22 27 -30 19 -44 34 -38 43 1 3 -3 11 -11 18
-8 7 -14 10 -14 7 0 -3 -6 0 -14 7 -8 7 -11 17 -8 22 3 5 -3 6 -12 3 -14 -5
-17 -3 -12 8 3 9 0 15 -9 15 -8 0 -15 5 -15 11 0 5 -4 7 -10 4 -5 -3 -10 1
-10 9 0 8 -9 18 -20 21 -11 3 -20 13 -20 21 0 8 -4 13 -9 9 -13 -7 -43 24 -35
37 4 6 -2 5 -15 -1 -12 -7 -21 -8 -20 -4 3 20 -3 29 -31 41 -17 8 -28 18 -24
23 4 7 -10 13 -18 7 -2 -1 -16 10 -32 25 -16 15 -32 24 -37 21 -5 -3 -9 0 -9
6 0 7 -7 10 -14 7 -10 -4 -13 -1 -9 9 5 12 -7 19 -29 15 -5 0 -8 4 -8 10 0 6
-7 9 -15 5 -13 -5 -19 5 -16 26 0 4 -6 5 -14 2 -8 -3 -22 2 -31 11 -9 9 -23
14 -31 11 -8 -3 -11 -1 -8 4 5 9 -9 15 -18 8 -2 -2 -12 5 -22 15 -9 10 -24 16
-31 13 -8 -3 -20 3 -26 14 -9 14 -16 16 -25 8 -10 -8 -13 -6 -13 5 0 10 -7 15
-20 12 -11 -2 -23 1 -26 7 -5 7 -2 8 6 3 9 -5 11 -4 6 4 -4 6 -11 9 -16 6 -5
-3 -25 1 -44 9 -19 8 -37 12 -40 8 -3 -3 -6 0 -6 8 0 10 -4 10 -17 -1 -9 -8
-14 -9 -11 -4 3 6 0 15 -7 22 -11 10 -15 10 -18 0 -4 -9 -6 -9 -6 1 -1 6 -6
12 -12 12 -5 0 -7 -5 -4 -11 4 -6 -2 -5 -14 3 -12 7 -21 17 -21 23 0 5 -5 3
-10 -5 -9 -13 -10 -13 -10 0 0 13 -1 13 -10 0 -6 -10 -10 -11 -10 -2 0 6 -9
12 -20 12 -11 0 -20 4 -20 9 0 4 -11 7 -25 6 -14 -2 -28 1 -31 6 -3 6 -12 5
-22 -3 -12 -10 -14 -10 -8 0 4 6 2 13 -3 13 -6 1 -17 2 -23 3 -7 1 -19 -3 -27
-8 -11 -8 -13 -8 -8 1 6 9 -2 11 -28 9 -24 -2 -35 2 -35 11 0 8 -5 11 -10 8
-6 -4 -8 -11 -5 -16 3 -5 -1 -6 -9 -3 -9 3 -13 11 -9 18 4 6 -1 5 -10 -3 -11
-9 -17 -10 -17 -2 0 6 -5 11 -11 11 -5 0 -8 -4 -5 -8 3 -5 -2 -9 -10 -9 -8 0
-13 6 -10 13 3 8 0 11 -9 7 -8 -3 -12 -10 -8 -17 4 -6 -1 -5 -10 3 -9 7 -26
11 -36 8 -11 -3 -22 0 -25 7 -3 8 -5 8 -5 0 -1 -13 -49 -7 -68 8 -8 7 -10 3
-6 -14 3 -14 1 -18 -4 -11 -9 13 -210 12 -231 -1 -7 -4 -20 -2 -29 6 -14 11
-16 11 -11 -3 5 -14 1 -16 -27 -12 -18 2 -36 0 -39 -6 -4 -6 -14 -7 -23 -4 -9
4 -22 -1 -31 -13 -12 -16 -14 -16 -9 -1 4 9 2 17 -3 17 -6 0 -10 -4 -10 -10 0
-5 -15 -8 -34 -6 -26 2 -33 -1 -28 -13 3 -9 1 -12 -7 -7 -6 4 -19 2 -28 -6
-14 -11 -16 -11 -9 1 6 9 5 12 -5 9 -8 -3 -13 -12 -11 -19 2 -9 -3 -8 -16 4
-21 19 -34 14 -25 -10 5 -13 2 -13 -14 -5 -14 8 -23 8 -31 0 -6 -6 -22 -12
-34 -13 -13 -1 -22 -8 -21 -14 4 -14 -14 -15 -22 0 -5 7 -14 4 -26 -7 -10 -9
-19 -14 -19 -10 0 4 -7 0 -16 -8 -8 -9 -19 -14 -24 -11 -4 3 -10 -1 -13 -9 -4
-9 -18 -13 -36 -12 -16 1 -28 -2 -25 -6 3 -4 0 -8 -6 -8 -6 0 -9 -4 -6 -9 4
-5 -4 -7 -16 -3 -14 3 -19 1 -14 -6 4 -7 -1 -10 -14 -7 -11 2 -20 0 -20 -6 0
-5 -7 -9 -16 -9 -8 0 -13 -4 -10 -9 3 -5 -2 -8 -12 -7 -9 0 -16 -4 -15 -10 1
-7 -6 -10 -17 -7 -12 3 -22 -1 -26 -11 -3 -9 -11 -13 -17 -9 -6 4 -8 0 -4 -11
5 -14 3 -15 -12 -6 -15 8 -22 5 -36 -16 -10 -15 -22 -23 -31 -20 -9 3 -14 -1
-14 -11 0 -9 -3 -13 -7 -10 -3 4 -12 -1 -20 -11 -8 -9 -11 -11 -7 -3 5 9 3 12
-4 7 -7 -4 -12 -14 -12 -22 0 -8 -4 -13 -10 -9 -5 3 -18 -3 -29 -14 -11 -11
-22 -17 -25 -13 -3 3 -6 -2 -6 -11 0 -10 -8 -17 -20 -17 -11 0 -19 -3 -19 -7
3 -19 -2 -27 -10 -15 -6 10 -12 4 -24 -20 -9 -18 -17 -27 -17 -21 0 9 -6 7
-19 -4 -11 -9 -18 -20 -16 -24 3 -4 -7 -10 -21 -13 -22 -6 -24 -9 -12 -23 7
-10 8 -14 1 -10 -18 11 -42 -3 -36 -20 4 -10 2 -14 -4 -10 -6 4 -14 0 -17 -9
-3 -8 -10 -13 -15 -9 -5 3 -13 -4 -16 -15 -5 -17 -10 -19 -20 -10 -11 10 -13
8 -10 -9 2 -12 0 -19 -6 -16 -5 4 -9 1 -9 -5 0 -6 -4 -8 -10 -5 -5 3 -10 1
-10 -4 0 -6 -6 -11 -14 -11 -8 0 -17 -7 -20 -16 -3 -8 -10 -12 -16 -9 -5 3
-10 -1 -10 -10 0 -9 -4 -14 -9 -11 -5 3 -11 -1 -15 -9 -3 -8 -11 -15 -19 -15
-7 0 -23 -9 -35 -20 -12 -12 -22 -16 -22 -10 0 5 -9 2 -19 -7 -11 -9 -18 -21
-15 -27 3 -6 -2 -2 -12 9 -14 17 -16 17 -11 3 6 -18 -3 -23 -32 -18 -13 2 -13
0 0 -16 13 -16 12 -16 -8 -5 -16 8 -23 8 -23 1 0 -6 -5 -8 -12 -4 -8 5 -9 2
-4 -11 5 -15 4 -16 -9 -5 -14 12 -20 7 -16 -14 1 -5 -5 -3 -14 4 -8 7 -18 10
-22 6 -3 -3 0 -6 8 -6 12 0 12 -2 0 -9 -7 -5 -28 -8 -47 -7 -25 1 -30 -2 -22
-12 8 -10 7 -11 -7 -6 -14 6 -16 4 -10 -7 6 -11 5 -11 -5 -2 -10 9 -16 8 -28
-3 -8 -8 -21 -13 -28 -10 -8 3 -14 2 -14 -2 0 -4 -15 -7 -33 -8 -43 -1 -60 -6
-73 -23 -8 -10 -13 -11 -18 -3 -4 7 -12 12 -17 12 -6 0 -7 -6 -3 -12 5 -9 2
-9 -9 1 -15 12 -20 9 -19 -9 0 -3 -32 -4 -71 -4 -40 1 -77 -3 -84 -8 -7 -6
-14 -5 -18 3 -6 8 -10 7 -16 -2 -7 -12 -9 -12 -9 0 0 11 -3 11 -17 0 -11 -10
-14 -10 -9 -1 9 15 -6 16 -22 0 -9 -9 -12 -9 -12 1 0 11 -3 11 -17 0 -10 -8
-14 -9 -10 -2 9 14 -32 14 -51 0 -7 -6 -12 -6 -11 -1 4 21 -2 28 -12 14 -8
-11 -12 -12 -16 -2 -2 6 -9 12 -14 12 -6 0 -8 -3 -6 -7 3 -5 -5 -8 -18 -8 -15
0 -20 4 -15 10 6 7 2 11 -10 11 -10 0 -17 -3 -14 -7 6 -10 -24 -5 -33 6 -4 4
-2 5 6 0 9 -5 12 -4 8 2 -3 5 -20 8 -38 5 -18 -3 -29 -1 -26 5 3 5 -3 9 -13 9
-10 0 -16 -4 -14 -8 3 -4 0 -8 -5 -8 -6 0 -11 8 -11 18 0 14 -2 15 -10 2 -6
-10 -10 -11 -10 -2 0 6 -5 12 -11 12 -5 0 -7 -4 -4 -10 3 -6 -1 -7 -9 -4 -9 3
-16 10 -16 15 0 5 -13 9 -29 9 -16 0 -31 4 -33 9 -1 6 -15 11 -30 13 -15 2
-30 7 -34 11 -4 4 -16 7 -26 7 -10 0 -18 4 -18 8 0 5 -6 9 -12 10 -32 3 -50
10 -59 23 -5 8 -9 10 -9 5 0 -6 -7 -1 -16 10 -8 10 -13 13 -9 7 4 -9 1 -11 -9
-7 -9 3 -16 14 -16 23 0 12 -2 13 -9 3 -6 -11 -10 -10 -15 3 -3 10 -12 15 -21
11 -9 -3 -15 0 -15 9 0 8 -8 12 -20 10 -13 -3 -20 2 -20 12 0 10 -6 14 -20 10
-12 -3 -17 -1 -14 5 3 5 -3 12 -15 15 -11 3 -19 9 -16 13 3 4 -2 11 -11 14
-10 4 -13 2 -8 -6 4 -7 3 -8 -4 -4 -7 4 -12 14 -12 22 0 8 -4 12 -10 9 -5 -3
-10 -1 -10 4 0 6 -7 11 -16 11 -8 0 -13 4 -9 9 5 9 -32 27 -47 23 -4 -1 -5 5
-2 13 4 8 1 15 -6 15 -16 0 -61 36 -53 43 3 4 -2 9 -11 13 -9 3 -16 13 -16 21
0 8 -4 11 -10 8 -6 -3 -10 -1 -10 5 0 6 -4 8 -10 5 -5 -3 -10 0 -10 7 0 7 -9
19 -21 26 -17 11 -18 16 -8 28 10 12 9 13 -6 8 -13 -5 -16 -4 -11 5 4 6 3 10
-3 9 -6 -2 -22 15 -34 37 -13 22 -28 40 -33 39 -5 -1 -17 7 -26 17 -20 21 -10
26 12 7 12 -11 12 -10 1 5 -7 9 -20 17 -28 17 -8 0 -11 5 -8 10 3 6 1 10 -5
10 -6 0 -8 5 -5 10 3 6 -4 10 -15 10 -16 0 -20 5 -16 15 5 13 -5 19 -26 16 -4
0 -5 6 -2 14 4 9 0 15 -10 15 -14 0 -20 12 -17 33 0 4 -8 7 -19 7 -11 0 -19 5
-18 12 2 6 -7 17 -19 23 -13 7 -20 15 -15 20 4 4 -2 5 -12 1 -17 -6 -17 -5 -5
11 12 14 12 16 0 8 -11 -6 -13 -4 -8 9 4 9 3 15 -2 11 -14 -8 -41 6 -41 22 0
8 -4 11 -10 8 -6 -3 -10 2 -10 11 0 10 -3 15 -6 11 -9 -8 -33 16 -26 27 3 5
-1 6 -8 1 -8 -5 -24 5 -46 29 -18 20 -36 36 -40 36 -4 0 -13 8 -21 18 -9 11
-12 12 -8 2 4 -8 -3 -3 -16 12 -13 14 -34 29 -46 33 -13 3 -22 12 -20 18 1 7
-8 11 -20 11 -15 -1 -20 3 -15 14 3 10 1 13 -6 8 -6 -3 -15 2 -21 11 -6 10
-11 14 -11 10 0 -5 -7 -1 -16 7 -8 9 -20 14 -25 11 -5 -4 -9 2 -9 11 0 10 -3
14 -7 11 -3 -4 -12 1 -20 11 -12 16 -13 15 -6 -3 5 -14 -2 -10 -25 13 -18 18
-32 27 -32 20 0 -6 -6 -3 -14 8 -8 10 -18 16 -22 12 -10 -11 -35 12 -27 25 3
6 1 7 -5 3 -7 -4 -12 -2 -12 3 0 6 -9 11 -21 11 -11 0 -27 7 -36 16 -9 8 -22
13 -29 10 -7 -3 -16 0 -20 6 -5 7 -2 8 6 3 8 -5 11 -4 6 3 -4 6 -13 9 -21 5
-8 -3 -15 0 -15 7 0 6 -4 8 -10 5 -5 -3 -10 0 -10 7 0 9 -3 9 -10 -2 -8 -13
-10 -12 -10 4 0 12 -5 16 -15 12 -8 -3 -14 -2 -14 2 3 18 -2 26 -9 14 -6 -9
-14 -7 -30 8 -12 12 -22 16 -22 10 0 -7 -7 -4 -16 4 -21 21 -30 20 -13 -1 8
-9 -4 -4 -25 12 -22 17 -37 24 -32 18 5 -9 2 -11 -8 -7 -9 3 -16 10 -16 16 0
5 -4 6 -10 3 -5 -3 -10 -1 -10 4 0 6 -5 11 -11 11 -5 0 -7 -4 -4 -10 3 -6 -1
-7 -9 -4 -9 3 -16 11 -16 17 0 6 -3 7 -7 4 -3 -4 -13 -1 -21 6 -13 9 -14 9 -8
0 5 -9 2 -11 -8 -7 -9 3 -16 14 -17 23 0 10 -2 11 -6 4 -5 -15 -33 -18 -33 -4
0 6 -9 8 -20 6 -11 -2 -20 0 -20 6 0 5 -8 9 -18 9 -10 0 -24 6 -31 13 -10 8
-12 8 -7 0 4 -7 -1 -11 -13 -10 -11 0 -17 5 -14 11 4 5 -3 7 -15 4 -13 -4 -20
-2 -16 3 3 6 -5 8 -20 5 -13 -2 -26 0 -28 5 -2 6 -23 10 -48 11 -25 1 -51 6
-59 12 -11 8 -13 8 -8 0 3 -6 0 -11 -8 -11 -8 0 -12 4 -10 8 3 3 -4 9 -15 12
-11 3 -18 1 -14 -4 3 -5 0 -9 -5 -9 -6 0 -11 5 -11 11 0 5 -4 7 -10 4 -5 -3
-10 0 -10 7 0 10 -3 9 -9 -2 -6 -8 -7 -18 -4 -24 3 -5 1 -6 -6 -2 -6 4 -9 11
-6 16 8 13 -30 18 -50 7 -14 -8 -17 -7 -13 5 4 8 0 15 -8 15 -7 0 -11 -3 -9
-7 6 -9 -62 -6 -71 3 -4 4 -14 1 -22 -6 -13 -9 -14 -9 -8 1 4 6 3 12 -3 12 -5
0 -12 -6 -14 -12 -3 -7 -6 -4 -7 7 -1 19 -1 19 -11 2 -10 -18 -11 -18 -32 0
-19 17 -20 17 -14 0 5 -14 3 -16 -11 -9 -9 5 -23 7 -29 5 -7 -3 -13 1 -13 9 0
11 -2 11 -9 0 -4 -8 -12 -14 -16 -14 -4 0 -12 6 -16 14 -6 9 -9 9 -9 1 0 -8
-13 -11 -35 -9 -21 3 -35 -1 -35 -8 0 -6 -5 -4 -10 4 -5 8 -10 11 -10 5 0 -5
-5 -3 -10 5 -8 12 -10 12 -10 -5 0 -17 -2 -17 -10 -5 -8 12 -10 12 -10 1 0
-11 -4 -11 -23 2 -18 12 -26 12 -40 2z m23 -11 c0 -8 -5 -12 -10 -9 -6 4 -8
11 -5 16 9 14 15 11 15 -7z m-1175 -374 c-3 -5 -12 -10 -18 -10 -7 0 -6 4 3
10 19 12 23 12 15 0z m7875 -4270 c0 -5 -2 -10 -4 -10 -3 0 -8 5 -11 10 -3 6
-1 10 4 10 6 0 11 -4 11 -10z m-7340 -610 c0 -5 -2 -10 -4 -10 -3 0 -8 5 -11
10 -3 6 -1 10 4 10 6 0 11 -4 11 -10z"/>
<path d="M839 7413 c-13 -16 -12 -17 4 -4 16 13 21 21 13 21 -2 0 -10 -8 -17
-17z"/>
<path d="M5459 4303 c-13 -16 -12 -17 4 -4 16 13 21 21 13 21 -2 0 -10 -8 -17
-17z"/>
<path d="M4504 3428 l-19 -23 23 19 c21 18 27 26 19 26 -2 0 -12 -10 -23 -22z"/>
<path d="M1863 2985 c0 -8 4 -12 9 -9 5 3 6 10 3 15 -9 13 -12 11 -12 -6z"/>
</g>
</svg>
