<svg width="467" height="720" viewBox="0 0 467 720" fill="none" xmlns="http://www.w3.org/2000/svg">
<g opacity="0.3">
<path d="M102.495 92.6003C106.684 92.6003 110.08 89.1976 110.08 85.0002C110.08 80.8029 106.684 77.4004 102.495 77.4004C98.306 77.4004 94.9102 80.8029 94.9102 85.0002C94.9102 89.1976 98.306 92.6003 102.495 92.6003Z" fill="#5BA0FE"/>
<path d="M275.846 187.1C278.987 187.1 281.534 184.548 281.534 181.4C281.534 178.252 278.987 175.7 275.846 175.7C272.704 175.7 270.157 178.252 270.157 181.4C270.157 184.548 272.704 187.1 275.846 187.1Z" fill="#5BA0FE"/>
<path d="M308.48 656C312.945 656 316.564 652.373 316.564 647.9C316.564 643.426 312.945 639.8 308.48 639.8C304.016 639.8 300.396 643.426 300.396 647.9C300.396 652.373 304.016 656 308.48 656Z" fill="#5BA0FE"/>
<path d="M266.764 371.1C270.016 371.1 272.652 368.458 272.652 365.2C272.652 361.941 270.016 359.3 266.764 359.3C263.512 359.3 260.876 361.941 260.876 365.2C260.876 368.458 263.512 371.1 266.764 371.1Z" fill="#5BA0FE"/>
<path d="M274.748 133.7C275.685 133.7 276.445 132.939 276.445 132C276.445 131.061 275.685 130.3 274.748 130.3C273.811 130.3 273.052 131.061 273.052 132C273.052 132.939 273.811 133.7 274.748 133.7Z" fill="#5BA0FE"/>
<path d="M169.959 664C174.809 664 178.741 660.061 178.741 655.2C178.741 650.34 174.809 646.4 169.959 646.4C165.109 646.4 161.177 650.34 161.177 655.2C161.177 660.061 165.109 664 169.959 664Z" fill="#5BA0FE"/>
<path d="M279.139 209.8C282.942 209.8 286.025 206.711 286.025 202.9C286.025 199.089 282.942 196 279.139 196C275.336 196 272.253 199.089 272.253 202.9C272.253 206.711 275.336 209.8 279.139 209.8Z" fill="#5BA0FE"/>
<path d="M229.24 621.9C230.949 621.9 232.334 620.512 232.334 618.8C232.334 617.088 230.949 615.7 229.24 615.7C227.532 615.7 226.146 617.088 226.146 618.8C226.146 620.512 227.532 621.9 229.24 621.9Z" fill="#5BA0FE"/>
<path d="M310.775 333.8C316.397 333.8 320.955 329.234 320.955 323.6C320.955 317.967 316.397 313.4 310.775 313.4C305.153 313.4 300.596 317.967 300.596 323.6C300.596 329.234 305.153 333.8 310.775 333.8Z" fill="#5BA0FE"/>
<path d="M158.183 339.1C163.75 339.1 168.263 334.578 168.263 329C168.263 323.422 163.75 318.9 158.183 318.9C152.616 318.9 148.104 323.422 148.104 329C148.104 334.578 152.616 339.1 158.183 339.1Z" fill="#5BA0FE"/>
<path d="M308.081 321.5C312.105 321.5 315.367 318.232 315.367 314.2C315.367 310.169 312.105 306.9 308.081 306.9C304.058 306.9 300.796 310.169 300.796 314.2C300.796 318.232 304.058 321.5 308.081 321.5Z" fill="#5BA0FE"/>
<path d="M104.99 150.2C109.234 150.2 112.675 146.752 112.675 142.5C112.675 138.247 109.234 134.8 104.99 134.8C100.746 134.8 97.3057 138.247 97.3057 142.5C97.3057 146.752 100.746 150.2 104.99 150.2Z" fill="#5BA0FE"/>
<path d="M317.462 118.7C320.99 118.7 323.849 115.835 323.849 112.3C323.849 108.766 320.99 105.9 317.462 105.9C313.935 105.9 311.075 108.766 311.075 112.3C311.075 115.835 313.935 118.7 317.462 118.7Z" fill="#5BA0FE"/>
<path d="M323.949 112.7C331.28 112.7 337.222 106.746 337.222 99.4001C337.222 92.0548 331.28 86.1001 323.949 86.1001C316.618 86.1001 310.676 92.0548 310.676 99.4001C310.676 106.746 316.618 112.7 323.949 112.7Z" fill="#5BA0FE"/>
<path d="M238.92 137.7C246.196 137.7 252.094 131.79 252.094 124.5C252.094 117.21 246.196 111.3 238.92 111.3C231.645 111.3 225.747 117.21 225.747 124.5C225.747 131.79 231.645 137.7 238.92 137.7Z" fill="#5BA0FE"/>
<path d="M103.294 531.2C109.302 531.2 114.172 526.32 114.172 520.3C114.172 514.28 109.302 509.4 103.294 509.4C97.2863 509.4 92.416 514.28 92.416 520.3C92.416 526.32 97.2863 531.2 103.294 531.2Z" fill="#5BA0FE"/>
<path d="M118.962 288.3L102.495 85" stroke="#5BA0FE" stroke-width="0.5023" stroke-linecap="round"/>
<path d="M118.962 288.3L275.846 181.4" stroke="#5BA0FE" stroke-width="0.3696" stroke-linecap="round"/>
<path d="M275.846 181.4L363.17 270.2" stroke="#5BA0FE" stroke-width="0.8399" stroke-linecap="round"/>
<path d="M363.169 270.2L297.701 426.5" stroke="#5BA0FE" stroke-width="0.4703" stroke-linecap="round"/>
<path d="M371.353 87.4004L275.846 181.4" stroke="#5BA0FE" stroke-width="0.7255" stroke-linecap="round"/>
<path d="M248.301 713L308.48 647.9" stroke="#5BA0FE" stroke-width="0.9405" stroke-linecap="round"/>
<path d="M248.301 713L282.133 604.7" stroke="#5BA0FE" stroke-width="0.4428" stroke-linecap="round"/>
<path d="M308.48 647.9L282.133 604.7" stroke="#5BA0FE" stroke-width="0.4977" stroke-linecap="round"/>
<path d="M437.321 473L308.48 647.9" stroke="#5BA0FE" stroke-width="0.8948" stroke-linecap="round"/>
<path d="M437.32 473L282.133 604.7" stroke="#5BA0FE" stroke-width="0.3971" stroke-linecap="round"/>
<path d="M266.764 365.2L139.321 291.6" stroke="#5BA0FE" stroke-width="0.3513" stroke-linecap="round"/>
<path d="M266.764 365.2L194.41 371" stroke="#5BA0FE" stroke-width="0.3513" stroke-linecap="round"/>
<path d="M279.139 202.9L266.764 365.2" stroke="#5BA0FE" stroke-width="0.7484" stroke-linecap="round"/>
<path d="M279.139 202.9L274.748 132" stroke="#5BA0FE" stroke-width="0.4967" stroke-linecap="round"/>
<path d="M169.959 655.2L82.5352 483.4" stroke="#5BA0FE" stroke-width="1.151" stroke-linecap="round"/>
<path d="M154.59 381.3L82.5352 483.4" stroke="#5BA0FE" stroke-width="0.6487" stroke-linecap="round"/>
<path d="M229.24 618.8L187.424 578.1" stroke="#5BA0FE" stroke-width="0.1592" stroke-linecap="round"/>
<path d="M229.24 618.8L306.584 534.4" stroke="#5BA0FE" stroke-width="0.1592" stroke-linecap="round"/>
<path d="M1 574.9L187.424 578.1" stroke="#5BA0FE" stroke-width="0.4199" stroke-linecap="round"/>
<path d="M64.2725 719.5L187.424 578.1" stroke="#5BA0FE" stroke-width="0.2415" stroke-linecap="round"/>
<path d="M310.775 323.6L158.183 329" stroke="#5BA0FE" stroke-width="0.9908" stroke-linecap="round"/>
<path d="M308.081 314.2L310.776 323.6" stroke="#5BA0FE" stroke-width="0.849" stroke-linecap="round"/>
<path d="M146.407 356.6L158.183 329" stroke="#5BA0FE" stroke-width="0.4886" stroke-linecap="round"/>
<path d="M370.555 366.7L308.081 314.2" stroke="#5BA0FE" stroke-width="0.5379" stroke-linecap="round"/>
<path d="M317.462 112.3L104.99 142.5" stroke="#5BA0FE" stroke-width="0.6523" stroke-linecap="round"/>
<path d="M410.275 310.3L269.359 340.2" stroke="#5BA0FE" stroke-width="0.081373" stroke-linecap="round"/>
<path d="M466.163 120.3L323.949 99.4004" stroke="#5BA0FE" stroke-linecap="round"/>
<path d="M238.921 124.5L323.949 99.4004" stroke="#5BA0FE" stroke-width="1.1098" stroke-linecap="round"/>
<path d="M371.953 1L323.949 99.4001" stroke="#5BA0FE" stroke-width="1.0503" stroke-linecap="round"/>
<path d="M409.477 30.6001L323.949 99.4001" stroke="#5BA0FE" stroke-width="0.8033" stroke-linecap="round"/>
<path d="M108.782 147.3L238.92 124.5" stroke="#5BA0FE" stroke-width="0.548" stroke-linecap="round"/>
<path d="M366.763 398.2L103.294 520.3" stroke="#5BA0FE" stroke-width="0.8856" stroke-linecap="round"/>
</g>
</svg>
