<svg width="24" height="25" viewBox="0 0 24 25" fill="none" xmlns="http://www.w3.org/2000/svg">
<path d="M19.3653 12.6502L14.3853 17.6502C14.2253 17.8102 14.0253 17.8902 13.8253 17.8902C13.6253 17.8902 13.4253 17.8102 13.2653 17.6502C12.9453 17.3302 12.9453 16.8302 13.2653 16.5102L16.8853 12.8702H5.20527C4.76527 12.8702 4.40527 12.5102 4.40527 12.0702C4.40527 11.6302 4.76527 11.2702 5.20527 11.2702H16.8853L13.2653 7.63025C12.9453 7.31025 12.9453 6.81024 13.2653 6.49024C13.5853 6.17024 14.0853 6.17024 14.4053 6.49024L19.3853 11.4902C19.6853 11.8302 19.6853 12.3502 19.3653 12.6502Z" fill="#0F2F64"/>
</svg>
