<svg width="165" height="158" viewBox="0 0 165 158" fill="none" xmlns="http://www.w3.org/2000/svg">
<g opacity="0.2">
<path d="M157.102 79.0772C157.102 121.982 122.27 156.765 79.3013 156.765C36.3327 156.765 1.5011 121.982 1.5011 79.0772C1.5011 36.1719 36.3327 1.38892 79.3013 1.38892C122.27 1.38892 157.102 36.1719 157.102 79.0772Z" stroke="url(#paint0_linear_101_725)" stroke-width="1.15454"/>
<path d="M157.102 79.0772C157.102 121.982 122.27 156.765 79.3013 156.765C36.3327 156.765 1.5011 121.982 1.5011 79.0772C1.5011 36.1719 36.3327 1.38892 79.3013 1.38892C122.27 1.38892 157.102 36.1719 157.102 79.0772Z" stroke="#F67939" stroke-width="1.15454"/>
<path d="M157.102 79.0772C157.102 121.982 122.27 156.765 79.3013 156.765C36.3327 156.765 1.5011 121.982 1.5011 79.0772C1.5011 36.1719 36.3327 1.38892 79.3013 1.38892C122.27 1.38892 157.102 36.1719 157.102 79.0772Z" stroke="#3F93FF" stroke-width="1.15454"/>
</g>
<g opacity="0.5">
<path d="M147.84 79.0795C147.84 116.88 117.312 147.52 79.6589 147.52C42.0055 147.52 11.4777 116.88 11.4777 79.0795C11.4777 41.2788 42.0055 10.6389 79.6589 10.6389C117.312 10.6389 147.84 41.2788 147.84 79.0795Z" stroke="url(#paint1_linear_101_725)" stroke-width="1.15454"/>
<path d="M147.84 79.0795C147.84 116.88 117.312 147.52 79.6589 147.52C42.0055 147.52 11.4777 116.88 11.4777 79.0795C11.4777 41.2788 42.0055 10.6389 79.6589 10.6389C117.312 10.6389 147.84 41.2788 147.84 79.0795Z" stroke="#F67939" stroke-width="1.15454"/>
<path d="M147.84 79.0795C147.84 116.88 117.312 147.52 79.6589 147.52C42.0055 147.52 11.4777 116.88 11.4777 79.0795C11.4777 41.2788 42.0055 10.6389 79.6589 10.6389C117.312 10.6389 147.84 41.2788 147.84 79.0795Z" stroke="#3F93FF" stroke-width="1.15454"/>
</g>
<ellipse cx="79.6562" cy="78.7217" rx="58.7831" ry="58.6992" fill="#6563CC"/>
<ellipse cx="79.6562" cy="78.7217" rx="58.7831" ry="58.6992" fill="url(#paint2_linear_101_725)"/>
<ellipse cx="79.6562" cy="78.7217" rx="58.7831" ry="58.6992" fill="url(#paint3_linear_101_725)"/>
<ellipse cx="79.6562" cy="78.7217" rx="58.7831" ry="58.6992" fill="url(#paint4_linear_101_725)"/>
<ellipse cx="79.6562" cy="78.7217" rx="58.7831" ry="58.6992" fill="#003255"/>
<g clip-path="url(#clip0_101_725)">
<path d="M72.7808 53.5134H86.5308L84.2391 64.9717L73.9266 63.8259L72.7808 53.5134Z" fill="#003255"/>
<path d="M90.3107 87.6214L91.041 86.2296C91.2625 85.8074 91.5149 85.3778 91.8021 84.9388C93.1717 82.8442 93.5604 80.3235 92.8804 77.8191C92.8786 77.8123 92.8768 77.8056 92.8749 77.7989C92.1082 75.0043 89.8936 72.7399 87.095 71.8995L87.0949 71.8995C86.945 71.8544 86.8005 71.8272 86.6629 71.8069C86.6051 71.7983 86.5531 71.7916 86.4976 71.7844C86.4847 71.7828 86.4717 71.7811 86.4583 71.7793C86.3977 71.7715 86.3111 71.7601 86.2303 71.744L90.3107 87.6214ZM90.3107 87.6214H91.8825M90.3107 87.6214H91.8825M91.8825 87.6214H98.9915C99.3564 87.6214 99.6524 87.9173 99.6524 88.2826V104.611C99.6524 104.976 99.3565 105.272 98.9915 105.272H60.3198C59.9548 105.272 59.6588 104.976 59.6588 104.611V88.2826C59.6588 87.9176 59.9548 87.6217 60.3198 87.6217H67.4287H69.0006L68.2703 86.2298C68.0488 85.8076 67.7964 85.3781 67.5092 84.939L66.7139 85.4591M91.8825 87.6214L66.7139 85.4591M66.7139 85.4591L67.5092 84.939C66.1396 82.8443 65.7509 80.3238 66.4309 77.8192C67.1922 75.0158 69.4104 72.7426 72.2158 71.8997L66.7139 85.4591ZM67.7067 78.1654L67.7067 78.1653C68.2064 76.3251 69.4869 74.7385 71.1268 73.7993L72.5494 72.9846V74.624V75.3919C72.5494 79.3094 75.7381 82.4981 79.6556 82.4981C83.5732 82.4981 86.7619 79.3094 86.7619 75.3919V74.624V72.9845L88.1846 73.7994C89.8243 74.7386 91.1048 76.3251 91.6046 78.1653L91.6046 78.1653C92.1769 80.2729 91.863 82.43 90.6957 84.2153L90.6957 84.2153C89.0688 86.7033 88.4439 88.891 88.6363 90.9449L88.6363 90.9449C88.7906 92.5924 88.2653 94.1806 87.1562 95.3984L87.1562 95.3984C86.5076 96.1106 85.6969 96.6422 84.8069 96.9574L83.5392 97.4063V96.0615V91.5051C83.5392 89.3645 81.7962 87.6214 79.6556 87.6214C77.5151 87.6214 75.772 89.3645 75.772 91.5051V96.0615V97.4063L74.5044 96.9574C73.6145 96.6422 72.8037 96.1107 72.1551 95.3984L67.7067 78.1654ZM67.7067 78.1654C67.1345 80.2728 67.4482 82.43 68.6156 84.2153L68.6156 84.2153C70.2425 86.7033 70.8674 88.891 70.675 90.9449L70.675 90.9449M67.7067 78.1654L70.675 90.9449M74.0819 71.3302L73.6297 71.8812C73.4769 71.7558 73.2755 71.7054 73.0816 71.744L74.0819 71.3302ZM74.0819 71.3302L73.6297 71.8812C73.7827 72.0068 73.8714 72.1943 73.8714 72.3922V75.392C73.8714 78.5823 76.4654 81.1763 79.6557 81.1763C82.8461 81.1763 85.4401 78.5823 85.4401 75.392V72.3922C85.4401 72.1942 85.5288 72.0067 85.6818 71.8812C85.8347 71.7558 86.036 71.7054 86.2301 71.744L74.0819 71.3302ZM70.675 90.9449C70.5206 92.5924 71.0459 94.1805 72.155 95.3984L70.675 90.9449ZM98.3305 103.949H97.3801H61.9311H60.9808V102.999V89.8937V88.9434H61.9311H68.4241H69.3184L69.3727 89.8361C69.3927 90.1649 69.3895 90.4938 69.3588 90.8216C69.1713 92.822 69.836 94.8153 71.1777 96.2884L71.1778 96.2885C72.5217 97.7643 74.4383 98.6113 76.433 98.6113C76.798 98.6113 77.094 98.3153 77.094 97.9503V91.5051C77.094 90.0917 78.2423 88.9434 79.6556 88.9434C81.069 88.9434 82.2173 90.0917 82.2173 91.5051V97.9503C82.2173 98.3153 82.5133 98.6113 82.8783 98.6113C84.873 98.6113 86.7895 97.7643 88.1335 96.2885L88.1335 96.2884C89.4751 94.8153 90.1398 92.8222 89.9525 90.8217L98.3305 103.949ZM98.3305 103.949V102.999M98.3305 103.949V102.999M98.3305 102.999V89.8937V88.9434H97.3801H90.8872H89.9925M98.3305 102.999L89.9925 88.9434M89.9925 88.9434L89.9386 89.8364M89.9925 88.9434L89.9386 89.8364M89.9386 89.8364C89.9187 90.1647 89.9217 90.4935 89.9525 90.8215L89.9386 89.8364ZM72.6482 71.8071C72.5095 71.8277 72.3646 71.855 72.2159 71.8997L72.6482 71.8071ZM72.6482 71.8071C72.7064 71.7985 72.7589 71.7917 72.8147 71.7844M72.6482 71.8071L72.8147 71.7844M72.8147 71.7844C72.8275 71.7828 72.8405 71.7811 72.8538 71.7794M72.8147 71.7844L72.8538 71.7794M72.8538 71.7794C72.9145 71.7714 73.0011 71.76 73.0814 71.744L72.8538 71.7794Z" fill="white" stroke="white" stroke-width="1.90069"/>
<path d="M86.2297 52.3533L86.2298 52.3533C86.5389 52.4148 86.7617 52.6862 86.7617 53.0015V59.2787C86.7617 63.1963 83.573 66.385 79.6554 66.385C75.7378 66.385 72.5491 63.1963 72.549 59.2787C72.549 59.2787 72.549 59.2787 72.549 59.2787V53.0015C72.549 52.6863 72.7717 52.4148 73.0809 52.3533L73.0809 52.3533C75.2511 51.9212 77.3741 52.2697 79.1783 53.3168L79.6553 53.5937L80.1324 53.3169C81.9367 52.2698 84.0597 51.9214 86.2297 52.3533ZM74.8128 53.4964L74.8171 54.4467H73.8712V59.2787C73.8712 62.469 76.4652 65.063 79.6555 65.063C82.8458 65.063 85.4398 62.469 85.4398 59.2787V54.4468V53.5043L84.4974 53.4965C82.887 53.483 81.3428 53.9799 80.054 54.9538L80.0539 54.9538C79.8182 55.1319 79.4927 55.132 79.2568 54.9537L78.6839 55.7119L79.2568 54.9537C78.2266 54.1751 77.0324 53.7006 75.7718 53.5491V53.4963H74.9462C74.9018 53.4959 74.8573 53.496 74.8128 53.4964Z" fill="white" stroke="white" stroke-width="1.90069"/>
<path d="M63.0752 69.4139L63.0751 69.4138L59.8524 66.1913C59.8524 66.1913 59.8524 66.1913 59.8524 66.1913C59.5943 65.9332 59.5943 65.5147 59.8524 65.2566C60.1106 64.9984 60.5291 64.9985 60.7871 65.2565L60.7872 65.2566L61.2592 65.7286L62.8815 67.3509V65.0566V62.5014C62.8815 62.1364 63.1775 61.8404 63.5425 61.8404C63.9075 61.8404 64.2035 62.1364 64.2035 62.5014V65.0566V67.3509L65.8258 65.7286L66.2979 65.2566C66.556 64.9984 66.9746 64.9985 67.2325 65.2565L67.2326 65.2566C67.4907 65.5147 67.4907 65.9332 67.2326 66.1913L64.0102 69.4138L64.0101 69.4139C63.8851 69.5389 63.7068 69.6075 63.5426 69.6075C63.3785 69.6075 63.1975 69.5362 63.0752 69.4139Z" fill="white" stroke="white" stroke-width="1.90069"/>
<path d="M95.3018 69.4138L95.3017 69.4137L92.079 66.1913C92.079 66.1913 92.079 66.1913 92.079 66.1913C91.8209 65.9331 91.8209 65.5147 92.079 65.2565C92.3372 64.9984 92.7557 64.9984 93.0137 65.2565L93.0138 65.2565L93.4858 65.7285L95.1081 67.3509V65.0565V62.5013C95.1081 62.1363 95.4041 61.8403 95.7691 61.8403C96.1341 61.8403 96.4301 62.1363 96.4301 62.5013V65.0565V67.3509L98.0524 65.7285L98.5245 65.2565L98.3245 65.0565L98.5245 65.2565C98.7826 64.9984 99.2012 64.9984 99.4592 65.2565L99.4592 65.2565C99.7174 65.5147 99.7174 65.9331 99.4592 66.1913L96.2368 69.4137L96.2366 69.4138C96.1122 69.5383 95.9326 69.6075 95.7692 69.6075C95.6031 69.6075 95.4271 69.5392 95.3018 69.4138Z" fill="white" stroke="white" stroke-width="1.90069"/>
</g>
<rect width="11.3939" height="11.3798" rx="3.25583" transform="matrix(-0.966018 -0.258475 -0.259164 0.965833 164.092 84.6202)" fill="#F3A100"/>
<rect width="5.14544" height="5.13981" rx="1.62791" transform="matrix(0.939851 -0.341585 -0.342455 -0.939534 31.8926 18.5265)" fill="#F75E1C"/>
<rect width="8.09505" height="8.08619" rx="1.62791" transform="matrix(0.939848 -0.341593 -0.342447 -0.939537 15.7012 131.819)" fill="#2089E1"/>
<defs>
<linearGradient id="paint0_linear_101_725" x1="0.923828" y1="79.0772" x2="143.22" y2="94.3174" gradientUnits="userSpaceOnUse">
<stop stop-color="#2C27FF"/>
<stop offset="1" stop-color="#00B6E9"/>
</linearGradient>
<linearGradient id="paint1_linear_101_725" x1="10.9004" y1="79.0795" x2="135.748" y2="92.3816" gradientUnits="userSpaceOnUse">
<stop stop-color="#2C27FF"/>
<stop offset="1" stop-color="#00B6E9"/>
</linearGradient>
<linearGradient id="paint2_linear_101_725" x1="-58.6204" y1="128.937" x2="-18.2448" y2="-8.25402" gradientUnits="userSpaceOnUse">
<stop stop-color="#FFE259"/>
<stop offset="1" stop-color="#FFA751"/>
</linearGradient>
<linearGradient id="paint3_linear_101_725" x1="-58.6204" y1="128.937" x2="-18.2448" y2="-8.25402" gradientUnits="userSpaceOnUse">
<stop stop-color="#FD916B"/>
<stop offset="1" stop-color="#FB6259"/>
</linearGradient>
<linearGradient id="paint4_linear_101_725" x1="63.3131" y1="66.6772" x2="167.062" y2="154.77" gradientUnits="userSpaceOnUse">
<stop stop-color="#4489FF"/>
<stop offset="1" stop-color="#22BDFF"/>
</linearGradient>
<clipPath id="clip0_101_725">
<rect width="55" height="55" fill="white" transform="translate(52.1562 51.2217)"/>
</clipPath>
</defs>
</svg>
