<svg width="212" height="212" viewBox="0 0 212 212" fill="none" xmlns="http://www.w3.org/2000/svg">
<g filter="url(#filter0_d_117_1019)">
<path d="M105.984 35.5417C138.284 35.5417 164.469 61.7261 164.469 94.0261C164.469 126.326 138.284 152.51 105.984 152.51C73.6843 152.51 47.5 126.326 47.5 94.0261C47.5 61.7261 73.6843 35.5417 105.984 35.5417Z" fill="#29A4F4"/>
<path d="M105.984 35.5417C138.284 35.5417 164.469 61.7261 164.469 94.0261C164.469 126.326 138.284 152.51 105.984 152.51C73.6843 152.51 47.5 126.326 47.5 94.0261C47.5 61.7261 73.6843 35.5417 105.984 35.5417Z" fill="#1F1A38"/>
<path d="M105.984 35.5417C138.284 35.5417 164.469 61.7261 164.469 94.0261C164.469 126.326 138.284 152.51 105.984 152.51C73.6843 152.51 47.5 126.326 47.5 94.0261C47.5 61.7261 73.6843 35.5417 105.984 35.5417Z" fill="#D12023"/>
</g>
<g clip-path="url(#clip0_117_1019)">
<path d="M127.923 89.7809C127.519 89.1349 127.137 88.5246 126.994 87.9903C126.84 87.4145 126.864 86.67 126.89 85.8816C126.931 84.615 126.978 83.1792 126.258 81.9347C125.528 80.6728 124.251 79.9938 123.124 79.3947C122.437 79.0291 121.788 78.6838 121.38 78.2757C120.972 77.8677 120.626 77.2183 120.261 76.531C119.662 75.4044 118.983 74.1277 117.721 73.3976C116.476 72.6776 115.04 72.7239 113.774 72.7654C112.985 72.7908 112.241 72.815 111.665 72.6612C111.131 72.5183 110.52 72.1365 109.874 71.7322C108.783 71.0493 107.545 70.2749 106.055 70.2749C104.564 70.2749 103.326 71.0493 102.235 71.7323C101.589 72.1366 100.978 72.5185 100.444 72.6613C99.8681 72.8151 99.1237 72.7909 98.3353 72.7655C97.0687 72.7241 95.6329 72.6777 94.3884 73.3977C93.1264 74.1278 92.4475 75.4046 91.8483 76.531C91.4827 77.2184 91.1374 77.8678 90.7293 78.2758C90.3213 78.6837 89.672 79.0291 88.9846 79.3947C87.8581 79.9938 86.5814 80.6728 85.8513 81.9348C85.1312 83.1793 85.1778 84.6151 85.2189 85.8817C85.2445 86.67 85.2687 87.4146 85.1147 87.9904C84.9719 88.5248 84.5901 89.1351 84.1857 89.7811C83.5029 90.8729 82.7285 92.1103 82.7285 93.6009C82.7285 95.0915 83.5029 96.3289 84.186 97.4209C84.5903 98.0669 84.9721 98.6772 85.115 99.2115C85.2688 99.7873 85.2447 100.532 85.2191 101.32C85.1779 102.587 85.1313 104.023 85.8514 105.267C86.5814 106.529 87.8582 107.208 88.9846 107.807C89.672 108.173 90.3213 108.518 90.7294 108.926C91.1374 109.334 91.4827 109.983 91.8484 110.671C92.4475 111.797 93.1265 113.074 94.3885 113.804C95.633 114.524 97.0685 114.478 98.3354 114.436C99.1238 114.411 99.8683 114.387 100.444 114.541C100.978 114.683 101.589 115.065 102.235 115.47C103.326 116.153 104.564 116.927 106.055 116.927C107.545 116.927 108.783 116.153 109.874 115.469C110.52 115.065 111.131 114.683 111.665 114.54C112.241 114.387 112.985 114.411 113.774 114.436C115.04 114.478 116.476 114.524 117.721 113.804C118.983 113.074 119.662 111.797 120.261 110.671C120.626 109.983 120.972 109.334 121.38 108.926C121.788 108.518 122.437 108.173 123.124 107.807C124.251 107.208 125.528 106.529 126.258 105.267C126.978 104.022 126.931 102.587 126.89 101.32C126.865 100.532 126.84 99.7872 126.994 99.2114C127.137 98.677 127.519 98.0667 127.923 97.4207C128.606 96.3289 129.381 95.0915 129.381 93.6009C129.381 92.1103 128.606 90.8729 127.923 89.7809ZM125.588 95.9594C125.093 96.7494 124.582 97.5662 124.332 98.5001C124.073 99.4695 124.105 100.456 124.136 101.41C124.168 102.395 124.198 103.325 123.873 103.887C123.538 104.467 122.708 104.908 121.831 105.375C120.995 105.819 120.13 106.279 119.431 106.978C118.732 107.677 118.273 108.541 117.828 109.377C117.361 110.255 116.92 111.084 116.341 111.419C115.778 111.745 114.848 111.715 113.863 111.683C112.909 111.652 111.923 111.62 110.954 111.879C110.02 112.128 109.203 112.64 108.413 113.134C107.56 113.668 106.754 114.172 106.055 114.172C105.355 114.172 104.549 113.668 103.696 113.134C102.906 112.64 102.089 112.128 101.155 111.879C100.505 111.705 99.8473 111.662 99.1968 111.662C98.8775 111.662 98.5599 111.673 98.2459 111.683C97.261 111.715 96.3308 111.745 95.7681 111.419C95.1886 111.084 94.7477 110.255 94.2809 109.377C93.8363 108.541 93.3766 107.677 92.6776 106.978C91.9786 106.279 91.1142 105.819 90.2783 105.375C89.4005 104.908 88.5713 104.467 88.2361 103.887C87.9106 103.325 87.9408 102.395 87.9727 101.41C88.0037 100.456 88.0357 99.4696 87.7767 98.5002C87.5271 97.5664 87.0159 96.7495 86.5217 95.9596C85.9877 95.1064 85.4836 94.3006 85.4836 93.6009C85.4836 92.9012 85.9877 92.0955 86.5215 91.2424C87.0158 90.4524 87.527 89.6356 87.7766 88.7017C88.0356 87.7323 88.0037 86.7461 87.9727 85.7922C87.9408 84.8073 87.9106 83.8771 88.2361 83.3144C88.5714 82.7349 89.4006 82.294 90.2784 81.8271C91.1143 81.3826 91.9786 80.9229 92.6776 80.2239C93.3766 79.5249 93.8364 78.6606 94.2809 77.8247C94.7477 76.9468 95.1887 76.1176 95.7681 75.7824C96.3309 75.4569 97.2612 75.4872 98.2459 75.519C99.1997 75.5502 100.186 75.5822 101.155 75.323C102.089 75.0734 102.906 74.5622 103.696 74.0679C104.549 73.5341 105.355 73.0299 106.055 73.0299C106.754 73.0299 107.56 73.5341 108.413 74.0679C109.203 74.5622 110.02 75.0734 110.954 75.323C111.923 75.582 112.909 75.5501 113.863 75.519C114.848 75.4873 115.778 75.4569 116.341 75.7824C116.92 76.1176 117.361 76.9469 117.828 77.8247C118.273 78.6606 118.732 79.5249 119.431 80.2239C120.13 80.9229 120.995 81.3827 121.831 81.8272C122.709 82.2941 123.538 82.7351 123.873 83.3144C124.198 83.8772 124.168 84.8074 124.136 85.7922C124.105 86.746 124.073 87.7323 124.332 88.7017C124.582 89.6355 125.093 90.4523 125.587 91.2423C126.121 92.0954 126.625 92.9012 126.625 93.6009C126.625 94.3006 126.121 95.1063 125.588 95.9594Z" fill="#FEFEFE"/>
<path d="M103.493 96.4379L99.6814 92.6269L97.7334 94.5749L103.453 100.295L114.355 89.8292L112.447 87.8417L103.493 96.4379Z" fill="#FEFEFE"/>
<path d="M106.054 77.5298C97.1929 77.5298 89.9834 84.7393 89.9834 93.6008C89.9834 102.462 97.1929 109.672 106.054 109.672C114.916 109.672 122.126 102.462 122.126 93.6008C122.126 84.7393 114.916 77.5298 106.054 77.5298ZM106.054 106.917C98.712 106.917 92.7384 100.943 92.7384 93.6008C92.7384 86.2584 98.712 80.2848 106.054 80.2848C113.397 80.2848 119.37 86.2584 119.37 93.6008C119.37 100.943 113.397 106.917 106.054 106.917Z" fill="#FEFEFE"/>
</g>
<defs>
<filter id="filter0_d_117_1019" x="0.654526" y="0.407642" width="210.66" height="210.66" filterUnits="userSpaceOnUse" color-interpolation-filters="sRGB">
<feFlood flood-opacity="0" result="BackgroundImageFix"/>
<feColorMatrix in="SourceAlpha" type="matrix" values="0 0 0 0 0 0 0 0 0 0 0 0 0 0 0 0 0 0 127 0" result="hardAlpha"/>
<feOffset dy="11.7114"/>
<feGaussianBlur stdDeviation="23.4227"/>
<feColorMatrix type="matrix" values="0 0 0 0 0.819608 0 0 0 0 0.12549 0 0 0 0 0.137255 0 0 0 0.29 0"/>
<feBlend mode="normal" in2="BackgroundImageFix" result="effect1_dropShadow_117_1019"/>
<feBlend mode="normal" in="SourceGraphic" in2="effect1_dropShadow_117_1019" result="shape"/>
</filter>
<clipPath id="clip0_117_1019">
<rect width="46.652" height="46.652" fill="white" transform="translate(82.7275 70.2749)"/>
</clipPath>
</defs>
</svg>
