<svg width="164" height="158" viewBox="0 0 164 158" fill="none" xmlns="http://www.w3.org/2000/svg">
<g opacity="0.2">
<path d="M156.391 79.2265C156.391 122.132 121.559 156.915 78.5904 156.915C35.6217 156.915 0.790162 122.132 0.790162 79.2265C0.790162 36.3212 35.6217 1.53821 78.5904 1.53821C121.559 1.53821 156.391 36.3212 156.391 79.2265Z" stroke="url(#paint0_linear_101_818)" stroke-width="1.15454"/>
<path d="M156.391 79.2265C156.391 122.132 121.559 156.915 78.5904 156.915C35.6217 156.915 0.790162 122.132 0.790162 79.2265C0.790162 36.3212 35.6217 1.53821 78.5904 1.53821C121.559 1.53821 156.391 36.3212 156.391 79.2265Z" stroke="#F67939" stroke-width="1.15454"/>
<path d="M156.391 79.2265C156.391 122.132 121.559 156.915 78.5904 156.915C35.6217 156.915 0.790162 122.132 0.790162 79.2265C0.790162 36.3212 35.6217 1.53821 78.5904 1.53821C121.559 1.53821 156.391 36.3212 156.391 79.2265Z" stroke="#3F93FF" stroke-width="1.15454"/>
</g>
<g opacity="0.5">
<path d="M147.129 79.2288C147.129 117.03 116.601 147.669 78.9479 147.669C41.2945 147.669 10.7667 117.03 10.7667 79.2288C10.7667 41.428 41.2945 10.7882 78.9479 10.7882C116.601 10.7882 147.129 41.428 147.129 79.2288Z" stroke="url(#paint1_linear_101_818)" stroke-width="1.15454"/>
<path d="M147.129 79.2288C147.129 117.03 116.601 147.669 78.9479 147.669C41.2945 147.669 10.7667 117.03 10.7667 79.2288C10.7667 41.428 41.2945 10.7882 78.9479 10.7882C116.601 10.7882 147.129 41.428 147.129 79.2288Z" stroke="#F67939" stroke-width="1.15454"/>
<path d="M147.129 79.2288C147.129 117.03 116.601 147.669 78.9479 147.669C41.2945 147.669 10.7667 117.03 10.7667 79.2288C10.7667 41.428 41.2945 10.7882 78.9479 10.7882C116.601 10.7882 147.129 41.428 147.129 79.2288Z" stroke="#3F93FF" stroke-width="1.15454"/>
</g>
<ellipse cx="78.9452" cy="78.871" rx="58.7831" ry="58.6992" fill="#6563CC"/>
<ellipse cx="78.9452" cy="78.871" rx="58.7831" ry="58.6992" fill="url(#paint2_linear_101_818)"/>
<ellipse cx="78.9452" cy="78.871" rx="58.7831" ry="58.6992" fill="url(#paint3_linear_101_818)"/>
<ellipse cx="78.9452" cy="78.871" rx="58.7831" ry="58.6992" fill="url(#paint4_linear_101_818)"/>
<ellipse cx="78.9452" cy="78.871" rx="58.7831" ry="58.6992" fill="#003255"/>
<g clip-path="url(#clip0_101_818)">
<path d="M68.8082 66.1996L78.9453 64.9325L89.0824 68.7339L92.8838 78.8709L91.6167 99.1451L80.2125 100.412L68.8082 91.5423L65.0068 78.8709L68.8082 66.1996Z" fill="#003255"/>
<path d="M80.7271 48.4598V62.8146C80.1418 62.7496 79.5475 62.715 78.9452 62.715C78.313 62.715 77.6897 62.7531 77.0764 62.8246C76.2373 54.7646 69.4044 48.4598 61.1261 48.4598H59.3442V59.1512H61.1261C64.0738 59.1512 66.4719 61.5493 66.4719 64.497V68.6847C64.2445 71.439 62.9081 74.9423 62.9081 78.7523C62.9081 86.9785 67.1743 94.2218 73.5995 98.3647V109.282H84.291V101.968C84.8791 102.013 85.4734 102.036 86.0729 102.036C90.9856 102.036 94.9824 98.039 94.9824 93.1263V78.7522C94.9824 74.9423 93.646 71.439 91.4186 68.6847V68.0608C91.4186 65.1131 93.8167 62.715 96.7643 62.715H98.5462V52.0236H96.7643C94.9348 52.0236 93.1456 52.3436 91.4186 52.9777V48.4598H80.7271ZM62.9081 55.7664V52.1505C68.6685 52.9781 73.1703 57.7566 73.5703 63.6426C72.3127 64.0913 71.1269 64.6924 70.0357 65.4241V64.497C70.0357 60.1944 66.9696 56.5943 62.9081 55.7664ZM80.7271 105.718H77.1633V100.244C78.3079 100.725 79.4987 101.116 80.7271 101.409V105.718ZM91.4186 93.1263C91.4186 96.0739 89.0205 98.472 86.0729 98.472C84.2204 98.472 82.4271 98.212 80.7271 97.7264V94.9082C80.7271 91.5684 82.9959 88.7124 86.244 87.9629L88.1022 87.5342L87.5488 85.7094C86.6313 82.6849 83.8899 80.6529 80.7271 80.6529V84.2167C81.6866 84.2167 82.5876 84.6114 83.2434 85.2624C82.0102 85.854 80.8923 86.6815 79.9626 87.697C78.3637 87.3461 77.1633 85.9193 77.1633 84.2167H73.5995C73.5995 87.1772 75.4141 89.7212 77.9892 90.7967C77.4501 92.0922 77.1633 93.4911 77.1633 94.9082V96.3146C70.8219 93.0451 66.4719 86.4002 66.4719 78.7522C66.4719 72.4805 71.1249 67.2759 77.1601 66.4072C77.0922 68.313 75.5216 69.8427 73.5995 69.8427V73.4065C75.2677 73.4065 76.8027 72.8289 78.0184 71.8651C79.4481 74.8799 82.5205 76.9703 86.0729 76.9703H87.8548V73.4065H86.0729C83.1252 73.4065 80.7271 71.0084 80.7271 68.0608V66.4067C86.7639 67.274 91.4186 72.4793 91.4186 78.7522V93.1263ZM94.9824 55.7222V59.3302C91.7083 59.9976 89.0825 62.4669 88.1868 65.6528C86.9972 64.811 85.6882 64.1279 84.291 63.6324V52.0236H87.8548V58.8814L90.5331 57.3225C91.9617 56.491 93.4522 55.9556 94.9824 55.7222Z" fill="white"/>
</g>
<rect width="11.3939" height="11.3798" rx="3.25583" transform="matrix(-0.966018 -0.258475 -0.259164 0.965833 163.381 84.7695)" fill="#F3A100"/>
<rect width="5.14544" height="5.13981" rx="1.62791" transform="matrix(0.939851 -0.341585 -0.342455 -0.939534 31.1816 18.6758)" fill="#F75E1C"/>
<rect width="8.09505" height="8.08619" rx="1.62791" transform="matrix(0.939848 -0.341593 -0.342447 -0.939537 14.9902 131.969)" fill="#2089E1"/>
<defs>
<linearGradient id="paint0_linear_101_818" x1="0.212891" y1="79.2265" x2="142.509" y2="94.4667" gradientUnits="userSpaceOnUse">
<stop stop-color="#2C27FF"/>
<stop offset="1" stop-color="#00B6E9"/>
</linearGradient>
<linearGradient id="paint1_linear_101_818" x1="10.1895" y1="79.2288" x2="135.037" y2="92.5309" gradientUnits="userSpaceOnUse">
<stop stop-color="#2C27FF"/>
<stop offset="1" stop-color="#00B6E9"/>
</linearGradient>
<linearGradient id="paint2_linear_101_818" x1="-59.3313" y1="129.086" x2="-18.9557" y2="-8.10472" gradientUnits="userSpaceOnUse">
<stop stop-color="#FFE259"/>
<stop offset="1" stop-color="#FFA751"/>
</linearGradient>
<linearGradient id="paint3_linear_101_818" x1="-59.3313" y1="129.086" x2="-18.9557" y2="-8.10472" gradientUnits="userSpaceOnUse">
<stop stop-color="#FD916B"/>
<stop offset="1" stop-color="#FB6259"/>
</linearGradient>
<linearGradient id="paint4_linear_101_818" x1="62.6022" y1="66.8264" x2="166.351" y2="154.92" gradientUnits="userSpaceOnUse">
<stop stop-color="#4489FF"/>
<stop offset="1" stop-color="#22BDFF"/>
</linearGradient>
<clipPath id="clip0_101_818">
<rect width="60.8225" height="60.8225" fill="white" transform="translate(48.5342 48.4598)"/>
</clipPath>
</defs>
</svg>
