<svg width="23" height="17" viewBox="0 0 23 17" fill="none" xmlns="http://www.w3.org/2000/svg">
<g clip-path="url(#clip0_327_884)">
<path d="M0 0H23V17H0V0Z" fill="#1EB53A"/>
<path d="M0 0H23V8.5H0V0Z" fill="#0099B5"/>
<path d="M0 5.43994H23V11.5599H0V5.43994Z" fill="#CE1126"/>
<path d="M0 5.77979H23V11.2198H0V5.77979Z" fill="white"/>
<path d="M3.21984 4.76018C3.982 4.76018 4.59984 3.84684 4.59984 2.72018C4.59984 1.59351 3.982 0.680176 3.21984 0.680176C2.45769 0.680176 1.83984 1.59351 1.83984 2.72018C1.83984 3.84684 2.45769 4.76018 3.21984 4.76018Z" fill="white"/>
<path d="M3.6798 4.76018C4.44196 4.76018 5.0598 3.84684 5.0598 2.72018C5.0598 1.59351 4.44196 0.680176 3.6798 0.680176C2.91765 0.680176 2.2998 1.59351 2.2998 2.72018C2.2998 3.84684 2.91765 4.76018 3.6798 4.76018Z" fill="#0099B5"/>
<path d="M6.87695 3.94434L6.7708 4.33237L6.93415 4.39541" fill="white"/>
<path d="M6.87695 3.94434L6.9831 4.33237L6.81976 4.39541" fill="white"/>
<path d="M7.20312 4.22607L6.86552 4.28589L6.85962 4.43007" fill="white"/>
<path d="M7.20312 4.1709L6.93564 4.46582L6.82427 4.35588" fill="white"/>
<path d="M6.54932 4.1709L6.8168 4.46582L6.92817 4.35588" fill="white"/>
<path d="M6.54932 4.22607L6.88692 4.28589L6.89282 4.43007" fill="white"/>
<path d="M7.0791 4.67334L6.98807 4.29416L6.80961 4.36605" fill="white"/>
<path d="M7.07275 4.68262L6.80102 4.45888L6.90814 4.27776" fill="white"/>
<path d="M6.66895 4.68213L6.95268 4.43124L6.85756 4.27727" fill="white"/>
<path d="M6.67529 4.69482L6.78606 4.29391L6.94479 4.34407" fill="white"/>
<path d="M6.87695 2.31201L6.7708 2.70004L6.93415 2.76308" fill="white"/>
<path d="M6.87695 2.31201L6.9831 2.70004L6.81976 2.76308" fill="white"/>
<path d="M7.20312 2.59375L6.86552 2.65357L6.85962 2.79775" fill="white"/>
<path d="M7.20312 2.53857L6.93564 2.83349L6.82427 2.72356" fill="white"/>
<path d="M6.54932 2.53857L6.8168 2.83349L6.92817 2.72356" fill="white"/>
<path d="M6.54932 2.59375L6.88692 2.65357L6.89282 2.79775" fill="white"/>
<path d="M7.0791 3.04102L6.98807 2.66184L6.80961 2.73373" fill="white"/>
<path d="M7.07275 3.05029L6.80102 2.82655L6.90814 2.64544" fill="white"/>
<path d="M6.66895 3.0498L6.95268 2.79891L6.85756 2.64495" fill="white"/>
<path d="M6.67529 3.0625L6.78606 2.66159L6.94479 2.71175" fill="white"/>
<path d="M6.87695 0.680176L6.7708 1.06821L6.93415 1.13125" fill="white"/>
<path d="M6.87695 0.680176L6.9831 1.06821L6.81976 1.13125" fill="white"/>
<path d="M7.20312 0.961914L6.86552 1.02173L6.85962 1.16591" fill="white"/>
<path d="M7.20312 0.906738L6.93564 1.20166L6.82427 1.09172" fill="white"/>
<path d="M6.54932 0.906738L6.8168 1.20166L6.92817 1.09172" fill="white"/>
<path d="M6.54932 0.961914L6.88692 1.02173L6.89282 1.16591" fill="white"/>
<path d="M7.0791 1.40918L6.98807 1.03L6.80961 1.10189" fill="white"/>
<path d="M7.07275 1.41846L6.80102 1.19472L6.90814 1.0136" fill="white"/>
<path d="M6.66895 1.41797L6.95268 1.16708L6.85756 1.01311" fill="white"/>
<path d="M6.67529 1.43066L6.78606 1.02975L6.94479 1.07991" fill="white"/>
<path d="M8.25098 3.94434L8.14483 4.33237L8.30817 4.39541" fill="white"/>
<path d="M8.25098 3.94434L8.35712 4.33237L8.19378 4.39541" fill="white"/>
<path d="M8.57715 4.22607L8.23954 4.28589L8.23365 4.43007" fill="white"/>
<path d="M8.57715 4.1709L8.30966 4.46582L8.1983 4.35588" fill="white"/>
<path d="M7.92334 4.1709L8.19083 4.46582L8.30219 4.35588" fill="white"/>
<path d="M7.92334 4.22607L8.26095 4.28589L8.26684 4.43007" fill="white"/>
<path d="M8.45312 4.67334L8.3621 4.29416L8.18363 4.36605" fill="white"/>
<path d="M8.44678 4.68262L8.17505 4.45888L8.28217 4.27776" fill="white"/>
<path d="M8.04297 4.68213L8.3267 4.43124L8.23159 4.27727" fill="white"/>
<path d="M8.04932 4.69482L8.16009 4.29391L8.31881 4.34407" fill="white"/>
<path d="M8.25098 2.31201L8.14483 2.70004L8.30817 2.76308" fill="white"/>
<path d="M8.25098 2.31201L8.35712 2.70004L8.19378 2.76308" fill="white"/>
<path d="M8.57715 2.59375L8.23954 2.65357L8.23365 2.79775" fill="white"/>
<path d="M8.57715 2.53857L8.30966 2.83349L8.1983 2.72356" fill="white"/>
<path d="M7.92334 2.53857L8.19083 2.83349L8.30219 2.72356" fill="white"/>
<path d="M7.92334 2.59375L8.26095 2.65357L8.26684 2.79775" fill="white"/>
<path d="M8.45312 3.04102L8.3621 2.66184L8.18363 2.73373" fill="white"/>
<path d="M8.44678 3.05029L8.17505 2.82655L8.28217 2.64544" fill="white"/>
<path d="M8.04297 3.0498L8.3267 2.79891L8.23159 2.64495" fill="white"/>
<path d="M8.04932 3.0625L8.16009 2.66159L8.31881 2.71175" fill="white"/>
<path d="M8.25098 0.680176L8.14483 1.06821L8.30817 1.13125" fill="white"/>
<path d="M8.25098 0.680176L8.35712 1.06821L8.19378 1.13125" fill="white"/>
<path d="M8.57715 0.961914L8.23954 1.02173L8.23365 1.16591" fill="white"/>
<path d="M8.57715 0.906738L8.30966 1.20166L8.1983 1.09172" fill="white"/>
<path d="M7.92334 0.906738L8.19083 1.20166L8.30219 1.09172" fill="white"/>
<path d="M7.92334 0.961914L8.26095 1.02173L8.26684 1.16591" fill="white"/>
<path d="M8.45312 1.40918L8.3621 1.03L8.18363 1.10189" fill="white"/>
<path d="M8.44678 1.41846L8.17505 1.19472L8.28217 1.0136" fill="white"/>
<path d="M8.04297 1.41797L8.3267 1.16708L8.23159 1.01311" fill="white"/>
<path d="M8.04932 1.43066L8.16009 1.02975L8.31881 1.07991" fill="white"/>
<path d="M9.625 3.94434L9.51885 4.33237L9.6822 4.39541" fill="white"/>
<path d="M9.625 3.94434L9.73115 4.33237L9.5678 4.39541" fill="white"/>
<path d="M9.95117 4.22607L9.61356 4.28589L9.60767 4.43007" fill="white"/>
<path d="M9.95117 4.1709L9.68368 4.46582L9.57232 4.35588" fill="white"/>
<path d="M9.29736 4.1709L9.56485 4.46582L9.67622 4.35588" fill="white"/>
<path d="M9.29736 4.22607L9.63497 4.28589L9.64087 4.43007" fill="white"/>
<path d="M9.82715 4.67334L9.73612 4.29416L9.55765 4.36605" fill="white"/>
<path d="M9.8208 4.68262L9.54907 4.45888L9.65619 4.27776" fill="white"/>
<path d="M9.41699 4.68213L9.70073 4.43124L9.60561 4.27727" fill="white"/>
<path d="M9.42334 4.69482L9.53411 4.29391L9.69283 4.34407" fill="white"/>
<path d="M9.625 2.31201L9.51885 2.70004L9.6822 2.76308" fill="white"/>
<path d="M9.625 2.31201L9.73115 2.70004L9.5678 2.76308" fill="white"/>
<path d="M9.95117 2.59375L9.61356 2.65357L9.60767 2.79775" fill="white"/>
<path d="M9.95117 2.53857L9.68368 2.83349L9.57232 2.72356" fill="white"/>
<path d="M9.29736 2.53857L9.56485 2.83349L9.67622 2.72356" fill="white"/>
<path d="M9.29736 2.59375L9.63497 2.65357L9.64087 2.79775" fill="white"/>
<path d="M9.82715 3.04102L9.73612 2.66184L9.55765 2.73373" fill="white"/>
<path d="M9.8208 3.05029L9.54907 2.82655L9.65619 2.64544" fill="white"/>
<path d="M9.41699 3.0498L9.70073 2.79891L9.60561 2.64495" fill="white"/>
<path d="M9.42334 3.0625L9.53411 2.66159L9.69283 2.71175" fill="white"/>
<path d="M9.625 0.680176L9.51885 1.06821L9.6822 1.13125" fill="white"/>
<path d="M9.625 0.680176L9.73115 1.06821L9.5678 1.13125" fill="white"/>
<path d="M9.95117 0.961914L9.61356 1.02173L9.60767 1.16591" fill="white"/>
<path d="M9.95117 0.906738L9.68368 1.20166L9.57232 1.09172" fill="white"/>
<path d="M9.29736 0.906738L9.56485 1.20166L9.67622 1.09172" fill="white"/>
<path d="M9.29736 0.961914L9.63497 1.02173L9.64087 1.16591" fill="white"/>
<path d="M9.82715 1.40918L9.73612 1.03L9.55765 1.10189" fill="white"/>
<path d="M9.8208 1.41846L9.54907 1.19472L9.65619 1.0136" fill="white"/>
<path d="M9.41699 1.41797L9.70073 1.16708L9.60561 1.01311" fill="white"/>
<path d="M9.42334 1.43066L9.53411 1.02975L9.69283 1.07991" fill="white"/>
<path d="M4.12891 3.94434L4.02276 4.33237L4.1861 4.39541" fill="white"/>
<path d="M4.12891 3.94434L4.23505 4.33237L4.07171 4.39541" fill="white"/>
<path d="M4.45508 4.22607L4.11747 4.28589L4.11157 4.43007" fill="white"/>
<path d="M4.45508 4.1709L4.18759 4.46582L4.07622 4.35588" fill="white"/>
<path d="M3.80176 4.1709L4.06925 4.46582L4.18061 4.35588" fill="white"/>
<path d="M3.80176 4.22607L4.13937 4.28589L4.14526 4.43007" fill="white"/>
<path d="M4.33105 4.67334L4.24003 4.29416L4.06156 4.36605" fill="white"/>
<path d="M4.32471 4.68262L4.05298 4.45888L4.1601 4.27776" fill="white"/>
<path d="M3.9209 4.68213L4.20463 4.43124L4.10952 4.27727" fill="white"/>
<path d="M3.92725 4.69482L4.03802 4.29391L4.19674 4.34407" fill="white"/>
<path d="M5.50293 3.94434L5.39678 4.33237L5.56013 4.39541" fill="white"/>
<path d="M5.50293 3.94434L5.60908 4.33237L5.44573 4.39541" fill="white"/>
<path d="M5.8291 4.22607L5.49149 4.28589L5.4856 4.43007" fill="white"/>
<path d="M5.8291 4.1709L5.56161 4.46582L5.45025 4.35588" fill="white"/>
<path d="M5.17529 4.1709L5.44278 4.46582L5.55415 4.35588" fill="white"/>
<path d="M5.17529 4.22607L5.5129 4.28589L5.5188 4.43007" fill="white"/>
<path d="M5.70508 4.67334L5.61405 4.29416L5.43558 4.36605" fill="white"/>
<path d="M5.69873 4.68262L5.427 4.45888L5.53412 4.27776" fill="white"/>
<path d="M5.29492 4.68213L5.57866 4.43124L5.48354 4.27727" fill="white"/>
<path d="M5.30127 4.69482L5.41204 4.29391L5.57076 4.34407" fill="white"/>
<path d="M5.50293 2.31201L5.39678 2.70004L5.56013 2.76308" fill="white"/>
<path d="M5.50293 2.31201L5.60908 2.70004L5.44573 2.76308" fill="white"/>
<path d="M5.8291 2.59375L5.49149 2.65357L5.4856 2.79775" fill="white"/>
<path d="M5.8291 2.53857L5.56161 2.83349L5.45025 2.72356" fill="white"/>
<path d="M5.17529 2.53857L5.44278 2.83349L5.55415 2.72356" fill="white"/>
<path d="M5.17529 2.59375L5.5129 2.65357L5.5188 2.79775" fill="white"/>
<path d="M5.70508 3.04102L5.61405 2.66184L5.43558 2.73373" fill="white"/>
<path d="M5.69873 3.05029L5.427 2.82655L5.53412 2.64544" fill="white"/>
<path d="M5.29492 3.0498L5.57866 2.79891L5.48354 2.64495" fill="white"/>
<path d="M5.30127 3.0625L5.41204 2.66159L5.57076 2.71175" fill="white"/>
</g>
<defs>
<clipPath id="clip0_327_884">
<rect width="23" height="17" fill="white"/>
</clipPath>
</defs>
</svg>
