<svg width="19" height="19" viewBox="0 0 19 19" fill="none" xmlns="http://www.w3.org/2000/svg">
<g clip-path="url(#clip0_101_1185)">
<path d="M17.235 18.4736C8.0609 18.4865 1.09775 11.4405 1.10743 2.34595C1.10743 1.75126 1.58921 1.26733 2.18282 1.26733H5.02185C5.55416 1.26733 6.0069 1.65878 6.08541 2.18572C6.27263 3.44936 6.64022 4.67959 7.17693 5.83881L7.28769 6.07755C7.3621 6.2382 7.3781 6.41978 7.33295 6.59097C7.28779 6.76216 7.18431 6.91223 7.04035 7.01529C6.16068 7.64331 5.82516 8.9069 6.51019 9.89195C7.37263 11.1322 8.44905 12.209 9.68903 13.0719C10.6752 13.7558 11.9387 13.4203 12.5657 12.5417C12.6687 12.3973 12.8188 12.2934 12.9903 12.2481C13.1617 12.2027 13.3436 12.2187 13.5045 12.2933L13.7422 12.403C14.9014 12.9407 16.1317 13.3085 17.3953 13.4956C17.9222 13.5741 18.3137 14.0268 18.3137 14.5602V17.3982C18.3137 17.5395 18.2858 17.6794 18.2317 17.8099C18.1776 17.9405 18.0983 18.0591 17.9983 18.159C17.8983 18.2588 17.7796 18.338 17.6491 18.392C17.5185 18.446 17.3785 18.4737 17.2372 18.4736H17.235Z" fill="white"/>
</g>
<defs>
<clipPath id="clip0_101_1185">
<rect width="18.2327" height="18.2327" fill="white" transform="translate(0.452148 0.700684)"/>
</clipPath>
</defs>
</svg>
