<svg width="152" height="151" viewBox="0 0 152 151" fill="none" xmlns="http://www.w3.org/2000/svg">
<g opacity="0.2">
<circle cx="75.9397" cy="75.2502" r="74.5581" stroke="#FC0B38" stroke-width="1.07946"/>
<circle cx="75.9397" cy="75.2502" r="74.5581" stroke="url(#paint0_linear_116_14917)" stroke-opacity="0.35" stroke-width="1.07946"/>
</g>
<g opacity="0.5">
<circle cx="75.9392" cy="75.2505" r="63.9561" stroke="#FC0B38" stroke-width="1.07946"/>
<circle cx="75.9392" cy="75.2505" r="63.9561" stroke="url(#paint1_linear_116_14917)" stroke-opacity="0.35" stroke-width="1.07946"/>
</g>
<circle cx="76.2106" cy="75.5294" r="55.6608" fill="url(#paint2_linear_116_14917)"/>
<circle cx="76.2106" cy="75.5294" r="55.6608" fill="url(#paint3_linear_116_14917)"/>
<circle cx="76.2106" cy="75.5294" r="55.6608" fill="#FC0B38"/>
<circle cx="76.2106" cy="75.5294" r="55.6608" fill="#080707"/>
<circle cx="76.2106" cy="75.5294" r="55.6608" fill="#FC0B38"/>
<circle cx="76.2106" cy="75.5294" r="55.6608" fill="#D12023"/>
<g clip-path="url(#clip0_116_14917)">
<path d="M56.2285 94.6465H57.8159V96.213H56.2285V94.6465Z" fill="white"/>
<path d="M56.2285 94.6465H57.8159V96.213H56.2285V94.6465Z" fill="#FC0B38"/>
<path d="M56.2285 94.6465H57.8159V96.213H56.2285V94.6465Z" fill="white"/>
<path d="M59.4033 94.6465H60.9907V96.213H59.4033V94.6465Z" fill="white"/>
<path d="M59.4033 94.6465H60.9907V96.213H59.4033V94.6465Z" fill="#FC0B38"/>
<path d="M59.4033 94.6465H60.9907V96.213H59.4033V94.6465Z" fill="white"/>
<path d="M62.5801 94.6465H64.1675V96.213H62.5801V94.6465Z" fill="white"/>
<path d="M62.5801 94.6465H64.1675V96.213H62.5801V94.6465Z" fill="#FC0B38"/>
<path d="M62.5801 94.6465H64.1675V96.213H62.5801V94.6465Z" fill="white"/>
<path d="M89.5625 94.6465H95.9121V96.213H89.5625V94.6465Z" fill="white"/>
<path d="M89.5625 94.6465H95.9121V96.213H89.5625V94.6465Z" fill="#FC0B38"/>
<path d="M89.5625 94.6465H95.9121V96.213H89.5625V94.6465Z" fill="white"/>
<path d="M99.088 91.5139V65.6663C99.088 63.507 97.3076 61.75 95.1194 61.75H92.7383C92.7383 55.7031 87.7541 50.7844 81.6265 50.7844C75.499 50.7844 70.5147 55.7031 70.5147 61.75H57.0217C54.8336 61.75 53.0532 63.507 53.0532 65.6663V91.5139H51.4658V95.4302C51.4658 97.5895 53.2462 99.3465 55.4343 99.3465H96.7069C98.895 99.3465 100.675 97.5895 100.675 95.4302V91.5139H99.088ZM95.1194 63.3166C96.4321 63.3166 97.5006 64.371 97.5006 65.6663V91.5139H95.9132V66.4496C95.9132 65.5856 95.2012 64.8831 94.3257 64.8831H92.2702C92.4233 64.3756 92.5337 63.8516 92.6112 63.3166H95.1194ZM72.5633 58.8717L80.9874 62.336L83.872 70.8742C83.1504 71.0474 82.4012 71.1492 81.6265 71.1492C76.3744 71.1492 72.1021 66.933 72.1021 61.75C72.1021 60.7457 72.2664 59.7793 72.5633 58.8717ZM85.3799 70.3854L82.5345 61.9615L88.8919 55.6874C90.2983 57.3255 91.1509 59.44 91.1509 61.75C91.1509 65.6178 88.7698 68.9451 85.3799 70.3854ZM81.6265 52.3509C83.9673 52.3509 86.1101 53.1923 87.7707 54.5795L81.4416 60.8249L73.1783 57.428C74.7665 54.4158 77.9541 52.3509 81.6265 52.3509ZM54.6406 65.6663C54.6406 64.371 55.7091 63.3166 57.0217 63.3166H70.6418C70.7193 63.8516 70.829 64.3756 70.9828 64.8831H57.8154C56.94 64.8831 56.228 65.5856 56.228 66.4496V91.5139H54.6406V65.6663ZM99.088 95.4302C99.088 96.7255 98.0195 97.78 96.7069 97.78H55.4343C54.1217 97.78 53.0532 96.7255 53.0532 95.4302V93.0804H69.4051C70.5465 94.0931 72.0067 94.6469 73.5538 94.6469H78.5881C80.1352 94.6469 81.5955 94.0931 82.7368 93.0804H92.7383V91.5139H82.0916L81.859 91.7434C80.9851 92.6058 79.824 93.0804 78.5873 93.0804H73.5531C72.3172 93.0804 71.1553 92.6058 70.2814 91.7434L70.0496 91.5139H57.8154V66.4496H71.6021C73.3903 70.1483 77.205 72.7157 81.6265 72.7157C86.0481 72.7157 89.8627 70.1483 91.6509 66.4496H94.3257V93.0804H99.088V95.4302Z" fill="white"/>
<path d="M99.088 91.5139V65.6663C99.088 63.507 97.3076 61.75 95.1194 61.75H92.7383C92.7383 55.7031 87.7541 50.7844 81.6265 50.7844C75.499 50.7844 70.5147 55.7031 70.5147 61.75H57.0217C54.8336 61.75 53.0532 63.507 53.0532 65.6663V91.5139H51.4658V95.4302C51.4658 97.5895 53.2462 99.3465 55.4343 99.3465H96.7069C98.895 99.3465 100.675 97.5895 100.675 95.4302V91.5139H99.088ZM95.1194 63.3166C96.4321 63.3166 97.5006 64.371 97.5006 65.6663V91.5139H95.9132V66.4496C95.9132 65.5856 95.2012 64.8831 94.3257 64.8831H92.2702C92.4233 64.3756 92.5337 63.8516 92.6112 63.3166H95.1194ZM72.5633 58.8717L80.9874 62.336L83.872 70.8742C83.1504 71.0474 82.4012 71.1492 81.6265 71.1492C76.3744 71.1492 72.1021 66.933 72.1021 61.75C72.1021 60.7457 72.2664 59.7793 72.5633 58.8717ZM85.3799 70.3854L82.5345 61.9615L88.8919 55.6874C90.2983 57.3255 91.1509 59.44 91.1509 61.75C91.1509 65.6178 88.7698 68.9451 85.3799 70.3854ZM81.6265 52.3509C83.9673 52.3509 86.1101 53.1923 87.7707 54.5795L81.4416 60.8249L73.1783 57.428C74.7665 54.4158 77.9541 52.3509 81.6265 52.3509ZM54.6406 65.6663C54.6406 64.371 55.7091 63.3166 57.0217 63.3166H70.6418C70.7193 63.8516 70.829 64.3756 70.9828 64.8831H57.8154C56.94 64.8831 56.228 65.5856 56.228 66.4496V91.5139H54.6406V65.6663ZM99.088 95.4302C99.088 96.7255 98.0195 97.78 96.7069 97.78H55.4343C54.1217 97.78 53.0532 96.7255 53.0532 95.4302V93.0804H69.4051C70.5465 94.0931 72.0067 94.6469 73.5538 94.6469H78.5881C80.1352 94.6469 81.5955 94.0931 82.7368 93.0804H92.7383V91.5139H82.0916L81.859 91.7434C80.9851 92.6058 79.824 93.0804 78.5873 93.0804H73.5531C72.3172 93.0804 71.1553 92.6058 70.2814 91.7434L70.0496 91.5139H57.8154V66.4496H71.6021C73.3903 70.1483 77.205 72.7157 81.6265 72.7157C86.0481 72.7157 89.8627 70.1483 91.6509 66.4496H94.3257V93.0804H99.088V95.4302Z" fill="#FC0B38"/>
<path d="M99.088 91.5139V65.6663C99.088 63.507 97.3076 61.75 95.1194 61.75H92.7383C92.7383 55.7031 87.7541 50.7844 81.6265 50.7844C75.499 50.7844 70.5147 55.7031 70.5147 61.75H57.0217C54.8336 61.75 53.0532 63.507 53.0532 65.6663V91.5139H51.4658V95.4302C51.4658 97.5895 53.2462 99.3465 55.4343 99.3465H96.7069C98.895 99.3465 100.675 97.5895 100.675 95.4302V91.5139H99.088ZM95.1194 63.3166C96.4321 63.3166 97.5006 64.371 97.5006 65.6663V91.5139H95.9132V66.4496C95.9132 65.5856 95.2012 64.8831 94.3257 64.8831H92.2702C92.4233 64.3756 92.5337 63.8516 92.6112 63.3166H95.1194ZM72.5633 58.8717L80.9874 62.336L83.872 70.8742C83.1504 71.0474 82.4012 71.1492 81.6265 71.1492C76.3744 71.1492 72.1021 66.933 72.1021 61.75C72.1021 60.7457 72.2664 59.7793 72.5633 58.8717ZM85.3799 70.3854L82.5345 61.9615L88.8919 55.6874C90.2983 57.3255 91.1509 59.44 91.1509 61.75C91.1509 65.6178 88.7698 68.9451 85.3799 70.3854ZM81.6265 52.3509C83.9673 52.3509 86.1101 53.1923 87.7707 54.5795L81.4416 60.8249L73.1783 57.428C74.7665 54.4158 77.9541 52.3509 81.6265 52.3509ZM54.6406 65.6663C54.6406 64.371 55.7091 63.3166 57.0217 63.3166H70.6418C70.7193 63.8516 70.829 64.3756 70.9828 64.8831H57.8154C56.94 64.8831 56.228 65.5856 56.228 66.4496V91.5139H54.6406V65.6663ZM99.088 95.4302C99.088 96.7255 98.0195 97.78 96.7069 97.78H55.4343C54.1217 97.78 53.0532 96.7255 53.0532 95.4302V93.0804H69.4051C70.5465 94.0931 72.0067 94.6469 73.5538 94.6469H78.5881C80.1352 94.6469 81.5955 94.0931 82.7368 93.0804H92.7383V91.5139H82.0916L81.859 91.7434C80.9851 92.6058 79.824 93.0804 78.5873 93.0804H73.5531C72.3172 93.0804 71.1553 92.6058 70.2814 91.7434L70.0496 91.5139H57.8154V66.4496H71.6021C73.3903 70.1483 77.205 72.7157 81.6265 72.7157C86.0481 72.7157 89.8627 70.1483 91.6509 66.4496H94.3257V93.0804H99.088V95.4302Z" fill="white"/>
<path d="M90.3577 83.681C89.8706 83.681 89.4171 83.8275 89.0393 84.0765L86.2702 82.0277C86.3408 81.8058 86.3892 81.5748 86.3892 81.3312C86.3892 80.0359 85.3207 78.9814 84.0081 78.9814C82.6955 78.9814 81.627 80.0359 81.627 81.3312C81.627 81.6008 81.6824 81.8559 81.7673 82.0973L77.3221 85.607C76.9578 85.3829 76.5315 85.2475 76.0711 85.2475C75.537 85.2475 75.0487 85.4284 74.6511 85.7221L71.2286 83.4703C71.2763 83.2863 71.3089 83.0966 71.3089 82.8977C71.3089 81.6024 70.2404 80.548 68.9277 80.548C67.6151 80.548 66.5466 81.6024 66.5466 82.8977C66.5466 83.0966 66.5792 83.2863 66.6269 83.4703L63.2044 85.7221C62.8068 85.4276 62.3185 85.2475 61.7844 85.2475C60.4718 85.2475 59.4033 86.3019 59.4033 87.5973C59.4033 88.8927 60.4718 89.9471 61.7844 89.9471C63.0971 89.9471 64.1655 88.8927 64.1655 87.5973C64.1655 87.3984 64.133 87.2087 64.0853 87.0248L67.5078 84.7729C67.9054 85.0674 68.3937 85.2475 68.9277 85.2475C69.4618 85.2475 69.9501 85.0674 70.3477 84.7729L73.7702 87.0248C73.7225 87.2087 73.69 87.3992 73.69 87.5973C73.69 88.8927 74.7584 89.9471 76.0711 89.9471C77.3837 89.9471 78.4522 88.8927 78.4522 87.5973C78.4522 87.3277 78.3968 87.0726 78.3119 86.8312L82.7571 83.3215C83.1214 83.5456 83.5477 83.681 84.0081 83.681C84.4952 83.681 84.9487 83.5345 85.3265 83.2855L88.0956 85.3343C88.025 85.5562 87.9766 85.7872 87.9766 86.0308C87.9766 87.3261 89.0451 88.3806 90.3577 88.3806C91.6703 88.3806 92.7388 87.3261 92.7388 86.0308C92.7388 84.7354 91.6703 83.681 90.3577 83.681ZM61.7844 88.3806C61.3473 88.3806 60.9907 88.0287 60.9907 87.5973C60.9907 87.1659 61.3473 86.814 61.7844 86.814C62.2216 86.814 62.5781 87.1659 62.5781 87.5973C62.5781 88.0287 62.2216 88.3806 61.7844 88.3806ZM68.9277 83.681C68.4906 83.681 68.134 83.3291 68.134 82.8977C68.134 82.4663 68.4906 82.1145 68.9277 82.1145C69.3649 82.1145 69.7214 82.4663 69.7214 82.8977C69.7214 83.3291 69.3649 83.681 68.9277 83.681ZM76.0711 88.3806C75.6339 88.3806 75.2774 88.0287 75.2774 87.5973C75.2774 87.1659 75.6339 86.814 76.0711 86.814C76.5082 86.814 76.8648 87.1659 76.8648 87.5973C76.8648 88.0287 76.5082 88.3806 76.0711 88.3806ZM84.0081 82.1145C83.5709 82.1145 83.2144 81.7626 83.2144 81.3312C83.2144 80.8998 83.5709 80.548 84.0081 80.548C84.4452 80.548 84.8018 80.8998 84.8018 81.3312C84.8018 81.7626 84.4452 82.1145 84.0081 82.1145ZM90.3577 86.814C89.9206 86.814 89.564 86.4622 89.564 86.0308C89.564 85.5994 89.9206 85.2475 90.3577 85.2475C90.7949 85.2475 91.1514 85.5994 91.1514 86.0308C91.1514 86.4622 90.7949 86.814 90.3577 86.814Z" fill="white"/>
<path d="M90.3577 83.681C89.8706 83.681 89.4171 83.8275 89.0393 84.0765L86.2702 82.0277C86.3408 81.8058 86.3892 81.5748 86.3892 81.3312C86.3892 80.0359 85.3207 78.9814 84.0081 78.9814C82.6955 78.9814 81.627 80.0359 81.627 81.3312C81.627 81.6008 81.6824 81.8559 81.7673 82.0973L77.3221 85.607C76.9578 85.3829 76.5315 85.2475 76.0711 85.2475C75.537 85.2475 75.0487 85.4284 74.6511 85.7221L71.2286 83.4703C71.2763 83.2863 71.3089 83.0966 71.3089 82.8977C71.3089 81.6024 70.2404 80.548 68.9277 80.548C67.6151 80.548 66.5466 81.6024 66.5466 82.8977C66.5466 83.0966 66.5792 83.2863 66.6269 83.4703L63.2044 85.7221C62.8068 85.4276 62.3185 85.2475 61.7844 85.2475C60.4718 85.2475 59.4033 86.3019 59.4033 87.5973C59.4033 88.8927 60.4718 89.9471 61.7844 89.9471C63.0971 89.9471 64.1655 88.8927 64.1655 87.5973C64.1655 87.3984 64.133 87.2087 64.0853 87.0248L67.5078 84.7729C67.9054 85.0674 68.3937 85.2475 68.9277 85.2475C69.4618 85.2475 69.9501 85.0674 70.3477 84.7729L73.7702 87.0248C73.7225 87.2087 73.69 87.3992 73.69 87.5973C73.69 88.8927 74.7584 89.9471 76.0711 89.9471C77.3837 89.9471 78.4522 88.8927 78.4522 87.5973C78.4522 87.3277 78.3968 87.0726 78.3119 86.8312L82.7571 83.3215C83.1214 83.5456 83.5477 83.681 84.0081 83.681C84.4952 83.681 84.9487 83.5345 85.3265 83.2855L88.0956 85.3343C88.025 85.5562 87.9766 85.7872 87.9766 86.0308C87.9766 87.3261 89.0451 88.3806 90.3577 88.3806C91.6703 88.3806 92.7388 87.3261 92.7388 86.0308C92.7388 84.7354 91.6703 83.681 90.3577 83.681ZM61.7844 88.3806C61.3473 88.3806 60.9907 88.0287 60.9907 87.5973C60.9907 87.1659 61.3473 86.814 61.7844 86.814C62.2216 86.814 62.5781 87.1659 62.5781 87.5973C62.5781 88.0287 62.2216 88.3806 61.7844 88.3806ZM68.9277 83.681C68.4906 83.681 68.134 83.3291 68.134 82.8977C68.134 82.4663 68.4906 82.1145 68.9277 82.1145C69.3649 82.1145 69.7214 82.4663 69.7214 82.8977C69.7214 83.3291 69.3649 83.681 68.9277 83.681ZM76.0711 88.3806C75.6339 88.3806 75.2774 88.0287 75.2774 87.5973C75.2774 87.1659 75.6339 86.814 76.0711 86.814C76.5082 86.814 76.8648 87.1659 76.8648 87.5973C76.8648 88.0287 76.5082 88.3806 76.0711 88.3806ZM84.0081 82.1145C83.5709 82.1145 83.2144 81.7626 83.2144 81.3312C83.2144 80.8998 83.5709 80.548 84.0081 80.548C84.4452 80.548 84.8018 80.8998 84.8018 81.3312C84.8018 81.7626 84.4452 82.1145 84.0081 82.1145ZM90.3577 86.814C89.9206 86.814 89.564 86.4622 89.564 86.0308C89.564 85.5994 89.9206 85.2475 90.3577 85.2475C90.7949 85.2475 91.1514 85.5994 91.1514 86.0308C91.1514 86.4622 90.7949 86.814 90.3577 86.814Z" fill="#FC0B38"/>
<path d="M90.3577 83.681C89.8706 83.681 89.4171 83.8275 89.0393 84.0765L86.2702 82.0277C86.3408 81.8058 86.3892 81.5748 86.3892 81.3312C86.3892 80.0359 85.3207 78.9814 84.0081 78.9814C82.6955 78.9814 81.627 80.0359 81.627 81.3312C81.627 81.6008 81.6824 81.8559 81.7673 82.0973L77.3221 85.607C76.9578 85.3829 76.5315 85.2475 76.0711 85.2475C75.537 85.2475 75.0487 85.4284 74.6511 85.7221L71.2286 83.4703C71.2763 83.2863 71.3089 83.0966 71.3089 82.8977C71.3089 81.6024 70.2404 80.548 68.9277 80.548C67.6151 80.548 66.5466 81.6024 66.5466 82.8977C66.5466 83.0966 66.5792 83.2863 66.6269 83.4703L63.2044 85.7221C62.8068 85.4276 62.3185 85.2475 61.7844 85.2475C60.4718 85.2475 59.4033 86.3019 59.4033 87.5973C59.4033 88.8927 60.4718 89.9471 61.7844 89.9471C63.0971 89.9471 64.1655 88.8927 64.1655 87.5973C64.1655 87.3984 64.133 87.2087 64.0853 87.0248L67.5078 84.7729C67.9054 85.0674 68.3937 85.2475 68.9277 85.2475C69.4618 85.2475 69.9501 85.0674 70.3477 84.7729L73.7702 87.0248C73.7225 87.2087 73.69 87.3992 73.69 87.5973C73.69 88.8927 74.7584 89.9471 76.0711 89.9471C77.3837 89.9471 78.4522 88.8927 78.4522 87.5973C78.4522 87.3277 78.3968 87.0726 78.3119 86.8312L82.7571 83.3215C83.1214 83.5456 83.5477 83.681 84.0081 83.681C84.4952 83.681 84.9487 83.5345 85.3265 83.2855L88.0956 85.3343C88.025 85.5562 87.9766 85.7872 87.9766 86.0308C87.9766 87.3261 89.0451 88.3806 90.3577 88.3806C91.6703 88.3806 92.7388 87.3261 92.7388 86.0308C92.7388 84.7354 91.6703 83.681 90.3577 83.681ZM61.7844 88.3806C61.3473 88.3806 60.9907 88.0287 60.9907 87.5973C60.9907 87.1659 61.3473 86.814 61.7844 86.814C62.2216 86.814 62.5781 87.1659 62.5781 87.5973C62.5781 88.0287 62.2216 88.3806 61.7844 88.3806ZM68.9277 83.681C68.4906 83.681 68.134 83.3291 68.134 82.8977C68.134 82.4663 68.4906 82.1145 68.9277 82.1145C69.3649 82.1145 69.7214 82.4663 69.7214 82.8977C69.7214 83.3291 69.3649 83.681 68.9277 83.681ZM76.0711 88.3806C75.6339 88.3806 75.2774 88.0287 75.2774 87.5973C75.2774 87.1659 75.6339 86.814 76.0711 86.814C76.5082 86.814 76.8648 87.1659 76.8648 87.5973C76.8648 88.0287 76.5082 88.3806 76.0711 88.3806ZM84.0081 82.1145C83.5709 82.1145 83.2144 81.7626 83.2144 81.3312C83.2144 80.8998 83.5709 80.548 84.0081 80.548C84.4452 80.548 84.8018 80.8998 84.8018 81.3312C84.8018 81.7626 84.4452 82.1145 84.0081 82.1145ZM90.3577 86.814C89.9206 86.814 89.564 86.4622 89.564 86.0308C89.564 85.5994 89.9206 85.2475 90.3577 85.2475C90.7949 85.2475 91.1514 85.5994 91.1514 86.0308C91.1514 86.4622 90.7949 86.814 90.3577 86.814Z" fill="white"/>
<path d="M72.1026 68.0156H59.4033V78.9812H72.1026V68.0156ZM70.5152 77.4147H60.9907V69.5821H70.5152V77.4147Z" fill="white"/>
<path d="M72.1026 68.0156H59.4033V78.9812H72.1026V68.0156ZM70.5152 77.4147H60.9907V69.5821H70.5152V77.4147Z" fill="#FC0B38"/>
<path d="M72.1026 68.0156H59.4033V78.9812H72.1026V68.0156ZM70.5152 77.4147H60.9907V69.5821H70.5152V77.4147Z" fill="white"/>
<path d="M62.5801 71.1497H68.9297V72.7162H62.5801V71.1497Z" fill="white"/>
<path d="M62.5801 71.1497H68.9297V72.7162H62.5801V71.1497Z" fill="#FC0B38"/>
<path d="M62.5801 71.1497H68.9297V72.7162H62.5801V71.1497Z" fill="white"/>
<path d="M62.5801 74.2812H68.9297V75.8478H62.5801V74.2812Z" fill="white"/>
<path d="M62.5801 74.2812H68.9297V75.8478H62.5801V74.2812Z" fill="#FC0B38"/>
<path d="M62.5801 74.2812H68.9297V75.8478H62.5801V74.2812Z" fill="white"/>
<path d="M73.6885 75.8486H75.2759V77.4151H73.6885V75.8486Z" fill="white"/>
<path d="M73.6885 75.8486H75.2759V77.4151H73.6885V75.8486Z" fill="#FC0B38"/>
<path d="M73.6885 75.8486H75.2759V77.4151H73.6885V75.8486Z" fill="white"/>
<path d="M76.8633 75.8486H92.7373V77.4151H76.8633V75.8486Z" fill="white"/>
<path d="M76.8633 75.8486H92.7373V77.4151H76.8633V75.8486Z" fill="#FC0B38"/>
<path d="M76.8633 75.8486H92.7373V77.4151H76.8633V75.8486Z" fill="white"/>
</g>
<defs>
<linearGradient id="paint0_linear_116_14917" x1="119.521" y1="97.4132" x2="44.9518" y2="41.9576" gradientUnits="userSpaceOnUse">
<stop stop-color="#FF2969"/>
<stop offset="1" stop-color="#F77A1C"/>
</linearGradient>
<linearGradient id="paint1_linear_116_14917" x1="113.368" y1="94.2846" x2="49.3261" y2="46.658" gradientUnits="userSpaceOnUse">
<stop stop-color="#FF2969"/>
<stop offset="1" stop-color="#F77A1C"/>
</linearGradient>
<linearGradient id="paint2_linear_116_14917" x1="76.2106" y1="19.8687" x2="76.2106" y2="131.19" gradientUnits="userSpaceOnUse">
<stop stop-color="#9F3FC0"/>
<stop offset="1" stop-color="#6F3584"/>
</linearGradient>
<linearGradient id="paint3_linear_116_14917" x1="76.2106" y1="19.8687" x2="79.3099" y2="203.349" gradientUnits="userSpaceOnUse">
<stop stop-color="#FFB547"/>
<stop offset="1" stop-color="#FF6767"/>
</linearGradient>
<clipPath id="clip0_116_14917">
<rect width="49.4646" height="48.7776" fill="white" transform="translate(51.4658 50.7844)"/>
</clipPath>
</defs>
</svg>
