<svg width="23" height="17" viewBox="0 0 23 17" fill="none" xmlns="http://www.w3.org/2000/svg">
<g clip-path="url(#clip0_327_872)">
<path d="M0.136719 13.8551C0.136719 14.5034 0.394258 15.1251 0.85268 15.5836C1.3111 16.042 1.93286 16.2995 2.58116 16.2995H19.6923C20.3406 16.2995 20.9623 16.042 21.4208 15.5836C21.8792 15.1251 22.1367 14.5034 22.1367 13.8551V11.4106H0.136719V13.8551Z" fill="#FFCD05"/>
<path d="M0.136719 5.91113H22.1367V11.4111H0.136719V5.91113Z" fill="#ED1F24"/>
<path d="M19.6923 0.410645H2.58116C1.93286 0.410645 1.3111 0.668183 0.85268 1.12661C0.394258 1.58503 0.136719 2.20678 0.136719 2.85509L0.136719 5.91064H22.1367V2.85509C22.1367 2.20678 21.8792 1.58503 21.4208 1.12661C20.9623 0.668183 20.3406 0.410645 19.6923 0.410645V0.410645Z" fill="#141414"/>
<g clip-path="url(#clip1_327_872)">
<path d="M24.1866 -0.929606C15.998 -2.90054 7.80937 1.48758 -0.384375 -0.488668C-0.841295 -0.594918 -1.21094 -0.323981 -1.21094 0.148832V16.8513C-1.21094 17.3241 -0.841295 17.8182 -0.384375 17.9298C7.80424 19.9007 15.9929 15.5126 24.1866 17.4888C24.6435 17.6004 25.0132 17.3295 25.0132 16.8566V0.154144C25.0132 -0.323981 24.6435 -0.818043 24.1866 -0.929606Z" fill="#0B67B2"/>
<path d="M25.0132 0.148535C25.0132 -0.324277 24.6435 -0.81834 24.1866 -0.929903C24.1353 -0.940528 24.0788 -0.956465 24.0275 -0.96709L14.9045 4.78103V-1.12646C12.9022 -0.876777 10.9 -0.536778 8.89777 -0.28709V4.71728L1.09933 -0.196777C0.606473 -0.271152 0.113616 -0.366777 -0.384375 -0.488965C-0.841295 -0.595215 -1.21094 -0.324277 -1.21094 0.148535V1.25353L5.36049 5.39197H-1.21094V11.6076H5.66339L-1.21094 15.9373V16.851C-1.21094 17.3238 -0.841295 17.8179 -0.384375 17.9295C-0.230357 17.9667 -0.0763394 17.9985 0.0725445 18.0304L8.89263 12.4682V18.1207C10.8949 17.871 12.8971 17.531 14.8993 17.2813V12.3992L22.4411 17.1592C23.0212 17.2388 23.6013 17.3451 24.1815 17.4885C24.6384 17.6001 25.008 17.3292 25.008 16.8563V15.8788L18.2364 11.6129H25.008V5.39729H18.5393L25.008 1.3226C25.0132 0.92416 25.0132 0.536348 25.0132 0.148535V0.148535Z" fill="#FF473E"/>
<path d="M19.9871 12.0861L25.0132 15.2523V16.4954L18.0156 12.0861H15.3819L23.817 17.4039C22.9647 17.2179 22.1074 17.1011 21.2551 17.032L15.3665 13.3239V17.2339C15.0585 17.2711 14.7504 17.3082 14.4424 17.3507V11.1351H25.0132V12.0914H19.9871V12.0861ZM8.43571 18.1848C8.74375 18.1476 9.05178 18.1104 9.35982 18.0679V11.1298H-1.21094V12.0861H3.91786L-1.21094 15.3161V16.5592L5.88929 12.0861H8.43571V12.1392L-0.610268 17.8395C-0.538393 17.8767 -0.461384 17.9086 -0.384375 17.9298C0.0212052 18.0254 0.426785 18.1104 0.832366 18.1795L8.43571 13.3876V18.1848V18.1848ZM-1.21094 4.91418V5.87043H9.35982V-0.345195C9.05178 -0.302695 8.74375 -0.265508 8.43571 -0.22832V3.80918L2.31607 -0.0476953C1.43304 -0.127383 0.55 -0.260195 -0.333036 -0.472695L8.21495 4.91418H5.58125L-1.21094 0.632305V1.87543L3.61495 4.91418H-1.21094ZM15.3665 -1.18457C15.0585 -1.14738 14.7504 -1.1102 14.4424 -1.0677V5.87043H25.0132V4.91418H20.29L25.0132 1.93918V0.696055L18.3185 4.91418H15.6848L24.6025 -0.706445C24.4792 -0.812695 24.3406 -0.892383 24.1866 -0.92957C23.8837 -1.00395 23.5859 -1.06238 23.283 -1.12082L15.3665 3.86762V-1.18457Z" fill="#E8E8E8"/>
</g>
</g>
<defs>
<clipPath id="clip0_327_872">
<rect width="23" height="17" fill="white"/>
</clipPath>
<clipPath id="clip1_327_872">
<rect width="26.2857" height="27.2" fill="white" transform="translate(-1.21094 -5.1001)"/>
</clipPath>
</defs>
</svg>
