<svg width="165" height="158" viewBox="0 0 165 158" fill="none" xmlns="http://www.w3.org/2000/svg">
<g opacity="0.2">
<path d="M157.102 79.2265C157.102 122.132 122.27 156.915 79.3013 156.915C36.3327 156.915 1.5011 122.132 1.5011 79.2265C1.5011 36.3212 36.3327 1.53821 79.3013 1.53821C122.27 1.53821 157.102 36.3212 157.102 79.2265Z" stroke="url(#paint0_linear_101_707)" stroke-width="1.15454"/>
<path d="M157.102 79.2265C157.102 122.132 122.27 156.915 79.3013 156.915C36.3327 156.915 1.5011 122.132 1.5011 79.2265C1.5011 36.3212 36.3327 1.53821 79.3013 1.53821C122.27 1.53821 157.102 36.3212 157.102 79.2265Z" stroke="#F67939" stroke-width="1.15454"/>
<path d="M157.102 79.2265C157.102 122.132 122.27 156.915 79.3013 156.915C36.3327 156.915 1.5011 122.132 1.5011 79.2265C1.5011 36.3212 36.3327 1.53821 79.3013 1.53821C122.27 1.53821 157.102 36.3212 157.102 79.2265Z" stroke="#3F93FF" stroke-width="1.15454"/>
</g>
<g opacity="0.5">
<path d="M147.84 79.2288C147.84 117.03 117.312 147.669 79.6589 147.669C42.0055 147.669 11.4777 117.03 11.4777 79.2288C11.4777 41.428 42.0055 10.7882 79.6589 10.7882C117.312 10.7882 147.84 41.428 147.84 79.2288Z" stroke="url(#paint1_linear_101_707)" stroke-width="1.15454"/>
<path d="M147.84 79.2288C147.84 117.03 117.312 147.669 79.6589 147.669C42.0055 147.669 11.4777 117.03 11.4777 79.2288C11.4777 41.428 42.0055 10.7882 79.6589 10.7882C117.312 10.7882 147.84 41.428 147.84 79.2288Z" stroke="#F67939" stroke-width="1.15454"/>
<path d="M147.84 79.2288C147.84 117.03 117.312 147.669 79.6589 147.669C42.0055 147.669 11.4777 117.03 11.4777 79.2288C11.4777 41.428 42.0055 10.7882 79.6589 10.7882C117.312 10.7882 147.84 41.428 147.84 79.2288Z" stroke="#3F93FF" stroke-width="1.15454"/>
</g>
<ellipse cx="79.6562" cy="78.871" rx="58.7831" ry="58.6992" fill="#6563CC"/>
<ellipse cx="79.6562" cy="78.871" rx="58.7831" ry="58.6992" fill="url(#paint2_linear_101_707)"/>
<ellipse cx="79.6562" cy="78.871" rx="58.7831" ry="58.6992" fill="url(#paint3_linear_101_707)"/>
<ellipse cx="79.6562" cy="78.871" rx="58.7831" ry="58.6992" fill="url(#paint4_linear_101_707)"/>
<ellipse cx="79.6562" cy="78.871" rx="58.7831" ry="58.6992" fill="#003255"/>
<path d="M79.6559 55.9545C67.0103 55.9545 56.7393 66.2256 56.7393 78.8712C56.7393 91.5168 67.0103 101.788 79.6559 101.788C92.3015 101.788 102.573 91.5168 102.573 78.8712C102.573 66.2256 92.3015 55.9545 79.6559 55.9545ZM79.6559 99.7999C68.1148 99.7999 58.7272 90.4124 58.7272 78.8712C58.7272 67.33 68.1148 57.9425 79.6559 57.9425C91.1971 57.9425 100.585 67.33 100.585 78.8712C100.585 90.4124 91.1971 99.7999 79.6559 99.7999Z" fill="white"/>
<path fill-rule="evenodd" clip-rule="evenodd" d="M56.1665 78.8711C56.1665 65.9091 66.6941 55.3815 79.6561 55.3815C92.6181 55.3815 103.146 65.9091 103.146 78.8711C103.146 91.8331 92.6181 102.361 79.6561 102.361C66.6941 102.361 56.1665 91.8331 56.1665 78.8711ZM79.6561 56.5274C67.3269 56.5274 57.3123 66.5419 57.3123 78.8711C57.3123 91.2003 67.3269 101.215 79.6561 101.215C91.9853 101.215 102 91.2003 102 78.8711C102 66.5419 91.9853 56.5274 79.6561 56.5274ZM79.6561 58.5153C68.4313 58.5153 59.3003 67.6464 59.3003 78.8711C59.3003 90.0959 68.4313 99.2269 79.6561 99.2269C90.8808 99.2269 100.012 90.0959 100.012 78.8711C100.012 67.6464 90.8808 58.5153 79.6561 58.5153ZM58.1545 78.8711C58.1545 67.0135 67.7985 57.3695 79.6561 57.3695C91.5137 57.3695 101.158 67.0135 101.158 78.8711C101.158 90.7287 91.5137 100.373 79.6561 100.373C67.7985 100.373 58.1545 90.7287 58.1545 78.8711Z" fill="white"/>
<rect x="75.0737" y="67.4128" width="9.16667" height="22.9167" fill="white"/>
<rect x="68.1987" y="83.4544" width="9.16667" height="22.9167" transform="rotate(-90 68.1987 83.4544)" fill="white"/>
<path d="M91.5843 73.9012H84.6264V66.9434C84.6264 66.3912 84.1847 65.9494 83.6325 65.9494H75.6806C75.1284 65.9494 74.6867 66.3912 74.6867 66.9434V73.9012H67.7288C67.1766 73.9012 66.7349 74.343 66.7349 74.8952V82.847C66.7349 83.3992 67.1766 83.841 67.7288 83.841H74.6867V90.7988C74.6867 91.351 75.1284 91.7928 75.6806 91.7928H83.6325C84.1847 91.7928 84.6264 91.351 84.6264 90.7988V83.841H91.5843C92.1365 83.841 92.5782 83.3992 92.5782 82.847V74.8952C92.523 74.343 92.0812 73.9012 91.5843 73.9012ZM90.6455 81.8531H90.5903H83.6325C83.0802 81.8531 82.6385 82.2948 82.6385 82.847V89.8049H76.6746V82.847C76.6746 82.2948 76.2329 81.8531 75.6806 81.8531H68.7228V75.8892H75.6806C76.2329 75.8892 76.6746 75.4474 76.6746 74.8952V67.9374H82.6937V74.8952C82.6937 75.4474 83.1355 75.8892 83.6877 75.8892H90.6455V81.8531Z" fill="white"/>
<rect width="11.3939" height="11.3798" rx="3.25583" transform="matrix(-0.966018 -0.258475 -0.259164 0.965833 164.092 84.7695)" fill="#F3A100"/>
<rect width="5.14544" height="5.13981" rx="1.62791" transform="matrix(0.939851 -0.341585 -0.342455 -0.939534 31.8926 18.6758)" fill="#F75E1C"/>
<rect width="8.09505" height="8.08619" rx="1.62791" transform="matrix(0.939848 -0.341593 -0.342447 -0.939537 15.7012 131.969)" fill="#2089E1"/>
<defs>
<linearGradient id="paint0_linear_101_707" x1="0.923828" y1="79.2265" x2="143.22" y2="94.4667" gradientUnits="userSpaceOnUse">
<stop stop-color="#2C27FF"/>
<stop offset="1" stop-color="#00B6E9"/>
</linearGradient>
<linearGradient id="paint1_linear_101_707" x1="10.9004" y1="79.2288" x2="135.748" y2="92.5309" gradientUnits="userSpaceOnUse">
<stop stop-color="#2C27FF"/>
<stop offset="1" stop-color="#00B6E9"/>
</linearGradient>
<linearGradient id="paint2_linear_101_707" x1="-58.6204" y1="129.086" x2="-18.2448" y2="-8.10472" gradientUnits="userSpaceOnUse">
<stop stop-color="#FFE259"/>
<stop offset="1" stop-color="#FFA751"/>
</linearGradient>
<linearGradient id="paint3_linear_101_707" x1="-58.6204" y1="129.086" x2="-18.2448" y2="-8.10472" gradientUnits="userSpaceOnUse">
<stop stop-color="#FD916B"/>
<stop offset="1" stop-color="#FB6259"/>
</linearGradient>
<linearGradient id="paint4_linear_101_707" x1="63.3131" y1="66.8264" x2="167.062" y2="154.92" gradientUnits="userSpaceOnUse">
<stop stop-color="#4489FF"/>
<stop offset="1" stop-color="#22BDFF"/>
</linearGradient>
</defs>
</svg>
