<svg width="178" height="171" viewBox="0 0 178 171" fill="none" xmlns="http://www.w3.org/2000/svg">
<g opacity="0.2">
<circle cx="85.5187" cy="85.3024" r="84.3892" stroke="url(#paint0_linear_117_850)" stroke-width="1.13393"/>
<circle cx="85.5187" cy="85.3024" r="84.3892" stroke="#F67939" stroke-width="1.13393"/>
<circle cx="85.5187" cy="85.3024" r="84.3892" stroke="url(#paint1_linear_117_850)" stroke-opacity="0.35" stroke-width="1.13393"/>
</g>
<g opacity="0.5">
<path d="M159.867 85.3044C159.867 126.37 126.75 159.655 85.9047 159.655C45.059 159.655 11.942 126.37 11.942 85.3044C11.942 44.2387 45.059 10.9534 85.9047 10.9534C126.75 10.9534 159.867 44.2387 159.867 85.3044Z" stroke="url(#paint2_linear_117_850)" stroke-width="1.13393"/>
<path d="M159.867 85.3044C159.867 126.37 126.75 159.655 85.9047 159.655C45.059 159.655 11.942 126.37 11.942 85.3044C11.942 44.2387 45.059 10.9534 85.9047 10.9534C126.75 10.9534 159.867 44.2387 159.867 85.3044Z" stroke="#F67939" stroke-width="1.13393"/>
<path d="M159.867 85.3044C159.867 126.37 126.75 159.655 85.9047 159.655C45.059 159.655 11.942 126.37 11.942 85.3044C11.942 44.2387 45.059 10.9534 85.9047 10.9534C126.75 10.9534 159.867 44.2387 159.867 85.3044Z" stroke="url(#paint3_linear_117_850)" stroke-opacity="0.35" stroke-width="1.13393"/>
</g>
<circle cx="85.9046" cy="84.9163" r="63.7171" fill="#003255"/>
<g clip-path="url(#clip0_117_850)">
<path d="M116.654 79.0913C116.078 78.1715 115.535 77.3026 115.331 76.5419C115.112 75.7221 115.146 74.6621 115.183 73.5398C115.242 71.7363 115.308 69.6922 114.283 67.9203C113.243 66.1237 111.426 65.1569 109.822 64.3041C108.843 63.7836 107.919 63.2919 107.338 62.7109C106.757 62.13 106.265 61.2055 105.744 60.2268C104.892 58.6229 103.925 56.8052 102.128 55.7658C100.356 54.7406 98.3123 54.8065 96.5087 54.8656C95.3862 54.9018 94.3262 54.9363 93.5065 54.7173C92.7457 54.5139 91.8769 53.9702 90.957 53.3947C89.4027 52.4223 87.6409 51.3198 85.5187 51.3198C83.3966 51.3198 81.6347 52.4223 80.0802 53.3948C79.1604 53.9704 78.2915 54.5141 77.5306 54.7175C76.7109 54.9365 75.651 54.9019 74.5285 54.8657C72.7252 54.8069 70.6811 54.7407 68.9092 55.7659C67.1125 56.8054 66.1458 58.6232 65.2928 60.2269C64.7723 61.2056 64.2806 62.1301 63.6997 62.711C63.1188 63.2918 62.1944 63.7836 61.2156 64.3041C59.6118 65.1569 57.7942 66.1237 56.7546 67.9204C55.7294 69.6924 55.7958 71.7365 55.8542 73.5399C55.8907 74.6622 55.9251 75.7223 55.706 76.5421C55.5025 77.303 54.959 78.1718 54.3833 79.0916C53.4111 80.6459 52.3086 82.4078 52.3086 84.53C52.3086 86.6521 53.4111 88.414 54.3837 89.9686C54.9593 90.8884 55.5029 91.7574 55.7064 92.518C55.9254 93.3378 55.891 94.3978 55.8545 95.5202C55.7959 97.3236 55.7295 99.3677 56.7547 101.14C57.7942 102.936 59.6119 103.903 61.2156 104.756C62.1944 105.276 63.1188 105.768 63.6998 106.349C64.2807 106.93 64.7723 107.854 65.293 108.833C66.1458 110.437 67.1126 112.255 68.9093 113.294C70.6813 114.319 72.725 114.253 74.5288 114.194C75.6511 114.158 76.7112 114.124 77.5309 114.343C78.2917 114.546 79.1606 115.09 80.0805 115.665C81.6347 116.638 83.3966 117.74 85.5187 117.74C87.6409 117.74 89.4027 116.638 90.9572 115.665C91.877 115.09 92.746 114.546 93.5068 114.342C94.3266 114.123 95.3865 114.158 96.5089 114.194C98.3122 114.253 100.356 114.319 102.128 113.294C103.925 112.255 104.892 110.437 105.745 108.833C106.265 107.854 106.757 106.93 107.338 106.349C107.919 105.768 108.843 105.276 109.822 104.756C111.426 103.903 113.243 102.936 114.283 101.139C115.308 99.3676 115.242 97.3234 115.183 95.52C115.147 94.3977 115.112 93.3376 115.331 92.5178C115.535 91.757 116.078 90.8881 116.654 89.9683C117.626 88.414 118.729 86.6521 118.729 84.53C118.729 82.4078 117.626 80.6459 116.654 79.0913ZM113.329 87.8878C112.625 89.0125 111.897 90.1756 111.542 91.5051C111.173 92.8853 111.218 94.2894 111.262 95.6475C111.308 97.0498 111.351 98.3741 110.887 99.1752C110.41 100 109.23 100.628 107.98 101.293C106.79 101.926 105.559 102.58 104.564 103.575C103.569 104.571 102.914 105.801 102.281 106.991C101.617 108.241 100.989 109.422 100.164 109.899C99.3628 110.362 98.0383 110.319 96.6362 110.274C95.2782 110.23 93.8741 110.184 92.4939 110.553C91.1643 110.908 90.0013 111.636 88.8765 112.34C87.6621 113.1 86.5149 113.818 85.5187 113.818C84.5226 113.818 83.3755 113.1 82.161 112.34C81.0361 111.636 79.8731 110.908 78.5436 110.553C77.6179 110.305 76.6813 110.245 75.7551 110.245C75.3005 110.245 74.8483 110.259 74.4013 110.274C72.999 110.319 71.6747 110.363 70.8736 109.899C70.0486 109.422 69.4208 108.241 68.7561 106.991C68.1232 105.801 67.4688 104.571 66.4735 103.575C65.4782 102.58 64.2476 101.926 63.0576 101.293C61.8077 100.628 60.6272 100 60.15 99.1754C59.6865 98.3741 59.7295 97.0498 59.775 95.6476C59.8191 94.2897 59.8647 92.8854 59.4958 91.5053C59.1405 90.1758 58.4127 89.0128 57.709 87.8881C56.9489 86.6735 56.2311 85.5261 56.2311 84.53C56.2311 83.5338 56.9489 82.3866 57.7088 81.1721C58.4126 80.0474 59.1403 78.8844 59.4957 77.5548C59.8646 76.1746 59.8191 74.7705 59.775 73.4124C59.7295 72.0101 59.6865 70.6858 60.15 69.8847C60.6273 69.0597 61.8079 68.4319 63.0577 67.7672C64.2478 67.1343 65.4782 66.4799 66.4735 65.4846C67.4688 64.4893 68.1233 63.2589 68.7561 62.0688C69.4208 60.8188 70.0487 59.6383 70.8736 59.1611C71.6748 58.6976 72.9993 58.7407 74.4013 58.7861C75.7593 58.8304 77.1635 58.876 78.5436 58.5069C79.8731 58.1516 81.0361 57.4238 82.161 56.72C83.3754 55.9601 84.5226 55.2423 85.5187 55.2423C86.5149 55.2423 87.662 55.9601 88.8765 56.72C90.0013 57.4238 91.1643 58.1516 92.4939 58.5069C93.874 58.8758 95.2783 58.8303 96.6362 58.7861C98.0386 58.7409 99.3628 58.6976 100.164 59.1611C100.989 59.6383 101.617 60.819 102.281 62.0688C102.914 63.2589 103.569 64.4893 104.564 65.4846C105.559 66.4799 106.79 67.1344 107.98 67.7673C109.23 68.4321 110.41 69.0599 110.887 69.8847C111.351 70.6859 111.308 72.0103 111.262 73.4124C111.218 74.7704 111.173 76.1746 111.542 77.5548C111.897 78.8842 112.625 80.0472 113.328 81.1719C114.089 82.3865 114.806 83.5338 114.806 84.53C114.806 85.5261 114.089 86.6733 113.329 87.8878Z" fill="#FEFEFE"/>
<path d="M81.8714 88.5692L76.4453 83.1432L73.6719 85.9167L81.8154 94.0603L97.3366 79.1601L94.6201 76.3303L81.8714 88.5692Z" fill="#FEFEFE"/>
<path d="M85.5187 61.6489C72.9021 61.6489 62.6377 71.9133 62.6377 84.5299C62.6377 97.1465 72.9021 107.411 85.5187 107.411C98.1353 107.411 108.4 97.1465 108.4 84.5299C108.4 71.9133 98.1353 61.6489 85.5187 61.6489ZM85.5187 103.488C75.065 103.488 66.5602 94.9837 66.5602 84.5299C66.5602 74.0762 75.065 65.5714 85.5187 65.5714C95.9724 65.5714 104.477 74.0762 104.477 84.5299C104.477 94.9837 95.9724 103.488 85.5187 103.488Z" fill="#FEFEFE"/>
</g>
<rect width="12.3514" height="12.3514" rx="3.1977" transform="matrix(-0.965926 -0.258818 -0.25882 0.965925 177.426 91.3198)" fill="#FC1C43"/>
<rect width="5.57825" height="5.57825" rx="1.59885" transform="matrix(0.939694 -0.342017 -0.342023 -0.939691 34.1289 19.5745)" fill="#003255"/>
<rect width="8.77597" height="8.77597" rx="1.59885" transform="matrix(0.939692 -0.342023 -0.342017 -0.939694 16.5781 142.553)" fill="#2089E1"/>
<defs>
<linearGradient id="paint0_linear_117_850" x1="0.5625" y1="85.3024" x2="154.808" y2="101.799" gradientUnits="userSpaceOnUse">
<stop stop-color="#2C27FF"/>
<stop offset="1" stop-color="#00B6E9"/>
</linearGradient>
<linearGradient id="paint1_linear_117_850" x1="134.822" y1="110.375" x2="50.463" y2="47.6394" gradientUnits="userSpaceOnUse">
<stop stop-color="#FF2969"/>
<stop offset="1" stop-color="#F77A1C"/>
</linearGradient>
<linearGradient id="paint2_linear_117_850" x1="11.375" y1="85.3044" x2="146.706" y2="99.7028" gradientUnits="userSpaceOnUse">
<stop stop-color="#2C27FF"/>
<stop offset="1" stop-color="#00B6E9"/>
</linearGradient>
<linearGradient id="paint3_linear_117_850" x1="129.157" y1="107.414" x2="54.8779" y2="52.4611" gradientUnits="userSpaceOnUse">
<stop stop-color="#FF2969"/>
<stop offset="1" stop-color="#F77A1C"/>
</linearGradient>
<clipPath id="clip0_117_850">
<rect width="66.4203" height="66.4203" fill="white" transform="translate(52.3086 51.3198)"/>
</clipPath>
</defs>
</svg>
