<svg width="164" height="158" viewBox="0 0 164 158" fill="none" xmlns="http://www.w3.org/2000/svg">
<g opacity="0.2">
<path d="M156.863 79.0772C156.863 121.982 122.032 156.765 79.0631 156.765C36.0944 156.765 1.26282 121.982 1.26282 79.0772C1.26282 36.1719 36.0944 1.38892 79.0631 1.38892C122.032 1.38892 156.863 36.1719 156.863 79.0772Z" stroke="url(#paint0_linear_101_761)" stroke-width="1.15454"/>
<path d="M156.863 79.0772C156.863 121.982 122.032 156.765 79.0631 156.765C36.0944 156.765 1.26282 121.982 1.26282 79.0772C1.26282 36.1719 36.0944 1.38892 79.0631 1.38892C122.032 1.38892 156.863 36.1719 156.863 79.0772Z" stroke="#F67939" stroke-width="1.15454"/>
<path d="M156.863 79.0772C156.863 121.982 122.032 156.765 79.0631 156.765C36.0944 156.765 1.26282 121.982 1.26282 79.0772C1.26282 36.1719 36.0944 1.38892 79.0631 1.38892C122.032 1.38892 156.863 36.1719 156.863 79.0772Z" stroke="#3F93FF" stroke-width="1.15454"/>
</g>
<g opacity="0.5">
<path d="M147.602 79.0795C147.602 116.88 117.074 147.52 79.4206 147.52C41.7672 147.52 11.2394 116.88 11.2394 79.0795C11.2394 41.2788 41.7672 10.6389 79.4206 10.6389C117.074 10.6389 147.602 41.2788 147.602 79.0795Z" stroke="url(#paint1_linear_101_761)" stroke-width="1.15454"/>
<path d="M147.602 79.0795C147.602 116.88 117.074 147.52 79.4206 147.52C41.7672 147.52 11.2394 116.88 11.2394 79.0795C11.2394 41.2788 41.7672 10.6389 79.4206 10.6389C117.074 10.6389 147.602 41.2788 147.602 79.0795Z" stroke="#F67939" stroke-width="1.15454"/>
<path d="M147.602 79.0795C147.602 116.88 117.074 147.52 79.4206 147.52C41.7672 147.52 11.2394 116.88 11.2394 79.0795C11.2394 41.2788 41.7672 10.6389 79.4206 10.6389C117.074 10.6389 147.602 41.2788 147.602 79.0795Z" stroke="#3F93FF" stroke-width="1.15454"/>
</g>
<ellipse cx="79.4179" cy="78.7217" rx="58.7831" ry="58.6992" fill="#6563CC"/>
<ellipse cx="79.4179" cy="78.7217" rx="58.7831" ry="58.6992" fill="url(#paint2_linear_101_761)"/>
<ellipse cx="79.4179" cy="78.7217" rx="58.7831" ry="58.6992" fill="url(#paint3_linear_101_761)"/>
<ellipse cx="79.4179" cy="78.7217" rx="58.7831" ry="58.6992" fill="url(#paint4_linear_101_761)"/>
<ellipse cx="79.4179" cy="78.7217" rx="58.7831" ry="58.6992" fill="#003255"/>
<g clip-path="url(#clip0_101_761)">
<path d="M69.106 81.0134L72.5435 82.1593H78.2726L79.4185 86.7426L73.6893 92.4718L69.106 90.1801L65.6685 85.5968L69.106 81.0134Z" fill="white"/>
<path d="M71.3968 68.4092L82.8551 71.8467L89.7301 72.9926L88.5843 52.3676L95.4593 53.5134V81.0134L80.5635 77.5759L70.251 71.8467L71.3968 68.4092Z" fill="white"/>
<path d="M78.2721 52.3676L86.293 51.2217L85.1471 58.0967H75.9805L78.2721 52.3676Z" fill="white"/>
<path d="M68.1297 98.002C67.1653 100.319 66.6412 102.796 66.5842 105.305C66.5842 105.811 66.9946 106.222 67.5008 106.222H95.0008C95.2703 106.222 95.5261 106.103 95.7003 105.897C95.8744 105.692 95.9491 105.42 95.9047 105.154C95.8295 104.696 94.0072 93.9338 90.3212 86.5629C89.4783 84.6947 89.0499 82.6661 89.0654 80.6165C91.0047 81.003 92.963 81.2876 94.9321 81.469L95.0008 81.4718C95.4213 81.4717 95.7878 81.1857 95.89 80.7778C97.3667 74.8736 97.0991 66.6988 96.9222 61.2895C96.8754 59.8503 96.8305 58.6018 96.8305 57.6595C96.8279 55.8523 96.1232 54.1169 94.8652 52.8195C93.9427 51.8185 92.6494 51.2408 91.2883 51.2218H80.4872C79.5232 51.219 78.629 51.7244 78.1342 52.5518C76.9175 54.6352 75.2645 56.4308 73.2887 57.8153C72.8031 58.1362 72.2858 58.4062 71.745 58.6211C69.5643 59.4715 68.1763 61.6262 68.3038 63.9634C68.366 65.696 69.1221 67.3308 70.4021 68.5C70.2104 68.5683 70.0231 68.6482 69.8411 68.7393C68.7165 69.2819 67.8975 70.3038 67.6127 71.5195C63.3635 74.3193 60.8874 79.1369 61.0842 84.2218C61.0842 91.8301 64.7554 95.8827 68.1297 98.002ZM79.7017 53.5006C79.8671 53.2244 80.1653 53.0553 80.4872 53.0551H84.8561C84.6654 54.8307 83.8477 58.5551 80.3342 58.5551C78.8398 58.5544 77.3488 58.4129 75.881 58.1325C77.3766 56.7859 78.6641 55.225 79.7017 53.5006ZM70.1362 63.9011C70.0318 62.3378 70.9574 60.8886 72.4197 60.3261C72.9405 60.1135 73.443 59.8584 73.9221 59.5634C76.017 60.1112 78.1734 60.3884 80.3387 60.3884C84.9138 60.3884 86.4502 56.0095 86.7096 53.0551H88.3513C86.8865 59.1005 86.5897 65.3701 87.4768 71.5268C86.0581 71.2531 84.6223 71.0764 83.1795 70.9979C82.0097 70.9633 80.8471 70.8025 79.7117 70.5185C78.9417 70.2618 78.1534 69.9383 77.3981 69.6257C76.2066 69.0885 74.9677 68.6632 73.6975 68.3552C71.6895 67.7707 70.2645 65.9885 70.1362 63.9011ZM70.6606 70.3755C71.4514 70.0104 72.3417 69.9204 73.1897 70.1198C73.2648 70.1447 73.3427 70.1604 73.4216 70.1665C74.5429 70.4586 75.6376 70.8447 76.6941 71.3206C77.4824 71.6451 78.2973 71.9815 79.1278 72.2583C80.4054 72.5963 81.7174 72.7867 83.0383 72.8258C85.6499 73.021 88.6117 73.2419 90.7842 74.8718C91.0462 75.0683 91.3931 75.11 91.6942 74.9814C91.9954 74.8528 92.2051 74.5732 92.2442 74.2481C92.2834 73.9229 92.1462 73.6016 91.8842 73.4051C91.1339 72.855 90.3083 72.4157 89.433 72.1007C88.3754 65.7656 88.6464 59.2799 90.2287 53.0551H91.2883C92.1551 53.0826 92.9739 53.4599 93.558 54.101C94.4682 55.0557 94.9837 56.3194 95.0008 57.6384C95.0008 58.6174 95.0421 59.887 95.0925 61.3491C95.2584 66.4201 95.505 73.967 94.2941 79.5623C91.5175 79.2516 81.8567 77.8968 73.5417 73.3895C72.4147 72.3949 71.033 71.7337 69.5514 71.4801C69.7854 70.9981 70.1766 70.6101 70.6606 70.3801V70.3755ZM68.4037 73.2218H68.4175C69.873 73.2615 71.2673 73.8159 72.3527 74.7865C72.4148 74.8482 72.4852 74.9009 72.5617 74.9433C77.1782 77.37 82.107 79.1492 87.2092 80.2306C87.1497 82.6943 87.6512 85.1393 88.6758 87.3806C91.5844 93.1886 93.3407 101.469 93.9008 104.388H68.4642C68.6053 102.5 69.0382 100.644 69.7476 98.8884C72.5874 100.209 75.6852 100.882 78.8171 100.859C79.6654 100.859 80.5131 100.812 81.3562 100.718C81.6818 100.682 81.9632 100.474 82.0945 100.174C82.2257 99.8743 82.187 99.527 81.9927 99.2632C81.7985 98.9995 81.4783 98.8594 81.1527 98.8958C77.2369 99.3792 73.2665 98.6636 69.7659 96.8433C66.6401 95.1017 62.9175 91.501 62.9175 84.2218C62.9175 79.4487 64.7774 75.76 68.4037 73.2218Z" fill="white" stroke="white" stroke-width="0.950351"/>
<path d="M70.7477 91.7713C71.2684 92.2058 71.8221 92.6687 72.4041 93.1674C72.7472 93.4608 73.2528 93.4608 73.5958 93.1674C74.1779 92.6687 74.7316 92.2058 75.2522 91.7713C78.3175 89.2175 80.3342 87.5308 80.3342 84.9165C80.377 83.788 79.9638 82.6898 79.1879 81.8693C78.4119 81.0488 77.3383 80.5751 76.2092 80.555C74.9954 80.5534 73.8347 81.0525 73.0009 81.9346C72.1671 81.0525 71.0064 80.5534 69.7926 80.555C68.6634 80.5751 67.5899 81.0488 66.8139 81.8693C66.0379 82.6898 65.6248 83.788 65.6676 84.9165C65.6676 87.5308 67.6842 89.2175 70.7477 91.7713ZM69.7926 82.3883C70.7947 82.4233 71.7038 82.9852 72.1832 83.866C72.3392 84.1713 72.6525 84.364 72.9954 84.3656H73.0009C73.3447 84.3642 73.6592 84.1716 73.8167 83.866C74.2963 82.9845 75.2063 82.4225 76.2092 82.3883C76.8529 82.407 77.4611 82.6872 77.8935 83.1643C78.326 83.6414 78.5453 84.2741 78.5009 84.9165C78.5009 86.6728 76.8371 88.0625 74.0798 90.3642C73.7342 90.653 73.374 90.9527 73.0009 91.2681C72.6278 90.9527 72.2676 90.653 71.922 90.3642C69.1646 88.0625 67.5009 86.6728 67.5009 84.9165C67.4565 84.2741 67.6758 83.6414 68.1082 83.1643C68.5407 82.6872 69.1489 82.407 69.7926 82.3883Z" fill="#003255" stroke="white" stroke-width="0.950351"/>
</g>
<rect width="11.3939" height="11.3798" rx="3.25583" transform="matrix(-0.966018 -0.258475 -0.259164 0.965833 163.854 84.6202)" fill="#F3A100"/>
<rect width="5.14544" height="5.13981" rx="1.62791" transform="matrix(0.939851 -0.341585 -0.342455 -0.939534 31.6543 18.5265)" fill="#F75E1C"/>
<rect width="8.09505" height="8.08619" rx="1.62791" transform="matrix(0.939848 -0.341593 -0.342447 -0.939537 15.4629 131.819)" fill="#2089E1"/>
<defs>
<linearGradient id="paint0_linear_101_761" x1="0.685547" y1="79.0772" x2="142.982" y2="94.3174" gradientUnits="userSpaceOnUse">
<stop stop-color="#2C27FF"/>
<stop offset="1" stop-color="#00B6E9"/>
</linearGradient>
<linearGradient id="paint1_linear_101_761" x1="10.6621" y1="79.0795" x2="135.509" y2="92.3816" gradientUnits="userSpaceOnUse">
<stop stop-color="#2C27FF"/>
<stop offset="1" stop-color="#00B6E9"/>
</linearGradient>
<linearGradient id="paint2_linear_101_761" x1="-58.8587" y1="128.937" x2="-18.4831" y2="-8.25402" gradientUnits="userSpaceOnUse">
<stop stop-color="#FFE259"/>
<stop offset="1" stop-color="#FFA751"/>
</linearGradient>
<linearGradient id="paint3_linear_101_761" x1="-58.8587" y1="128.937" x2="-18.4831" y2="-8.25402" gradientUnits="userSpaceOnUse">
<stop stop-color="#FD916B"/>
<stop offset="1" stop-color="#FB6259"/>
</linearGradient>
<linearGradient id="paint4_linear_101_761" x1="63.0749" y1="66.6772" x2="166.823" y2="154.77" gradientUnits="userSpaceOnUse">
<stop stop-color="#4489FF"/>
<stop offset="1" stop-color="#22BDFF"/>
</linearGradient>
<clipPath id="clip0_101_761">
<rect width="55" height="55" fill="white" transform="translate(51.918 51.2217)"/>
</clipPath>
</defs>
</svg>
