<svg width="153" height="153" viewBox="0 0 153 153" fill="none" xmlns="http://www.w3.org/2000/svg">
<g opacity="0.15">
<circle cx="76.1901" cy="76.1435" r="75.9382" fill="#1297E0"/>
<circle cx="76.1901" cy="76.1435" r="75.9382" fill="#2E6FFF"/>
<circle cx="76.1901" cy="76.1435" r="75.9382" fill="#55A2D5"/>
</g>
<circle cx="76.1896" cy="76.143" r="63.9084" fill="#1FB6DC"/>
<circle cx="76.1896" cy="76.143" r="63.9084" fill="url(#paint0_linear_382_1710)" fill-opacity="0.8"/>
<circle cx="76.1896" cy="76.143" r="63.9084" fill="#1297E0"/>
<circle cx="76.1896" cy="76.143" r="63.9084" fill="url(#paint1_linear_382_1710)" fill-opacity="0.56"/>
<circle cx="76.1896" cy="76.143" r="63.9084" fill="#2E6FFF"/>
<circle cx="76.1896" cy="76.143" r="63.9084" fill="url(#paint2_linear_382_1710)"/>
<circle cx="76.1896" cy="76.143" r="63.9084" fill="#55A2D5"/>
<g clip-path="url(#clip0_382_1710)">
<path d="M104.914 71.1312C104.383 70.2838 103.882 69.4833 103.694 68.7825C103.492 68.0272 103.524 67.0507 103.557 66.0168C103.611 64.3554 103.673 62.4723 102.727 60.8399C101.768 59.1848 100.091 58.2942 98.6115 57.5084C97.7085 57.0289 96.8557 56.576 96.3196 56.0407C95.7837 55.5056 95.3301 54.6539 94.8498 53.7523C94.063 52.2747 93.1711 50.6002 91.5135 49.6426C89.8788 48.6981 87.9932 48.7588 86.3292 48.8133C85.2936 48.8466 84.3157 48.8784 83.5595 48.6767C82.8576 48.4893 82.0561 47.9884 81.2074 47.4582C79.7735 46.5624 78.1481 45.5468 76.1902 45.5468C74.2324 45.5468 72.607 46.5624 71.1729 47.4583C70.3243 47.9885 69.5226 48.4895 68.8207 48.6768C68.0644 48.8786 67.0866 48.8468 66.0511 48.8134C64.3874 48.7592 62.5016 48.6982 60.8669 49.6427C59.2093 50.6003 58.3175 52.2749 57.5306 53.7524C57.0504 54.654 56.5967 55.5057 56.0608 56.0409C55.5248 56.5759 54.672 57.0289 53.769 57.5084C52.2895 58.2942 50.6125 59.1848 49.6535 60.84C48.7076 62.4724 48.7689 64.3555 48.8228 66.0169C48.8565 67.0509 48.8882 68.0275 48.6861 68.7827C48.4984 69.4836 47.9969 70.284 47.4658 71.1314C46.5689 72.5633 45.5518 74.1864 45.5518 76.1415C45.5518 78.0965 46.5689 79.7196 47.4662 81.1518C47.9972 81.9992 48.4987 82.7997 48.6864 83.5005C48.8885 84.2557 48.8567 85.2322 48.8231 86.2662C48.769 87.9275 48.7078 89.8107 49.6536 91.443C50.6125 93.0982 52.2896 93.9888 53.769 94.7745C54.672 95.254 55.5248 95.7069 56.0609 96.2422C56.5968 96.7774 57.0504 97.6291 57.5307 98.5307C58.3175 100.008 59.2094 101.683 60.867 102.64C62.5017 103.585 64.3872 103.524 66.0513 103.47C67.0868 103.436 68.0648 103.404 68.821 103.606C69.5229 103.794 70.3244 104.295 71.1731 104.825C72.607 105.721 74.2324 106.736 76.1902 106.736C78.1481 106.736 79.7735 105.721 81.2076 104.825C82.0562 104.294 82.8579 103.793 83.5598 103.606C84.3161 103.404 85.2939 103.436 86.3294 103.47C87.9931 103.524 89.879 103.585 91.5136 102.64C93.1712 101.683 94.063 100.008 94.8499 98.5305C95.3301 97.629 95.7838 96.7772 96.3197 96.2421C96.8557 95.707 97.7085 95.254 98.6115 94.7745C100.091 93.9888 101.768 93.0982 102.727 91.4429C103.673 89.8106 103.612 87.9274 103.558 86.266C103.524 85.2321 103.492 84.2555 103.694 83.5002C103.882 82.7993 104.384 81.9989 104.915 81.1515C105.812 79.7196 106.829 78.0965 106.829 76.1415C106.829 74.1864 105.812 72.5633 104.914 71.1312V71.1312ZM101.847 79.2349C101.197 80.271 100.526 81.3425 100.198 82.5673C99.8579 83.8388 99.8998 85.1323 99.9405 86.3835C99.9825 87.6753 100.022 88.8954 99.5946 89.6334C99.1542 90.3934 98.065 90.9717 96.912 91.5841C95.8141 92.1672 94.6789 92.7701 93.7607 93.6869C92.8425 94.6038 92.2387 95.7374 91.6548 96.8337C91.0416 97.9853 90.4624 99.0728 89.7013 99.5125C88.9623 99.9395 87.7403 99.9 86.4468 99.8579C85.194 99.8173 83.8986 99.7752 82.6253 100.115C81.3987 100.442 80.3257 101.113 79.288 101.761C78.1676 102.461 77.1093 103.123 76.1902 103.123C75.2712 103.123 74.213 102.461 73.0925 101.761C72.0548 101.113 70.9818 100.442 69.7552 100.115C68.9012 99.8871 68.0371 99.8311 67.1826 99.8311C66.7632 99.8311 66.3461 99.8445 65.9337 99.858C64.64 99.8998 63.4182 99.9397 62.6792 99.5126C61.918 99.0729 61.3389 97.9853 60.7256 96.8339C60.1417 95.7375 59.538 94.6039 58.6198 93.6871C57.7016 92.7702 56.5663 92.1672 55.4684 91.5841C54.3153 90.9717 53.2262 90.3933 52.7859 89.6335C52.3583 88.8954 52.398 87.6753 52.44 86.3836C52.4806 85.1326 52.5227 83.8389 52.1825 82.5674C51.8546 81.3427 51.1832 80.2713 50.534 79.2351C49.8327 78.1162 49.1705 77.0592 49.1705 76.1415C49.1705 75.2237 49.8327 74.1669 50.5338 73.048C51.1831 72.0119 51.8545 70.9405 52.1823 69.7156C52.5226 68.4441 52.4806 67.1506 52.44 65.8995C52.398 64.6076 52.3583 63.3876 52.7859 62.6496C53.2263 61.8895 54.3155 61.3112 55.4685 60.6988C56.5664 60.1157 57.7016 59.5129 58.6198 58.596C59.538 57.6791 60.1418 56.5456 60.7256 55.4492C61.3389 54.2977 61.9181 53.2101 62.6792 52.7705C63.4183 52.3435 64.6403 52.3832 65.9337 52.425C67.1865 52.4659 68.482 52.5079 69.7552 52.1679C70.9818 51.8405 72.0548 51.17 73.0925 50.5216C74.2129 49.8216 75.2712 49.1603 76.1902 49.1603C77.1093 49.1603 78.1675 49.8216 79.288 50.5216C80.3257 51.17 81.3987 51.8405 82.6253 52.1679C83.8985 52.5077 85.1941 52.4657 86.4468 52.425C87.7406 52.3833 88.9623 52.3435 89.7013 52.7705C90.4625 53.2101 91.0416 54.2978 91.6548 55.4492C92.2388 56.5456 92.8425 57.6791 93.7607 58.596C94.6789 59.5129 95.8142 60.1159 96.9121 60.699C98.0652 61.3113 99.1543 61.8898 99.5946 62.6496C100.022 63.3877 99.9825 64.6077 99.9405 65.8995C99.8998 67.1505 99.8578 68.4441 100.198 69.7156C100.526 70.9404 101.197 72.0118 101.846 73.0479C102.548 74.1668 103.21 75.2237 103.21 76.1415C103.21 77.0592 102.548 78.116 101.847 79.2349V79.2349Z" fill="#FEFEFE"/>
<path d="M72.8253 79.8628L67.8194 74.8641L65.2607 77.4192L72.7737 84.9215L87.093 71.1947L84.5869 68.5878L72.8253 79.8628Z" fill="#FEFEFE"/>
<path d="M76.1902 55.0624C64.5506 55.0624 55.0811 64.5184 55.0811 76.1414C55.0811 87.7644 64.5506 97.2204 76.1902 97.2204C87.8299 97.2204 97.2994 87.7644 97.2994 76.1414C97.2994 64.5184 87.8299 55.0624 76.1902 55.0624ZM76.1902 93.6069C66.546 93.6069 58.6998 85.7719 58.6998 76.1414C58.6998 66.5109 66.546 58.6759 76.1902 58.6759C85.8345 58.6759 93.6807 66.5109 93.6807 76.1414C93.6807 85.7719 85.8345 93.6069 76.1902 93.6069Z" fill="#FEFEFE"/>
</g>
<defs>
<linearGradient id="paint0_linear_382_1710" x1="76.1896" y1="-32.4242" x2="167.709" y2="13.1835" gradientUnits="userSpaceOnUse">
<stop stop-color="#E6B0FF"/>
<stop offset="1" stop-color="#8372DF"/>
</linearGradient>
<linearGradient id="paint1_linear_382_1710" x1="83.7343" y1="-110.537" x2="207.996" y2="-42.711" gradientUnits="userSpaceOnUse">
<stop stop-color="#5BFFA6"/>
<stop offset="1" stop-color="#2B75CC"/>
</linearGradient>
<linearGradient id="paint2_linear_382_1710" x1="12.2812" y1="76.143" x2="140.098" y2="76.143" gradientUnits="userSpaceOnUse">
<stop stop-color="#FF8008"/>
<stop offset="1" stop-color="#FFC837"/>
</linearGradient>
<clipPath id="clip0_382_1710">
<rect width="61.277" height="61.1894" fill="white" transform="translate(45.5518 45.5487)"/>
</clipPath>
</defs>
</svg>
