<svg width="164" height="158" viewBox="0 0 164 158" fill="none" xmlns="http://www.w3.org/2000/svg">
<g opacity="0.2">
<path d="M156.863 79.2265C156.863 122.132 122.032 156.915 79.0631 156.915C36.0944 156.915 1.26282 122.132 1.26282 79.2265C1.26282 36.3212 36.0944 1.53821 79.0631 1.53821C122.032 1.53821 156.863 36.3212 156.863 79.2265Z" stroke="url(#paint0_linear_101_743)" stroke-width="1.15454"/>
<path d="M156.863 79.2265C156.863 122.132 122.032 156.915 79.0631 156.915C36.0944 156.915 1.26282 122.132 1.26282 79.2265C1.26282 36.3212 36.0944 1.53821 79.0631 1.53821C122.032 1.53821 156.863 36.3212 156.863 79.2265Z" stroke="#F67939" stroke-width="1.15454"/>
<path d="M156.863 79.2265C156.863 122.132 122.032 156.915 79.0631 156.915C36.0944 156.915 1.26282 122.132 1.26282 79.2265C1.26282 36.3212 36.0944 1.53821 79.0631 1.53821C122.032 1.53821 156.863 36.3212 156.863 79.2265Z" stroke="#3F93FF" stroke-width="1.15454"/>
</g>
<g opacity="0.5">
<path d="M147.602 79.2288C147.602 117.03 117.074 147.669 79.4206 147.669C41.7672 147.669 11.2394 117.03 11.2394 79.2288C11.2394 41.428 41.7672 10.7882 79.4206 10.7882C117.074 10.7882 147.602 41.428 147.602 79.2288Z" stroke="url(#paint1_linear_101_743)" stroke-width="1.15454"/>
<path d="M147.602 79.2288C147.602 117.03 117.074 147.669 79.4206 147.669C41.7672 147.669 11.2394 117.03 11.2394 79.2288C11.2394 41.428 41.7672 10.7882 79.4206 10.7882C117.074 10.7882 147.602 41.428 147.602 79.2288Z" stroke="#F67939" stroke-width="1.15454"/>
<path d="M147.602 79.2288C147.602 117.03 117.074 147.669 79.4206 147.669C41.7672 147.669 11.2394 117.03 11.2394 79.2288C11.2394 41.428 41.7672 10.7882 79.4206 10.7882C117.074 10.7882 147.602 41.428 147.602 79.2288Z" stroke="#3F93FF" stroke-width="1.15454"/>
</g>
<ellipse cx="79.4179" cy="78.871" rx="58.7831" ry="58.6992" fill="#6563CC"/>
<ellipse cx="79.4179" cy="78.871" rx="58.7831" ry="58.6992" fill="url(#paint2_linear_101_743)"/>
<ellipse cx="79.4179" cy="78.871" rx="58.7831" ry="58.6992" fill="url(#paint3_linear_101_743)"/>
<ellipse cx="79.4179" cy="78.871" rx="58.7831" ry="58.6992" fill="url(#paint4_linear_101_743)"/>
<ellipse cx="79.4179" cy="78.871" rx="58.7831" ry="58.6992" fill="#003255"/>
<g clip-path="url(#clip0_101_743)">
<path d="M87.8979 61.4677V54.8828C87.8979 54.3305 87.4501 53.8828 86.8979 53.8828H71.938C71.3857 53.8828 70.938 54.3305 70.938 54.8828V61.4677H52.918C52.3657 61.4677 51.918 61.9154 51.918 62.4677V98.8594C51.918 99.4117 52.3657 99.8594 52.918 99.8594H105.918C106.47 99.8594 106.918 99.4117 106.918 98.8594V62.4677C106.918 61.9154 106.47 61.4677 105.918 61.4677H87.8979ZM74.1606 57.1055H84.6752V61.4677H74.1606V57.1055ZM55.1406 64.6903H59.9746V69.1367H55.1406V64.6903ZM59.9746 96.6367H55.1406V92.1903H59.9746V96.6367ZM103.695 96.6367H98.8613V92.1903H103.695V96.6367ZM103.695 88.9677H95.6387V96.6367H63.1973V88.9677H55.1406V72.3594H63.1973V64.6903H95.6387V72.3594H103.695V88.9677ZM103.695 69.1367H98.8613V64.6903H103.695V69.1367Z" fill="white"/>
<path d="M84.4934 75.6435V71.451H74.3424V75.6435H70.1499V85.7945H74.3424V89.987H84.4934V85.7945H88.6859V75.6435H84.4934ZM85.4632 82.5718H81.2708V86.7643H77.565V82.5718H73.3726V78.8661H77.565V74.6736H81.2708V78.8661H85.4632V82.5718Z" fill="white"/>
</g>
<rect width="11.3939" height="11.3798" rx="3.25583" transform="matrix(-0.966018 -0.258475 -0.259164 0.965833 163.854 84.7695)" fill="#F3A100"/>
<rect width="5.14544" height="5.13981" rx="1.62791" transform="matrix(0.939851 -0.341585 -0.342455 -0.939534 31.6543 18.6758)" fill="#F75E1C"/>
<rect width="8.09505" height="8.08619" rx="1.62791" transform="matrix(0.939848 -0.341593 -0.342447 -0.939537 15.4629 131.969)" fill="#2089E1"/>
<defs>
<linearGradient id="paint0_linear_101_743" x1="0.685547" y1="79.2265" x2="142.982" y2="94.4667" gradientUnits="userSpaceOnUse">
<stop stop-color="#2C27FF"/>
<stop offset="1" stop-color="#00B6E9"/>
</linearGradient>
<linearGradient id="paint1_linear_101_743" x1="10.6621" y1="79.2288" x2="135.509" y2="92.5309" gradientUnits="userSpaceOnUse">
<stop stop-color="#2C27FF"/>
<stop offset="1" stop-color="#00B6E9"/>
</linearGradient>
<linearGradient id="paint2_linear_101_743" x1="-58.8587" y1="129.086" x2="-18.4831" y2="-8.10472" gradientUnits="userSpaceOnUse">
<stop stop-color="#FFE259"/>
<stop offset="1" stop-color="#FFA751"/>
</linearGradient>
<linearGradient id="paint3_linear_101_743" x1="-58.8587" y1="129.086" x2="-18.4831" y2="-8.10472" gradientUnits="userSpaceOnUse">
<stop stop-color="#FD916B"/>
<stop offset="1" stop-color="#FB6259"/>
</linearGradient>
<linearGradient id="paint4_linear_101_743" x1="63.0749" y1="66.8264" x2="166.823" y2="154.92" gradientUnits="userSpaceOnUse">
<stop stop-color="#4489FF"/>
<stop offset="1" stop-color="#22BDFF"/>
</linearGradient>
<clipPath id="clip0_101_743">
<rect width="55" height="55" fill="white" transform="translate(51.918 49.3711)"/>
</clipPath>
</defs>
</svg>
