<svg width="164" height="158" viewBox="0 0 164 158" fill="none" xmlns="http://www.w3.org/2000/svg">
<g opacity="0.2">
<path d="M156.631 79.2265C156.631 122.132 121.799 156.915 78.8306 156.915C35.862 156.915 1.0304 122.132 1.0304 79.2265C1.0304 36.3212 35.862 1.53821 78.8306 1.53821C121.799 1.53821 156.631 36.3212 156.631 79.2265Z" stroke="url(#paint0_linear_101_779)" stroke-width="1.15454"/>
<path d="M156.631 79.2265C156.631 122.132 121.799 156.915 78.8306 156.915C35.862 156.915 1.0304 122.132 1.0304 79.2265C1.0304 36.3212 35.862 1.53821 78.8306 1.53821C121.799 1.53821 156.631 36.3212 156.631 79.2265Z" stroke="#F67939" stroke-width="1.15454"/>
<path d="M156.631 79.2265C156.631 122.132 121.799 156.915 78.8306 156.915C35.862 156.915 1.0304 122.132 1.0304 79.2265C1.0304 36.3212 35.862 1.53821 78.8306 1.53821C121.799 1.53821 156.631 36.3212 156.631 79.2265Z" stroke="#3F93FF" stroke-width="1.15454"/>
</g>
<g opacity="0.5">
<path d="M147.367 79.2288C147.367 117.03 116.84 147.669 79.1862 147.669C41.5328 147.669 11.005 117.03 11.005 79.2288C11.005 41.428 41.5328 10.7882 79.1862 10.7882C116.84 10.7882 147.367 41.428 147.367 79.2288Z" stroke="url(#paint1_linear_101_779)" stroke-width="1.15454"/>
<path d="M147.367 79.2288C147.367 117.03 116.84 147.669 79.1862 147.669C41.5328 147.669 11.005 117.03 11.005 79.2288C11.005 41.428 41.5328 10.7882 79.1862 10.7882C116.84 10.7882 147.367 41.428 147.367 79.2288Z" stroke="#F67939" stroke-width="1.15454"/>
<path d="M147.367 79.2288C147.367 117.03 116.84 147.669 79.1862 147.669C41.5328 147.669 11.005 117.03 11.005 79.2288C11.005 41.428 41.5328 10.7882 79.1862 10.7882C116.84 10.7882 147.367 41.428 147.367 79.2288Z" stroke="#3F93FF" stroke-width="1.15454"/>
</g>
<ellipse cx="79.1874" cy="78.871" rx="58.7831" ry="58.6992" fill="#6563CC"/>
<ellipse cx="79.1874" cy="78.871" rx="58.7831" ry="58.6992" fill="url(#paint2_linear_101_779)"/>
<ellipse cx="79.1874" cy="78.871" rx="58.7831" ry="58.6992" fill="url(#paint3_linear_101_779)"/>
<ellipse cx="79.1874" cy="78.871" rx="58.7831" ry="58.6992" fill="url(#paint4_linear_101_779)"/>
<ellipse cx="79.1874" cy="78.871" rx="58.7831" ry="58.6992" fill="#003255"/>
<g clip-path="url(#clip0_101_779)">
<ellipse cx="82.0369" cy="60.8931" rx="4.58333" ry="4.58333" fill="white"/>
<ellipse cx="60.2656" cy="66.6224" rx="3.4375" ry="3.4375" fill="white"/>
<ellipse cx="60.2656" cy="94.1224" rx="3.4375" ry="3.4375" fill="white"/>
<circle cx="84.3285" cy="99.8515" r="4.58333" fill="white"/>
<ellipse cx="102.661" cy="86.1015" rx="4.58333" ry="4.58333" fill="white"/>
<circle cx="103.807" cy="66.6224" r="3.4375" fill="white"/>
<path d="M105.177 79.5433V71.1322C107.005 70.4701 108.315 68.7168 108.315 66.663C108.315 64.385 106.703 62.4771 104.56 62.0176L98.9479 52.19L96.1457 53.7903L101.158 62.5674C100.36 63.0378 99.711 63.7343 99.2995 64.5687L87.0468 60.3465C86.4961 57.7697 84.2025 55.8311 81.4638 55.8311C78.7362 55.8311 76.4505 57.7542 75.8879 60.3154L64.9499 63.7632C63.9765 62.7263 62.5952 62.0767 61.0641 62.0767C58.1242 62.0767 55.7325 64.4685 55.7325 67.4084C55.7325 70.3483 58.1242 72.7401 61.0641 72.7401C61.7311 72.7401 62.3693 72.6159 62.9583 72.3913L67.7623 78.127C67.1294 79.2854 66.7691 80.6132 66.7691 82.0237C66.7691 83.0507 66.9618 84.0332 67.31 84.9391L63.0679 89.0721C62.2381 88.6032 61.281 88.3342 60.2617 88.3342C57.1052 88.3342 54.5371 90.9022 54.5371 94.0587C54.5371 96.7427 56.3942 99 58.8907 99.6162L60.1336 106.263L63.3055 105.67L62.145 99.4634C64.3789 98.6827 65.9862 96.5555 65.9862 94.0587C65.9862 93.0925 65.7446 92.1819 65.3202 91.3829L69.0883 87.7116C70.5346 89.1949 72.5393 90.1295 74.7594 90.1736L79.2249 96.6325C78.4591 97.6042 78.0005 98.8288 78.0005 100.159C78.0005 103.307 80.5618 105.869 83.71 105.869C86.8583 105.869 89.4197 103.308 89.4197 100.159C89.4197 99.981 89.4104 99.8052 89.3943 99.6311L101.874 91.0232C102.41 91.1814 102.977 91.2679 103.563 91.2679C106.857 91.2679 109.537 88.588 109.537 85.294C109.537 82.5591 107.689 80.2492 105.177 79.5433ZM60.2617 96.5564C58.8845 96.5564 57.764 95.4359 57.764 94.0588C57.764 92.6817 58.8845 91.5611 60.2617 91.5611C61.639 91.5611 62.7593 92.6816 62.7593 94.0588C62.7593 95.436 61.6389 96.5564 60.2617 96.5564ZM98.1008 82.8799L82.9529 80.6149C82.4197 77.5678 80.1908 75.0975 77.2766 74.2172L80.5021 67.1676C80.815 67.2209 81.1359 67.2502 81.4637 67.2502C83.8626 67.2502 85.9192 65.7624 86.7631 63.6618L98.9665 67.867C99.3636 69.3821 100.492 70.6041 101.95 71.1322V79.5433C100.226 80.0275 98.8167 81.2663 98.1008 82.8799ZM103.563 68.1878C102.723 68.1878 102.039 67.5038 102.039 66.6631C102.039 65.8224 102.723 65.1384 103.563 65.1384C104.404 65.1384 105.088 65.8224 105.088 66.6631C105.088 67.5038 104.404 68.1878 103.563 68.1878ZM81.4638 59.0579C82.8328 59.0579 83.9466 60.1716 83.9466 61.5406C83.9466 62.9097 82.8329 64.0234 81.4638 64.0234C80.0947 64.0234 78.981 62.9097 78.981 61.5406C78.981 60.1716 80.0948 59.0579 81.4638 59.0579ZM76.1467 63.6172C76.467 64.4341 76.9692 65.1603 77.6048 65.7442L73.854 73.9419C72.3648 74.138 71.0017 74.7368 69.8768 75.6259L65.4864 70.3839C66.0604 69.5336 66.3959 68.5094 66.3959 67.4084C66.3959 67.1702 66.3786 66.9359 66.3482 66.7058L76.1467 63.6172ZM58.9593 67.4084C58.9593 66.2478 59.9035 65.3036 61.0641 65.3036C62.2247 65.3036 63.1689 66.2478 63.1689 67.4084C63.1689 68.569 62.2247 69.5132 61.0641 69.5132C59.9035 69.5132 58.9593 68.569 58.9593 67.4084ZM69.996 82.0237C69.996 79.3069 72.2063 77.0964 74.9232 77.0964C77.6401 77.0964 79.8504 79.3067 79.8504 82.0237C79.8504 84.7406 77.64 86.9508 74.9232 86.9508C72.2064 86.9508 69.996 84.7405 69.996 82.0237ZM83.71 102.642C82.3411 102.642 81.2274 101.528 81.2274 100.159C81.2274 98.79 82.3411 97.6763 83.71 97.6763C85.079 97.6763 86.1928 98.79 86.1928 100.159C86.1928 101.528 85.079 102.642 83.71 102.642ZM83.71 94.4495C83.0604 94.4495 82.4363 94.5601 81.8539 94.7609L78.2064 89.485C80.5266 88.46 82.281 86.3847 82.865 83.8645L97.6419 86.074C97.7919 87.2177 98.265 88.2609 98.9686 89.1072L88.1471 96.5713C87.0996 95.2781 85.5001 94.4495 83.71 94.4495ZM103.563 88.041C102.049 88.041 100.816 86.8086 100.816 85.294C100.816 83.7793 102.049 82.547 103.563 82.547C105.078 82.547 106.31 83.7793 106.31 85.294C106.31 86.8087 105.078 88.041 103.563 88.041Z" fill="white"/>
</g>
<rect width="11.3939" height="11.3798" rx="3.25583" transform="matrix(-0.966018 -0.258475 -0.259164 0.965833 163.621 84.7695)" fill="#F3A100"/>
<rect width="5.14544" height="5.13981" rx="1.62791" transform="matrix(0.939851 -0.341585 -0.342455 -0.939534 31.4199 18.6758)" fill="#F75E1C"/>
<rect width="8.09505" height="8.08619" rx="1.62791" transform="matrix(0.939848 -0.341593 -0.342447 -0.939537 15.2285 131.969)" fill="#2089E1"/>
<defs>
<linearGradient id="paint0_linear_101_779" x1="0.453125" y1="79.2265" x2="142.749" y2="94.4667" gradientUnits="userSpaceOnUse">
<stop stop-color="#2C27FF"/>
<stop offset="1" stop-color="#00B6E9"/>
</linearGradient>
<linearGradient id="paint1_linear_101_779" x1="10.4277" y1="79.2288" x2="135.275" y2="92.5309" gradientUnits="userSpaceOnUse">
<stop stop-color="#2C27FF"/>
<stop offset="1" stop-color="#00B6E9"/>
</linearGradient>
<linearGradient id="paint2_linear_101_779" x1="-59.0891" y1="129.086" x2="-18.7135" y2="-8.10472" gradientUnits="userSpaceOnUse">
<stop stop-color="#FFE259"/>
<stop offset="1" stop-color="#FFA751"/>
</linearGradient>
<linearGradient id="paint3_linear_101_779" x1="-59.0891" y1="129.086" x2="-18.7135" y2="-8.10472" gradientUnits="userSpaceOnUse">
<stop stop-color="#FD916B"/>
<stop offset="1" stop-color="#FB6259"/>
</linearGradient>
<linearGradient id="paint4_linear_101_779" x1="62.8444" y1="66.8264" x2="166.593" y2="154.92" gradientUnits="userSpaceOnUse">
<stop stop-color="#4489FF"/>
<stop offset="1" stop-color="#22BDFF"/>
</linearGradient>
<clipPath id="clip0_101_779">
<rect width="55" height="55" fill="white" transform="translate(54.5371 51.7265)"/>
</clipPath>
</defs>
</svg>
